<svg width="1161" height="417" viewBox="0 0 1161 417" fill="none" xmlns="http://www.w3.org/2000/svg">
<g opacity="0.2">
<circle cx="3.55566" cy="3.68555" r="3.10059" fill="#F5F5F5"/>
<circle cx="598.868" cy="3.68555" r="3.10059" fill="#F5F5F5"/>
<circle cx="3.55566" cy="40.8926" r="3.10059" fill="#F5F5F5"/>
<circle cx="598.868" cy="40.8926" r="3.10059" fill="#F5F5F5"/>
<circle cx="77.9697" cy="3.68555" r="3.10059" fill="#F5F5F5"/>
<circle cx="673.282" cy="3.68555" r="3.10059" fill="#F5F5F5"/>
<circle cx="77.9697" cy="40.8926" r="3.10059" fill="#F5F5F5"/>
<circle cx="673.282" cy="40.8926" r="3.10059" fill="#F5F5F5"/>
<circle cx="40.7627" cy="3.68555" r="3.10059" fill="#F5F5F5"/>
<circle cx="636.075" cy="3.68555" r="3.10059" fill="#F5F5F5"/>
<circle cx="40.7627" cy="40.8926" r="3.10059" fill="#F5F5F5"/>
<circle cx="636.075" cy="40.8926" r="3.10059" fill="#F5F5F5"/>
<circle cx="115.177" cy="3.68555" r="3.10059" fill="#F5F5F5"/>
<circle cx="710.489" cy="3.68555" r="3.10059" fill="#F5F5F5"/>
<circle cx="115.177" cy="40.8926" r="3.10059" fill="#F5F5F5"/>
<circle cx="710.489" cy="40.8926" r="3.10059" fill="#F5F5F5"/>
<circle cx="152.384" cy="3.68555" r="3.10059" fill="#F5F5F5"/>
<circle cx="747.696" cy="3.68555" r="3.10059" fill="#F5F5F5"/>
<circle cx="152.384" cy="40.8926" r="3.10059" fill="#F5F5F5"/>
<circle cx="747.696" cy="40.8926" r="3.10059" fill="#F5F5F5"/>
<circle cx="226.798" cy="3.68555" r="3.10059" fill="#F5F5F5"/>
<circle cx="822.11" cy="3.68555" r="3.10059" fill="#F5F5F5"/>
<circle cx="226.798" cy="40.8926" r="3.10059" fill="#F5F5F5"/>
<circle cx="822.11" cy="40.8926" r="3.10059" fill="#F5F5F5"/>
<circle cx="189.591" cy="3.68555" r="3.10059" fill="#F5F5F5"/>
<circle cx="784.903" cy="3.68555" r="3.10059" fill="#F5F5F5"/>
<circle cx="189.591" cy="40.8926" r="3.10059" fill="#F5F5F5"/>
<circle cx="784.903" cy="40.8926" r="3.10059" fill="#F5F5F5"/>
<circle cx="264.005" cy="3.68555" r="3.10059" fill="#F5F5F5"/>
<circle cx="859.317" cy="3.68555" r="3.10059" fill="#F5F5F5"/>
<circle cx="264.005" cy="40.8926" r="3.10059" fill="#F5F5F5"/>
<circle cx="859.317" cy="40.8926" r="3.10059" fill="#F5F5F5"/>
<circle cx="301.212" cy="3.68555" r="3.10059" fill="#F5F5F5"/>
<circle cx="896.524" cy="3.68555" r="3.10059" fill="#F5F5F5"/>
<circle cx="301.212" cy="40.8926" r="3.10059" fill="#F5F5F5"/>
<circle cx="896.524" cy="40.8926" r="3.10059" fill="#F5F5F5"/>
<circle cx="375.626" cy="3.68555" r="3.10059" fill="#F5F5F5"/>
<circle cx="970.938" cy="3.68555" r="3.10059" fill="#F5F5F5"/>
<circle cx="375.626" cy="40.8926" r="3.10059" fill="#F5F5F5"/>
<circle cx="970.938" cy="40.8926" r="3.10059" fill="#F5F5F5"/>
<circle cx="338.419" cy="3.68555" r="3.10059" fill="#F5F5F5"/>
<circle cx="933.731" cy="3.68555" r="3.10059" fill="#F5F5F5"/>
<circle cx="338.419" cy="40.8926" r="3.10059" fill="#F5F5F5"/>
<circle cx="933.731" cy="40.8926" r="3.10059" fill="#F5F5F5"/>
<circle cx="412.833" cy="3.68555" r="3.10059" fill="#F5F5F5"/>
<circle cx="1008.15" cy="3.68555" r="3.10059" fill="#F5F5F5"/>
<circle cx="412.833" cy="40.8926" r="3.10059" fill="#F5F5F5"/>
<circle cx="1008.15" cy="40.8926" r="3.10059" fill="#F5F5F5"/>
<circle cx="450.04" cy="3.68555" r="3.10059" fill="#F5F5F5"/>
<circle cx="1045.35" cy="3.68555" r="3.10059" fill="#F5F5F5"/>
<circle cx="450.04" cy="40.8926" r="3.10059" fill="#F5F5F5"/>
<circle cx="1045.35" cy="40.8926" r="3.10059" fill="#F5F5F5"/>
<circle cx="524.454" cy="3.68555" r="3.10059" fill="#F5F5F5"/>
<circle cx="1119.77" cy="3.68555" r="3.10059" fill="#F5F5F5"/>
<circle cx="524.454" cy="40.8926" r="3.10059" fill="#F5F5F5"/>
<circle cx="1119.77" cy="40.8926" r="3.10059" fill="#F5F5F5"/>
<circle cx="487.247" cy="3.68555" r="3.10059" fill="#F5F5F5"/>
<circle cx="1082.56" cy="3.68555" r="3.10059" fill="#F5F5F5"/>
<circle cx="487.247" cy="40.8926" r="3.10059" fill="#F5F5F5"/>
<circle cx="1082.56" cy="40.8926" r="3.10059" fill="#F5F5F5"/>
<circle cx="561.661" cy="3.68555" r="3.10059" fill="#F5F5F5"/>
<circle cx="1156.97" cy="3.68555" r="3.10059" fill="#F5F5F5"/>
<circle cx="561.661" cy="40.8926" r="3.10059" fill="#F5F5F5"/>
<circle cx="1156.97" cy="40.8926" r="3.10059" fill="#F5F5F5"/>
<circle cx="3.55566" cy="78.0996" r="3.10059" fill="#F5F5F5"/>
<circle cx="598.868" cy="78.0996" r="3.10059" fill="#F5F5F5"/>
<circle cx="77.9697" cy="78.0996" r="3.10059" fill="#F5F5F5"/>
<circle cx="673.282" cy="78.0996" r="3.10059" fill="#F5F5F5"/>
<circle cx="40.7627" cy="78.0996" r="3.10059" fill="#F5F5F5"/>
<circle cx="636.075" cy="78.0996" r="3.10059" fill="#F5F5F5"/>
<circle cx="115.177" cy="78.0996" r="3.10059" fill="#F5F5F5"/>
<circle cx="710.489" cy="78.0996" r="3.10059" fill="#F5F5F5"/>
<circle cx="152.384" cy="78.0996" r="3.10059" fill="#F5F5F5"/>
<circle cx="747.696" cy="78.0996" r="3.10059" fill="#F5F5F5"/>
<circle cx="226.798" cy="78.0996" r="3.10059" fill="#F5F5F5"/>
<circle cx="822.11" cy="78.0996" r="3.10059" fill="#F5F5F5"/>
<circle cx="189.591" cy="78.0996" r="3.10059" fill="#F5F5F5"/>
<circle cx="784.903" cy="78.0996" r="3.10059" fill="#F5F5F5"/>
<circle cx="264.005" cy="78.0996" r="3.10059" fill="#F5F5F5"/>
<circle cx="859.317" cy="78.0996" r="3.10059" fill="#F5F5F5"/>
<circle cx="301.212" cy="78.0996" r="3.10059" fill="#F5F5F5"/>
<circle cx="896.524" cy="78.0996" r="3.10059" fill="#F5F5F5"/>
<circle cx="375.626" cy="78.0996" r="3.10059" fill="#F5F5F5"/>
<circle cx="970.938" cy="78.0996" r="3.10059" fill="#F5F5F5"/>
<circle cx="338.419" cy="78.0996" r="3.10059" fill="#F5F5F5"/>
<circle cx="933.731" cy="78.0996" r="3.10059" fill="#F5F5F5"/>
<circle cx="412.833" cy="78.0996" r="3.10059" fill="#F5F5F5"/>
<circle cx="1008.15" cy="78.0996" r="3.10059" fill="#F5F5F5"/>
<circle cx="450.04" cy="78.0996" r="3.10059" fill="#F5F5F5"/>
<circle cx="1045.35" cy="78.0996" r="3.10059" fill="#F5F5F5"/>
<circle cx="524.454" cy="78.0996" r="3.10059" fill="#F5F5F5"/>
<circle cx="1119.77" cy="78.0996" r="3.10059" fill="#F5F5F5"/>
<circle cx="487.247" cy="78.0996" r="3.10059" fill="#F5F5F5"/>
<circle cx="1082.56" cy="78.0996" r="3.10059" fill="#F5F5F5"/>
<circle cx="561.661" cy="78.0996" r="3.10059" fill="#F5F5F5"/>
<circle cx="1156.97" cy="78.0996" r="3.10059" fill="#F5F5F5"/>
</g>
<g opacity="0.2">
<circle cx="3.55566" cy="115.301" r="3.10059" fill="#F5F5F5"/>
<circle cx="598.868" cy="115.301" r="3.10059" fill="#F5F5F5"/>
<circle cx="3.55566" cy="152.508" r="3.10059" fill="#F5F5F5"/>
<circle cx="598.868" cy="152.508" r="3.10059" fill="#F5F5F5"/>
<circle cx="77.9697" cy="115.301" r="3.10059" fill="#F5F5F5"/>
<circle cx="673.282" cy="115.301" r="3.10059" fill="#F5F5F5"/>
<circle cx="77.9697" cy="152.508" r="3.10059" fill="#F5F5F5"/>
<circle cx="673.282" cy="152.508" r="3.10059" fill="#F5F5F5"/>
<circle cx="40.7627" cy="115.301" r="3.10059" fill="#F5F5F5"/>
<circle cx="636.075" cy="115.301" r="3.10059" fill="#F5F5F5"/>
<circle cx="40.7627" cy="152.508" r="3.10059" fill="#F5F5F5"/>
<circle cx="636.075" cy="152.508" r="3.10059" fill="#F5F5F5"/>
<circle cx="115.177" cy="115.301" r="3.10059" fill="#F5F5F5"/>
<circle cx="710.489" cy="115.301" r="3.10059" fill="#F5F5F5"/>
<circle cx="115.177" cy="152.508" r="3.10059" fill="#F5F5F5"/>
<circle cx="710.489" cy="152.508" r="3.10059" fill="#F5F5F5"/>
<circle cx="152.384" cy="115.301" r="3.10059" fill="#F5F5F5"/>
<circle cx="747.696" cy="115.301" r="3.10059" fill="#F5F5F5"/>
<circle cx="152.384" cy="152.508" r="3.10059" fill="#F5F5F5"/>
<circle cx="747.696" cy="152.508" r="3.10059" fill="#F5F5F5"/>
<circle cx="226.798" cy="115.301" r="3.10059" fill="#F5F5F5"/>
<circle cx="822.11" cy="115.301" r="3.10059" fill="#F5F5F5"/>
<circle cx="226.798" cy="152.508" r="3.10059" fill="#F5F5F5"/>
<circle cx="822.11" cy="152.508" r="3.10059" fill="#F5F5F5"/>
<circle cx="189.591" cy="115.301" r="3.10059" fill="#F5F5F5"/>
<circle cx="784.903" cy="115.301" r="3.10059" fill="#F5F5F5"/>
<circle cx="189.591" cy="152.508" r="3.10059" fill="#F5F5F5"/>
<circle cx="784.903" cy="152.508" r="3.10059" fill="#F5F5F5"/>
<circle cx="264.005" cy="115.301" r="3.10059" fill="#F5F5F5"/>
<circle cx="859.317" cy="115.301" r="3.10059" fill="#F5F5F5"/>
<circle cx="264.005" cy="152.508" r="3.10059" fill="#F5F5F5"/>
<circle cx="859.317" cy="152.508" r="3.10059" fill="#F5F5F5"/>
<circle cx="301.212" cy="115.301" r="3.10059" fill="#F5F5F5"/>
<circle cx="896.524" cy="115.301" r="3.10059" fill="#F5F5F5"/>
<circle cx="301.212" cy="152.508" r="3.10059" fill="#F5F5F5"/>
<circle cx="896.524" cy="152.508" r="3.10059" fill="#F5F5F5"/>
<circle cx="375.626" cy="115.301" r="3.10059" fill="#F5F5F5"/>
<circle cx="970.938" cy="115.301" r="3.10059" fill="#F5F5F5"/>
<circle cx="375.626" cy="152.508" r="3.10059" fill="#F5F5F5"/>
<circle cx="970.938" cy="152.508" r="3.10059" fill="#F5F5F5"/>
<circle cx="338.419" cy="115.301" r="3.10059" fill="#F5F5F5"/>
<circle cx="933.731" cy="115.301" r="3.10059" fill="#F5F5F5"/>
<circle cx="338.419" cy="152.508" r="3.10059" fill="#F5F5F5"/>
<circle cx="933.731" cy="152.508" r="3.10059" fill="#F5F5F5"/>
<circle cx="412.833" cy="115.301" r="3.10059" fill="#F5F5F5"/>
<circle cx="1008.15" cy="115.301" r="3.10059" fill="#F5F5F5"/>
<circle cx="412.833" cy="152.508" r="3.10059" fill="#F5F5F5"/>
<circle cx="1008.15" cy="152.508" r="3.10059" fill="#F5F5F5"/>
<circle cx="450.04" cy="115.301" r="3.10059" fill="#F5F5F5"/>
<circle cx="1045.35" cy="115.301" r="3.10059" fill="#F5F5F5"/>
<circle cx="450.04" cy="152.508" r="3.10059" fill="#F5F5F5"/>
<circle cx="1045.35" cy="152.508" r="3.10059" fill="#F5F5F5"/>
<circle cx="524.454" cy="115.301" r="3.10059" fill="#F5F5F5"/>
<circle cx="1119.77" cy="115.301" r="3.10059" fill="#F5F5F5"/>
<circle cx="524.454" cy="152.508" r="3.10059" fill="#F5F5F5"/>
<circle cx="1119.77" cy="152.508" r="3.10059" fill="#F5F5F5"/>
<circle cx="487.247" cy="115.301" r="3.10059" fill="#F5F5F5"/>
<circle cx="1082.56" cy="115.301" r="3.10059" fill="#F5F5F5"/>
<circle cx="487.247" cy="152.508" r="3.10059" fill="#F5F5F5"/>
<circle cx="1082.56" cy="152.508" r="3.10059" fill="#F5F5F5"/>
<circle cx="561.661" cy="115.301" r="3.10059" fill="#F5F5F5"/>
<circle cx="1156.97" cy="115.301" r="3.10059" fill="#F5F5F5"/>
<circle cx="561.661" cy="152.508" r="3.10059" fill="#F5F5F5"/>
<circle cx="1156.97" cy="152.508" r="3.10059" fill="#F5F5F5"/>
<circle cx="3.55566" cy="189.715" r="3.10059" fill="#F5F5F5"/>
<circle cx="598.868" cy="189.715" r="3.10059" fill="#F5F5F5"/>
<circle cx="77.9697" cy="189.715" r="3.10059" fill="#F5F5F5"/>
<circle cx="673.282" cy="189.715" r="3.10059" fill="#F5F5F5"/>
<circle cx="40.7627" cy="189.715" r="3.10059" fill="#F5F5F5"/>
<circle cx="636.075" cy="189.715" r="3.10059" fill="#F5F5F5"/>
<circle cx="115.177" cy="189.715" r="3.10059" fill="#F5F5F5"/>
<circle cx="710.489" cy="189.715" r="3.10059" fill="#F5F5F5"/>
<circle cx="152.384" cy="189.715" r="3.10059" fill="#F5F5F5"/>
<circle cx="747.696" cy="189.715" r="3.10059" fill="#F5F5F5"/>
<circle cx="226.798" cy="189.715" r="3.10059" fill="#F5F5F5"/>
<circle cx="822.11" cy="189.715" r="3.10059" fill="#F5F5F5"/>
<circle cx="189.591" cy="189.715" r="3.10059" fill="#F5F5F5"/>
<circle cx="784.903" cy="189.715" r="3.10059" fill="#F5F5F5"/>
<circle cx="264.005" cy="189.715" r="3.10059" fill="#F5F5F5"/>
<circle cx="859.317" cy="189.715" r="3.10059" fill="#F5F5F5"/>
<circle cx="301.212" cy="189.715" r="3.10059" fill="#F5F5F5"/>
<circle cx="896.524" cy="189.715" r="3.10059" fill="#F5F5F5"/>
<circle cx="375.626" cy="189.715" r="3.10059" fill="#F5F5F5"/>
<circle cx="970.938" cy="189.715" r="3.10059" fill="#F5F5F5"/>
<circle cx="338.419" cy="189.715" r="3.10059" fill="#F5F5F5"/>
<circle cx="933.731" cy="189.715" r="3.10059" fill="#F5F5F5"/>
<circle cx="412.833" cy="189.715" r="3.10059" fill="#F5F5F5"/>
<circle cx="1008.15" cy="189.715" r="3.10059" fill="#F5F5F5"/>
<circle cx="450.04" cy="189.715" r="3.10059" fill="#F5F5F5"/>
<circle cx="1045.35" cy="189.715" r="3.10059" fill="#F5F5F5"/>
<circle cx="524.454" cy="189.715" r="3.10059" fill="#F5F5F5"/>
<circle cx="1119.77" cy="189.715" r="3.10059" fill="#F5F5F5"/>
<circle cx="487.247" cy="189.715" r="3.10059" fill="#F5F5F5"/>
<circle cx="1082.56" cy="189.715" r="3.10059" fill="#F5F5F5"/>
<circle cx="561.661" cy="189.715" r="3.10059" fill="#F5F5F5"/>
<circle cx="1156.97" cy="189.715" r="3.10059" fill="#F5F5F5"/>
</g>
<g opacity="0.2">
<circle cx="3.55566" cy="226.916" r="3.10059" fill="#F5F5F5"/>
<circle cx="598.868" cy="226.916" r="3.10059" fill="#F5F5F5"/>
<circle cx="3.55566" cy="264.123" r="3.10059" fill="#F5F5F5"/>
<circle cx="598.868" cy="264.123" r="3.10059" fill="#F5F5F5"/>
<circle cx="77.9697" cy="226.916" r="3.10059" fill="#F5F5F5"/>
<circle cx="673.282" cy="226.916" r="3.10059" fill="#F5F5F5"/>
<circle cx="77.9697" cy="264.123" r="3.10059" fill="#F5F5F5"/>
<circle cx="673.282" cy="264.123" r="3.10059" fill="#F5F5F5"/>
<circle cx="40.7627" cy="226.916" r="3.10059" fill="#F5F5F5"/>
<circle cx="636.075" cy="226.916" r="3.10059" fill="#F5F5F5"/>
<circle cx="40.7627" cy="264.123" r="3.10059" fill="#F5F5F5"/>
<circle cx="636.075" cy="264.123" r="3.10059" fill="#F5F5F5"/>
<circle cx="115.177" cy="226.916" r="3.10059" fill="#F5F5F5"/>
<circle cx="710.489" cy="226.916" r="3.10059" fill="#F5F5F5"/>
<circle cx="115.177" cy="264.123" r="3.10059" fill="#F5F5F5"/>
<circle cx="710.489" cy="264.123" r="3.10059" fill="#F5F5F5"/>
<circle cx="152.384" cy="226.916" r="3.10059" fill="#F5F5F5"/>
<circle cx="747.696" cy="226.916" r="3.10059" fill="#F5F5F5"/>
<circle cx="152.384" cy="264.123" r="3.10059" fill="#F5F5F5"/>
<circle cx="747.696" cy="264.123" r="3.10059" fill="#F5F5F5"/>
<circle cx="226.798" cy="226.916" r="3.10059" fill="#F5F5F5"/>
<circle cx="822.11" cy="226.916" r="3.10059" fill="#F5F5F5"/>
<circle cx="226.798" cy="264.123" r="3.10059" fill="#F5F5F5"/>
<circle cx="822.11" cy="264.123" r="3.10059" fill="#F5F5F5"/>
<circle cx="189.591" cy="226.916" r="3.10059" fill="#F5F5F5"/>
<circle cx="784.903" cy="226.916" r="3.10059" fill="#F5F5F5"/>
<circle cx="189.591" cy="264.123" r="3.10059" fill="#F5F5F5"/>
<circle cx="784.903" cy="264.123" r="3.10059" fill="#F5F5F5"/>
<circle cx="264.005" cy="226.916" r="3.10059" fill="#F5F5F5"/>
<circle cx="859.317" cy="226.916" r="3.10059" fill="#F5F5F5"/>
<circle cx="264.005" cy="264.123" r="3.10059" fill="#F5F5F5"/>
<circle cx="859.317" cy="264.123" r="3.10059" fill="#F5F5F5"/>
<circle cx="301.212" cy="226.916" r="3.10059" fill="#F5F5F5"/>
<circle cx="896.524" cy="226.916" r="3.10059" fill="#F5F5F5"/>
<circle cx="301.212" cy="264.123" r="3.10059" fill="#F5F5F5"/>
<circle cx="896.524" cy="264.123" r="3.10059" fill="#F5F5F5"/>
<circle cx="375.626" cy="226.916" r="3.10059" fill="#F5F5F5"/>
<circle cx="970.938" cy="226.916" r="3.10059" fill="#F5F5F5"/>
<circle cx="375.626" cy="264.123" r="3.10059" fill="#F5F5F5"/>
<circle cx="970.938" cy="264.123" r="3.10059" fill="#F5F5F5"/>
<circle cx="338.419" cy="226.916" r="3.10059" fill="#F5F5F5"/>
<circle cx="933.731" cy="226.916" r="3.10059" fill="#F5F5F5"/>
<circle cx="338.419" cy="264.123" r="3.10059" fill="#F5F5F5"/>
<circle cx="933.731" cy="264.123" r="3.10059" fill="#F5F5F5"/>
<circle cx="412.833" cy="226.916" r="3.10059" fill="#F5F5F5"/>
<circle cx="1008.15" cy="226.916" r="3.10059" fill="#F5F5F5"/>
<circle cx="412.833" cy="264.123" r="3.10059" fill="#F5F5F5"/>
<circle cx="1008.15" cy="264.123" r="3.10059" fill="#F5F5F5"/>
<circle cx="450.04" cy="226.916" r="3.10059" fill="#F5F5F5"/>
<circle cx="1045.35" cy="226.916" r="3.10059" fill="#F5F5F5"/>
<circle cx="450.04" cy="264.123" r="3.10059" fill="#F5F5F5"/>
<circle cx="1045.35" cy="264.123" r="3.10059" fill="#F5F5F5"/>
<circle cx="524.454" cy="226.916" r="3.10059" fill="#F5F5F5"/>
<circle cx="1119.77" cy="226.916" r="3.10059" fill="#F5F5F5"/>
<circle cx="524.454" cy="264.123" r="3.10059" fill="#F5F5F5"/>
<circle cx="1119.77" cy="264.123" r="3.10059" fill="#F5F5F5"/>
<circle cx="487.247" cy="226.916" r="3.10059" fill="#F5F5F5"/>
<circle cx="1082.56" cy="226.916" r="3.10059" fill="#F5F5F5"/>
<circle cx="487.247" cy="264.123" r="3.10059" fill="#F5F5F5"/>
<circle cx="1082.56" cy="264.123" r="3.10059" fill="#F5F5F5"/>
<circle cx="561.661" cy="226.916" r="3.10059" fill="#F5F5F5"/>
<circle cx="1156.97" cy="226.916" r="3.10059" fill="#F5F5F5"/>
<circle cx="561.661" cy="264.123" r="3.10059" fill="#F5F5F5"/>
<circle cx="1156.97" cy="264.123" r="3.10059" fill="#F5F5F5"/>
<circle cx="3.55566" cy="301.33" r="3.10059" fill="#F5F5F5"/>
<circle cx="598.868" cy="301.33" r="3.10059" fill="#F5F5F5"/>
<circle cx="77.9697" cy="301.33" r="3.10059" fill="#F5F5F5"/>
<circle cx="673.282" cy="301.33" r="3.10059" fill="#F5F5F5"/>
<circle cx="40.7627" cy="301.33" r="3.10059" fill="#F5F5F5"/>
<circle cx="636.075" cy="301.33" r="3.10059" fill="#F5F5F5"/>
<circle cx="115.177" cy="301.33" r="3.10059" fill="#F5F5F5"/>
<circle cx="710.489" cy="301.33" r="3.10059" fill="#F5F5F5"/>
<circle cx="152.384" cy="301.33" r="3.10059" fill="#F5F5F5"/>
<circle cx="747.696" cy="301.33" r="3.10059" fill="#F5F5F5"/>
<circle cx="226.798" cy="301.33" r="3.10059" fill="#F5F5F5"/>
<circle cx="822.11" cy="301.33" r="3.10059" fill="#F5F5F5"/>
<circle cx="189.591" cy="301.33" r="3.10059" fill="#F5F5F5"/>
<circle cx="784.903" cy="301.33" r="3.10059" fill="#F5F5F5"/>
<circle cx="264.005" cy="301.33" r="3.10059" fill="#F5F5F5"/>
<circle cx="859.317" cy="301.33" r="3.10059" fill="#F5F5F5"/>
<circle cx="301.212" cy="301.33" r="3.10059" fill="#F5F5F5"/>
<circle cx="896.524" cy="301.33" r="3.10059" fill="#F5F5F5"/>
<circle cx="375.626" cy="301.33" r="3.10059" fill="#F5F5F5"/>
<circle cx="970.938" cy="301.33" r="3.10059" fill="#F5F5F5"/>
<circle cx="338.419" cy="301.33" r="3.10059" fill="#F5F5F5"/>
<circle cx="933.731" cy="301.33" r="3.10059" fill="#F5F5F5"/>
<circle cx="412.833" cy="301.33" r="3.10059" fill="#F5F5F5"/>
<circle cx="1008.15" cy="301.33" r="3.10059" fill="#F5F5F5"/>
<circle cx="450.04" cy="301.33" r="3.10059" fill="#F5F5F5"/>
<circle cx="1045.35" cy="301.33" r="3.10059" fill="#F5F5F5"/>
<circle cx="524.454" cy="301.33" r="3.10059" fill="#F5F5F5"/>
<circle cx="1119.77" cy="301.33" r="3.10059" fill="#F5F5F5"/>
<circle cx="487.247" cy="301.33" r="3.10059" fill="#F5F5F5"/>
<circle cx="1082.56" cy="301.33" r="3.10059" fill="#F5F5F5"/>
<circle cx="561.661" cy="301.33" r="3.10059" fill="#F5F5F5"/>
<circle cx="1156.97" cy="301.33" r="3.10059" fill="#F5F5F5"/>
</g>
<g opacity="0.2">
<circle cx="3.55566" cy="338.531" r="3.10059" fill="#F5F5F5"/>
<circle cx="598.868" cy="338.531" r="3.10059" fill="#F5F5F5"/>
<circle cx="3.55566" cy="375.738" r="3.10059" fill="#F5F5F5"/>
<circle cx="598.868" cy="375.738" r="3.10059" fill="#F5F5F5"/>
<circle cx="77.9697" cy="338.531" r="3.10059" fill="#F5F5F5"/>
<circle cx="673.282" cy="338.531" r="3.10059" fill="#F5F5F5"/>
<circle cx="77.9697" cy="375.738" r="3.10059" fill="#F5F5F5"/>
<circle cx="673.282" cy="375.738" r="3.10059" fill="#F5F5F5"/>
<circle cx="40.7627" cy="338.531" r="3.10059" fill="#F5F5F5"/>
<circle cx="636.075" cy="338.531" r="3.10059" fill="#F5F5F5"/>
<circle cx="40.7627" cy="375.738" r="3.10059" fill="#F5F5F5"/>
<circle cx="636.075" cy="375.738" r="3.10059" fill="#F5F5F5"/>
<circle cx="115.177" cy="338.531" r="3.10059" fill="#F5F5F5"/>
<circle cx="710.489" cy="338.531" r="3.10059" fill="#F5F5F5"/>
<circle cx="115.177" cy="375.738" r="3.10059" fill="#F5F5F5"/>
<circle cx="710.489" cy="375.738" r="3.10059" fill="#F5F5F5"/>
<circle cx="152.384" cy="338.531" r="3.10059" fill="#F5F5F5"/>
<circle cx="747.696" cy="338.531" r="3.10059" fill="#F5F5F5"/>
<circle cx="152.384" cy="375.738" r="3.10059" fill="#F5F5F5"/>
<circle cx="747.696" cy="375.738" r="3.10059" fill="#F5F5F5"/>
<circle cx="226.798" cy="338.531" r="3.10059" fill="#F5F5F5"/>
<circle cx="822.11" cy="338.531" r="3.10059" fill="#F5F5F5"/>
<circle cx="226.798" cy="375.738" r="3.10059" fill="#F5F5F5"/>
<circle cx="822.11" cy="375.738" r="3.10059" fill="#F5F5F5"/>
<circle cx="189.591" cy="338.531" r="3.10059" fill="#F5F5F5"/>
<circle cx="784.903" cy="338.531" r="3.10059" fill="#F5F5F5"/>
<circle cx="189.591" cy="375.738" r="3.10059" fill="#F5F5F5"/>
<circle cx="784.903" cy="375.738" r="3.10059" fill="#F5F5F5"/>
<circle cx="264.005" cy="338.531" r="3.10059" fill="#F5F5F5"/>
<circle cx="859.317" cy="338.531" r="3.10059" fill="#F5F5F5"/>
<circle cx="264.005" cy="375.738" r="3.10059" fill="#F5F5F5"/>
<circle cx="859.317" cy="375.738" r="3.10059" fill="#F5F5F5"/>
<circle cx="301.212" cy="338.531" r="3.10059" fill="#F5F5F5"/>
<circle cx="896.524" cy="338.531" r="3.10059" fill="#F5F5F5"/>
<circle cx="301.212" cy="375.738" r="3.10059" fill="#F5F5F5"/>
<circle cx="896.524" cy="375.738" r="3.10059" fill="#F5F5F5"/>
<circle cx="375.626" cy="338.531" r="3.10059" fill="#F5F5F5"/>
<circle cx="970.938" cy="338.531" r="3.10059" fill="#F5F5F5"/>
<circle cx="375.626" cy="375.738" r="3.10059" fill="#F5F5F5"/>
<circle cx="970.938" cy="375.738" r="3.10059" fill="#F5F5F5"/>
<circle cx="338.419" cy="338.531" r="3.10059" fill="#F5F5F5"/>
<circle cx="933.731" cy="338.531" r="3.10059" fill="#F5F5F5"/>
<circle cx="338.419" cy="375.738" r="3.10059" fill="#F5F5F5"/>
<circle cx="933.731" cy="375.738" r="3.10059" fill="#F5F5F5"/>
<circle cx="412.833" cy="338.531" r="3.10059" fill="#F5F5F5"/>
<circle cx="1008.15" cy="338.531" r="3.10059" fill="#F5F5F5"/>
<circle cx="412.833" cy="375.738" r="3.10059" fill="#F5F5F5"/>
<circle cx="1008.15" cy="375.738" r="3.10059" fill="#F5F5F5"/>
<circle cx="450.04" cy="338.531" r="3.10059" fill="#F5F5F5"/>
<circle cx="1045.35" cy="338.531" r="3.10059" fill="#F5F5F5"/>
<circle cx="450.04" cy="375.738" r="3.10059" fill="#F5F5F5"/>
<circle cx="1045.35" cy="375.738" r="3.10059" fill="#F5F5F5"/>
<circle cx="524.454" cy="338.531" r="3.10059" fill="#F5F5F5"/>
<circle cx="1119.77" cy="338.531" r="3.10059" fill="#F5F5F5"/>
<circle cx="524.454" cy="375.738" r="3.10059" fill="#F5F5F5"/>
<circle cx="1119.77" cy="375.738" r="3.10059" fill="#F5F5F5"/>
<circle cx="487.247" cy="338.531" r="3.10059" fill="#F5F5F5"/>
<circle cx="1082.56" cy="338.531" r="3.10059" fill="#F5F5F5"/>
<circle cx="487.247" cy="375.738" r="3.10059" fill="#F5F5F5"/>
<circle cx="1082.56" cy="375.738" r="3.10059" fill="#F5F5F5"/>
<circle cx="561.661" cy="338.531" r="3.10059" fill="#F5F5F5"/>
<circle cx="1156.97" cy="338.531" r="3.10059" fill="#F5F5F5"/>
<circle cx="561.661" cy="375.738" r="3.10059" fill="#F5F5F5"/>
<circle cx="1156.97" cy="375.738" r="3.10059" fill="#F5F5F5"/>
<circle cx="3.55566" cy="412.945" r="3.10059" fill="#F5F5F5"/>
<circle cx="598.868" cy="412.945" r="3.10059" fill="#F5F5F5"/>
<circle cx="77.9697" cy="412.945" r="3.10059" fill="#F5F5F5"/>
<circle cx="673.282" cy="412.945" r="3.10059" fill="#F5F5F5"/>
<circle cx="40.7627" cy="412.945" r="3.10059" fill="#F5F5F5"/>
<circle cx="636.075" cy="412.945" r="3.10059" fill="#F5F5F5"/>
<circle cx="115.177" cy="412.945" r="3.10059" fill="#F5F5F5"/>
<circle cx="710.489" cy="412.945" r="3.10059" fill="#F5F5F5"/>
<circle cx="152.384" cy="412.945" r="3.10059" fill="#F5F5F5"/>
<circle cx="747.696" cy="412.945" r="3.10059" fill="#F5F5F5"/>
<circle cx="226.798" cy="412.945" r="3.10059" fill="#F5F5F5"/>
<circle cx="822.11" cy="412.945" r="3.10059" fill="#F5F5F5"/>
<circle cx="189.591" cy="412.945" r="3.10059" fill="#F5F5F5"/>
<circle cx="784.903" cy="412.945" r="3.10059" fill="#F5F5F5"/>
<circle cx="264.005" cy="412.945" r="3.10059" fill="#F5F5F5"/>
<circle cx="859.317" cy="412.945" r="3.10059" fill="#F5F5F5"/>
<circle cx="301.212" cy="412.945" r="3.10059" fill="#F5F5F5"/>
<circle cx="896.524" cy="412.945" r="3.10059" fill="#F5F5F5"/>
<circle cx="375.626" cy="412.945" r="3.10059" fill="#F5F5F5"/>
<circle cx="970.938" cy="412.945" r="3.10059" fill="#F5F5F5"/>
<circle cx="338.419" cy="412.945" r="3.10059" fill="#F5F5F5"/>
<circle cx="933.731" cy="412.945" r="3.10059" fill="#F5F5F5"/>
<circle cx="412.833" cy="412.945" r="3.10059" fill="#F5F5F5"/>
<circle cx="1008.15" cy="412.945" r="3.10059" fill="#F5F5F5"/>
<circle cx="450.04" cy="412.945" r="3.10059" fill="#F5F5F5"/>
<circle cx="1045.35" cy="412.945" r="3.10059" fill="#F5F5F5"/>
<circle cx="524.454" cy="412.945" r="3.10059" fill="#F5F5F5"/>
<circle cx="1119.77" cy="412.945" r="3.10059" fill="#F5F5F5"/>
<circle cx="487.247" cy="412.945" r="3.10059" fill="#F5F5F5"/>
<circle cx="1082.56" cy="412.945" r="3.10059" fill="#F5F5F5"/>
<circle cx="561.661" cy="412.945" r="3.10059" fill="#F5F5F5"/>
<circle cx="1156.97" cy="412.945" r="3.10059" fill="#F5F5F5"/>
</g>
</svg>
