<svg width="1160" height="416" viewBox="0 0 1160 416" fill="none" xmlns="http://www.w3.org/2000/svg">
<g opacity="0.2">
<circle cx="3.10059" cy="3.10059" r="3.10059" fill="#F5F5F5"/>
<circle cx="598.413" cy="3.10059" r="3.10059" fill="#F5F5F5"/>
<circle cx="3.10059" cy="40.3076" r="3.10059" fill="#F5F5F5"/>
<circle cx="598.413" cy="40.3076" r="3.10059" fill="#F5F5F5"/>
<circle cx="77.5146" cy="3.10059" r="3.10059" fill="#F5F5F5"/>
<circle cx="672.827" cy="3.10059" r="3.10059" fill="#F5F5F5"/>
<circle cx="77.5146" cy="40.3076" r="3.10059" fill="#F5F5F5"/>
<circle cx="672.827" cy="40.3076" r="3.10059" fill="#F5F5F5"/>
<circle cx="40.3076" cy="3.10059" r="3.10059" fill="#F5F5F5"/>
<circle cx="635.62" cy="3.10059" r="3.10059" fill="#F5F5F5"/>
<circle cx="40.3076" cy="40.3076" r="3.10059" fill="#F5F5F5"/>
<circle cx="635.62" cy="40.3076" r="3.10059" fill="#F5F5F5"/>
<circle cx="114.722" cy="3.10059" r="3.10059" fill="#F5F5F5"/>
<circle cx="710.034" cy="3.10059" r="3.10059" fill="#F5F5F5"/>
<circle cx="114.722" cy="40.3076" r="3.10059" fill="#F5F5F5"/>
<circle cx="710.034" cy="40.3076" r="3.10059" fill="#F5F5F5"/>
<circle cx="151.929" cy="3.10059" r="3.10059" fill="#F5F5F5"/>
<circle cx="747.241" cy="3.10059" r="3.10059" fill="#F5F5F5"/>
<circle cx="151.929" cy="40.3076" r="3.10059" fill="#F5F5F5"/>
<circle cx="747.241" cy="40.3076" r="3.10059" fill="#F5F5F5"/>
<circle cx="226.343" cy="3.10059" r="3.10059" fill="#F5F5F5"/>
<circle cx="821.655" cy="3.10059" r="3.10059" fill="#F5F5F5"/>
<circle cx="226.343" cy="40.3076" r="3.10059" fill="#F5F5F5"/>
<circle cx="821.655" cy="40.3076" r="3.10059" fill="#F5F5F5"/>
<circle cx="189.136" cy="3.10059" r="3.10059" fill="#F5F5F5"/>
<circle cx="784.448" cy="3.10059" r="3.10059" fill="#F5F5F5"/>
<circle cx="189.136" cy="40.3076" r="3.10059" fill="#F5F5F5"/>
<circle cx="784.448" cy="40.3076" r="3.10059" fill="#F5F5F5"/>
<circle cx="263.55" cy="3.10059" r="3.10059" fill="#F5F5F5"/>
<circle cx="858.862" cy="3.10059" r="3.10059" fill="#F5F5F5"/>
<circle cx="263.55" cy="40.3076" r="3.10059" fill="#F5F5F5"/>
<circle cx="858.862" cy="40.3076" r="3.10059" fill="#F5F5F5"/>
<circle cx="300.757" cy="3.10059" r="3.10059" fill="#F5F5F5"/>
<circle cx="896.069" cy="3.10059" r="3.10059" fill="#F5F5F5"/>
<circle cx="300.757" cy="40.3076" r="3.10059" fill="#F5F5F5"/>
<circle cx="896.069" cy="40.3076" r="3.10059" fill="#F5F5F5"/>
<circle cx="375.171" cy="3.10059" r="3.10059" fill="#F5F5F5"/>
<circle cx="970.483" cy="3.10059" r="3.10059" fill="#F5F5F5"/>
<circle cx="375.171" cy="40.3076" r="3.10059" fill="#F5F5F5"/>
<circle cx="970.483" cy="40.3076" r="3.10059" fill="#F5F5F5"/>
<circle cx="337.964" cy="3.10059" r="3.10059" fill="#F5F5F5"/>
<circle cx="933.276" cy="3.10059" r="3.10059" fill="#F5F5F5"/>
<circle cx="337.964" cy="40.3076" r="3.10059" fill="#F5F5F5"/>
<circle cx="933.276" cy="40.3076" r="3.10059" fill="#F5F5F5"/>
<circle cx="412.378" cy="3.10059" r="3.10059" fill="#F5F5F5"/>
<circle cx="1007.69" cy="3.10059" r="3.10059" fill="#F5F5F5"/>
<circle cx="412.378" cy="40.3076" r="3.10059" fill="#F5F5F5"/>
<circle cx="1007.69" cy="40.3076" r="3.10059" fill="#F5F5F5"/>
<circle cx="449.585" cy="3.10059" r="3.10059" fill="#F5F5F5"/>
<circle cx="1044.9" cy="3.10059" r="3.10059" fill="#F5F5F5"/>
<circle cx="449.585" cy="40.3076" r="3.10059" fill="#F5F5F5"/>
<circle cx="1044.9" cy="40.3076" r="3.10059" fill="#F5F5F5"/>
<circle cx="523.999" cy="3.10059" r="3.10059" fill="#F5F5F5"/>
<circle cx="1119.31" cy="3.10059" r="3.10059" fill="#F5F5F5"/>
<circle cx="523.999" cy="40.3076" r="3.10059" fill="#F5F5F5"/>
<circle cx="1119.31" cy="40.3076" r="3.10059" fill="#F5F5F5"/>
<circle cx="486.792" cy="3.10059" r="3.10059" fill="#F5F5F5"/>
<circle cx="1082.1" cy="3.10059" r="3.10059" fill="#F5F5F5"/>
<circle cx="486.792" cy="40.3076" r="3.10059" fill="#F5F5F5"/>
<circle cx="1082.1" cy="40.3076" r="3.10059" fill="#F5F5F5"/>
<circle cx="561.206" cy="3.10059" r="3.10059" fill="#F5F5F5"/>
<circle cx="1156.52" cy="3.10059" r="3.10059" fill="#F5F5F5"/>
<circle cx="561.206" cy="40.3076" r="3.10059" fill="#F5F5F5"/>
<circle cx="1156.52" cy="40.3076" r="3.10059" fill="#F5F5F5"/>
<circle cx="3.10059" cy="77.5146" r="3.10059" fill="#F5F5F5"/>
<circle cx="598.413" cy="77.5146" r="3.10059" fill="#F5F5F5"/>
<circle cx="77.5146" cy="77.5146" r="3.10059" fill="#F5F5F5"/>
<circle cx="672.827" cy="77.5146" r="3.10059" fill="#F5F5F5"/>
<circle cx="40.3076" cy="77.5146" r="3.10059" fill="#F5F5F5"/>
<circle cx="635.62" cy="77.5146" r="3.10059" fill="#F5F5F5"/>
<circle cx="114.722" cy="77.5146" r="3.10059" fill="#F5F5F5"/>
<circle cx="710.034" cy="77.5146" r="3.10059" fill="#F5F5F5"/>
<circle cx="151.929" cy="77.5146" r="3.10059" fill="#F5F5F5"/>
<circle cx="747.241" cy="77.5146" r="3.10059" fill="#F5F5F5"/>
<circle cx="226.343" cy="77.5146" r="3.10059" fill="#F5F5F5"/>
<circle cx="821.655" cy="77.5146" r="3.10059" fill="#F5F5F5"/>
<circle cx="189.136" cy="77.5146" r="3.10059" fill="#F5F5F5"/>
<circle cx="784.448" cy="77.5146" r="3.10059" fill="#F5F5F5"/>
<circle cx="263.55" cy="77.5146" r="3.10059" fill="#F5F5F5"/>
<circle cx="858.862" cy="77.5146" r="3.10059" fill="#F5F5F5"/>
<circle cx="300.757" cy="77.5146" r="3.10059" fill="#F5F5F5"/>
<circle cx="896.069" cy="77.5146" r="3.10059" fill="#F5F5F5"/>
<circle cx="375.171" cy="77.5146" r="3.10059" fill="#F5F5F5"/>
<circle cx="970.483" cy="77.5146" r="3.10059" fill="#F5F5F5"/>
<circle cx="337.964" cy="77.5146" r="3.10059" fill="#F5F5F5"/>
<circle cx="933.276" cy="77.5146" r="3.10059" fill="#F5F5F5"/>
<circle cx="412.378" cy="77.5146" r="3.10059" fill="#F5F5F5"/>
<circle cx="1007.69" cy="77.5146" r="3.10059" fill="#F5F5F5"/>
<circle cx="449.585" cy="77.5146" r="3.10059" fill="#F5F5F5"/>
<circle cx="1044.9" cy="77.5146" r="3.10059" fill="#F5F5F5"/>
<circle cx="523.999" cy="77.5146" r="3.10059" fill="#F5F5F5"/>
<circle cx="1119.31" cy="77.5146" r="3.10059" fill="#F5F5F5"/>
<circle cx="486.792" cy="77.5146" r="3.10059" fill="#F5F5F5"/>
<circle cx="1082.1" cy="77.5146" r="3.10059" fill="#F5F5F5"/>
<circle cx="561.206" cy="77.5146" r="3.10059" fill="#F5F5F5"/>
<circle cx="1156.52" cy="77.5146" r="3.10059" fill="#F5F5F5"/>
</g>
<g opacity="0.2">
<circle cx="3.10059" cy="114.716" r="3.10059" fill="#F5F5F5"/>
<circle cx="598.413" cy="114.716" r="3.10059" fill="#F5F5F5"/>
<circle cx="3.10059" cy="151.923" r="3.10059" fill="#F5F5F5"/>
<circle cx="598.413" cy="151.923" r="3.10059" fill="#F5F5F5"/>
<circle cx="77.5146" cy="114.716" r="3.10059" fill="#F5F5F5"/>
<circle cx="672.827" cy="114.716" r="3.10059" fill="#F5F5F5"/>
<circle cx="77.5146" cy="151.923" r="3.10059" fill="#F5F5F5"/>
<circle cx="672.827" cy="151.923" r="3.10059" fill="#F5F5F5"/>
<circle cx="40.3076" cy="114.716" r="3.10059" fill="#F5F5F5"/>
<circle cx="635.62" cy="114.716" r="3.10059" fill="#F5F5F5"/>
<circle cx="40.3076" cy="151.923" r="3.10059" fill="#F5F5F5"/>
<circle cx="635.62" cy="151.923" r="3.10059" fill="#F5F5F5"/>
<circle cx="114.722" cy="114.716" r="3.10059" fill="#F5F5F5"/>
<circle cx="710.034" cy="114.716" r="3.10059" fill="#F5F5F5"/>
<circle cx="114.722" cy="151.923" r="3.10059" fill="#F5F5F5"/>
<circle cx="710.034" cy="151.923" r="3.10059" fill="#F5F5F5"/>
<circle cx="151.929" cy="114.716" r="3.10059" fill="#F5F5F5"/>
<circle cx="747.241" cy="114.716" r="3.10059" fill="#F5F5F5"/>
<circle cx="151.929" cy="151.923" r="3.10059" fill="#F5F5F5"/>
<circle cx="747.241" cy="151.923" r="3.10059" fill="#F5F5F5"/>
<circle cx="226.343" cy="114.716" r="3.10059" fill="#F5F5F5"/>
<circle cx="821.655" cy="114.716" r="3.10059" fill="#F5F5F5"/>
<circle cx="226.343" cy="151.923" r="3.10059" fill="#F5F5F5"/>
<circle cx="821.655" cy="151.923" r="3.10059" fill="#F5F5F5"/>
<circle cx="189.136" cy="114.716" r="3.10059" fill="#F5F5F5"/>
<circle cx="784.448" cy="114.716" r="3.10059" fill="#F5F5F5"/>
<circle cx="189.136" cy="151.923" r="3.10059" fill="#F5F5F5"/>
<circle cx="784.448" cy="151.923" r="3.10059" fill="#F5F5F5"/>
<circle cx="263.55" cy="114.716" r="3.10059" fill="#F5F5F5"/>
<circle cx="858.862" cy="114.716" r="3.10059" fill="#F5F5F5"/>
<circle cx="263.55" cy="151.923" r="3.10059" fill="#F5F5F5"/>
<circle cx="858.862" cy="151.923" r="3.10059" fill="#F5F5F5"/>
<circle cx="300.757" cy="114.716" r="3.10059" fill="#F5F5F5"/>
<circle cx="896.069" cy="114.716" r="3.10059" fill="#F5F5F5"/>
<circle cx="300.757" cy="151.923" r="3.10059" fill="#F5F5F5"/>
<circle cx="896.069" cy="151.923" r="3.10059" fill="#F5F5F5"/>
<circle cx="375.171" cy="114.716" r="3.10059" fill="#F5F5F5"/>
<circle cx="970.483" cy="114.716" r="3.10059" fill="#F5F5F5"/>
<circle cx="375.171" cy="151.923" r="3.10059" fill="#F5F5F5"/>
<circle cx="970.483" cy="151.923" r="3.10059" fill="#F5F5F5"/>
<circle cx="337.964" cy="114.716" r="3.10059" fill="#F5F5F5"/>
<circle cx="933.276" cy="114.716" r="3.10059" fill="#F5F5F5"/>
<circle cx="337.964" cy="151.923" r="3.10059" fill="#F5F5F5"/>
<circle cx="933.276" cy="151.923" r="3.10059" fill="#F5F5F5"/>
<circle cx="412.378" cy="114.716" r="3.10059" fill="#F5F5F5"/>
<circle cx="1007.69" cy="114.716" r="3.10059" fill="#F5F5F5"/>
<circle cx="412.378" cy="151.923" r="3.10059" fill="#F5F5F5"/>
<circle cx="1007.69" cy="151.923" r="3.10059" fill="#F5F5F5"/>
<circle cx="449.585" cy="114.716" r="3.10059" fill="#F5F5F5"/>
<circle cx="1044.9" cy="114.716" r="3.10059" fill="#F5F5F5"/>
<circle cx="449.585" cy="151.923" r="3.10059" fill="#F5F5F5"/>
<circle cx="1044.9" cy="151.923" r="3.10059" fill="#F5F5F5"/>
<circle cx="523.999" cy="114.716" r="3.10059" fill="#F5F5F5"/>
<circle cx="1119.31" cy="114.716" r="3.10059" fill="#F5F5F5"/>
<circle cx="523.999" cy="151.923" r="3.10059" fill="#F5F5F5"/>
<circle cx="1119.31" cy="151.923" r="3.10059" fill="#F5F5F5"/>
<circle cx="486.792" cy="114.716" r="3.10059" fill="#F5F5F5"/>
<circle cx="1082.1" cy="114.716" r="3.10059" fill="#F5F5F5"/>
<circle cx="486.792" cy="151.923" r="3.10059" fill="#F5F5F5"/>
<circle cx="1082.1" cy="151.923" r="3.10059" fill="#F5F5F5"/>
<circle cx="561.206" cy="114.716" r="3.10059" fill="#F5F5F5"/>
<circle cx="1156.52" cy="114.716" r="3.10059" fill="#F5F5F5"/>
<circle cx="561.206" cy="151.923" r="3.10059" fill="#F5F5F5"/>
<circle cx="1156.52" cy="151.923" r="3.10059" fill="#F5F5F5"/>
<circle cx="3.10059" cy="189.13" r="3.10059" fill="#F5F5F5"/>
<circle cx="598.413" cy="189.13" r="3.10059" fill="#F5F5F5"/>
<circle cx="77.5146" cy="189.13" r="3.10059" fill="#F5F5F5"/>
<circle cx="672.827" cy="189.13" r="3.10059" fill="#F5F5F5"/>
<circle cx="40.3076" cy="189.13" r="3.10059" fill="#F5F5F5"/>
<circle cx="635.62" cy="189.13" r="3.10059" fill="#F5F5F5"/>
<circle cx="114.722" cy="189.13" r="3.10059" fill="#F5F5F5"/>
<circle cx="710.034" cy="189.13" r="3.10059" fill="#F5F5F5"/>
<circle cx="151.929" cy="189.13" r="3.10059" fill="#F5F5F5"/>
<circle cx="747.241" cy="189.13" r="3.10059" fill="#F5F5F5"/>
<circle cx="226.343" cy="189.13" r="3.10059" fill="#F5F5F5"/>
<circle cx="821.655" cy="189.13" r="3.10059" fill="#F5F5F5"/>
<circle cx="189.136" cy="189.13" r="3.10059" fill="#F5F5F5"/>
<circle cx="784.448" cy="189.13" r="3.10059" fill="#F5F5F5"/>
<circle cx="263.55" cy="189.13" r="3.10059" fill="#F5F5F5"/>
<circle cx="858.862" cy="189.13" r="3.10059" fill="#F5F5F5"/>
<circle cx="300.757" cy="189.13" r="3.10059" fill="#F5F5F5"/>
<circle cx="896.069" cy="189.13" r="3.10059" fill="#F5F5F5"/>
<circle cx="375.171" cy="189.13" r="3.10059" fill="#F5F5F5"/>
<circle cx="970.483" cy="189.13" r="3.10059" fill="#F5F5F5"/>
<circle cx="337.964" cy="189.13" r="3.10059" fill="#F5F5F5"/>
<circle cx="933.276" cy="189.13" r="3.10059" fill="#F5F5F5"/>
<circle cx="412.378" cy="189.13" r="3.10059" fill="#F5F5F5"/>
<circle cx="1007.69" cy="189.13" r="3.10059" fill="#F5F5F5"/>
<circle cx="449.585" cy="189.13" r="3.10059" fill="#F5F5F5"/>
<circle cx="1044.9" cy="189.13" r="3.10059" fill="#F5F5F5"/>
<circle cx="523.999" cy="189.13" r="3.10059" fill="#F5F5F5"/>
<circle cx="1119.31" cy="189.13" r="3.10059" fill="#F5F5F5"/>
<circle cx="486.792" cy="189.13" r="3.10059" fill="#F5F5F5"/>
<circle cx="1082.1" cy="189.13" r="3.10059" fill="#F5F5F5"/>
<circle cx="561.206" cy="189.13" r="3.10059" fill="#F5F5F5"/>
<circle cx="1156.52" cy="189.13" r="3.10059" fill="#F5F5F5"/>
</g>
<g opacity="0.2">
<circle cx="3.10059" cy="226.331" r="3.10059" fill="#F5F5F5"/>
<circle cx="598.413" cy="226.331" r="3.10059" fill="#F5F5F5"/>
<circle cx="3.10059" cy="263.538" r="3.10059" fill="#F5F5F5"/>
<circle cx="598.413" cy="263.538" r="3.10059" fill="#F5F5F5"/>
<circle cx="77.5146" cy="226.331" r="3.10059" fill="#F5F5F5"/>
<circle cx="672.827" cy="226.331" r="3.10059" fill="#F5F5F5"/>
<circle cx="77.5146" cy="263.538" r="3.10059" fill="#F5F5F5"/>
<circle cx="672.827" cy="263.538" r="3.10059" fill="#F5F5F5"/>
<circle cx="40.3076" cy="226.331" r="3.10059" fill="#F5F5F5"/>
<circle cx="635.62" cy="226.331" r="3.10059" fill="#F5F5F5"/>
<circle cx="40.3076" cy="263.538" r="3.10059" fill="#F5F5F5"/>
<circle cx="635.62" cy="263.538" r="3.10059" fill="#F5F5F5"/>
<circle cx="114.722" cy="226.331" r="3.10059" fill="#F5F5F5"/>
<circle cx="710.034" cy="226.331" r="3.10059" fill="#F5F5F5"/>
<circle cx="114.722" cy="263.538" r="3.10059" fill="#F5F5F5"/>
<circle cx="710.034" cy="263.538" r="3.10059" fill="#F5F5F5"/>
<circle cx="151.929" cy="226.331" r="3.10059" fill="#F5F5F5"/>
<circle cx="747.241" cy="226.331" r="3.10059" fill="#F5F5F5"/>
<circle cx="151.929" cy="263.538" r="3.10059" fill="#F5F5F5"/>
<circle cx="747.241" cy="263.538" r="3.10059" fill="#F5F5F5"/>
<circle cx="226.343" cy="226.331" r="3.10059" fill="#F5F5F5"/>
<circle cx="821.655" cy="226.331" r="3.10059" fill="#F5F5F5"/>
<circle cx="226.343" cy="263.538" r="3.10059" fill="#F5F5F5"/>
<circle cx="821.655" cy="263.538" r="3.10059" fill="#F5F5F5"/>
<circle cx="189.136" cy="226.331" r="3.10059" fill="#F5F5F5"/>
<circle cx="784.448" cy="226.331" r="3.10059" fill="#F5F5F5"/>
<circle cx="189.136" cy="263.538" r="3.10059" fill="#F5F5F5"/>
<circle cx="784.448" cy="263.538" r="3.10059" fill="#F5F5F5"/>
<circle cx="263.55" cy="226.331" r="3.10059" fill="#F5F5F5"/>
<circle cx="858.862" cy="226.331" r="3.10059" fill="#F5F5F5"/>
<circle cx="263.55" cy="263.538" r="3.10059" fill="#F5F5F5"/>
<circle cx="858.862" cy="263.538" r="3.10059" fill="#F5F5F5"/>
<circle cx="300.757" cy="226.331" r="3.10059" fill="#F5F5F5"/>
<circle cx="896.069" cy="226.331" r="3.10059" fill="#F5F5F5"/>
<circle cx="300.757" cy="263.538" r="3.10059" fill="#F5F5F5"/>
<circle cx="896.069" cy="263.538" r="3.10059" fill="#F5F5F5"/>
<circle cx="375.171" cy="226.331" r="3.10059" fill="#F5F5F5"/>
<circle cx="970.483" cy="226.331" r="3.10059" fill="#F5F5F5"/>
<circle cx="375.171" cy="263.538" r="3.10059" fill="#F5F5F5"/>
<circle cx="970.483" cy="263.538" r="3.10059" fill="#F5F5F5"/>
<circle cx="337.964" cy="226.331" r="3.10059" fill="#F5F5F5"/>
<circle cx="933.276" cy="226.331" r="3.10059" fill="#F5F5F5"/>
<circle cx="337.964" cy="263.538" r="3.10059" fill="#F5F5F5"/>
<circle cx="933.276" cy="263.538" r="3.10059" fill="#F5F5F5"/>
<circle cx="412.378" cy="226.331" r="3.10059" fill="#F5F5F5"/>
<circle cx="1007.69" cy="226.331" r="3.10059" fill="#F5F5F5"/>
<circle cx="412.378" cy="263.538" r="3.10059" fill="#F5F5F5"/>
<circle cx="1007.69" cy="263.538" r="3.10059" fill="#F5F5F5"/>
<circle cx="449.585" cy="226.331" r="3.10059" fill="#F5F5F5"/>
<circle cx="1044.9" cy="226.331" r="3.10059" fill="#F5F5F5"/>
<circle cx="449.585" cy="263.538" r="3.10059" fill="#F5F5F5"/>
<circle cx="1044.9" cy="263.538" r="3.10059" fill="#F5F5F5"/>
<circle cx="523.999" cy="226.331" r="3.10059" fill="#F5F5F5"/>
<circle cx="1119.31" cy="226.331" r="3.10059" fill="#F5F5F5"/>
<circle cx="523.999" cy="263.538" r="3.10059" fill="#F5F5F5"/>
<circle cx="1119.31" cy="263.538" r="3.10059" fill="#F5F5F5"/>
<circle cx="486.792" cy="226.331" r="3.10059" fill="#F5F5F5"/>
<circle cx="1082.1" cy="226.331" r="3.10059" fill="#F5F5F5"/>
<circle cx="486.792" cy="263.538" r="3.10059" fill="#F5F5F5"/>
<circle cx="1082.1" cy="263.538" r="3.10059" fill="#F5F5F5"/>
<circle cx="561.206" cy="226.331" r="3.10059" fill="#F5F5F5"/>
<circle cx="1156.52" cy="226.331" r="3.10059" fill="#F5F5F5"/>
<circle cx="561.206" cy="263.538" r="3.10059" fill="#F5F5F5"/>
<circle cx="1156.52" cy="263.538" r="3.10059" fill="#F5F5F5"/>
<circle cx="3.10059" cy="300.745" r="3.10059" fill="#F5F5F5"/>
<circle cx="598.413" cy="300.745" r="3.10059" fill="#F5F5F5"/>
<circle cx="77.5146" cy="300.745" r="3.10059" fill="#F5F5F5"/>
<circle cx="672.827" cy="300.745" r="3.10059" fill="#F5F5F5"/>
<circle cx="40.3076" cy="300.745" r="3.10059" fill="#F5F5F5"/>
<circle cx="635.62" cy="300.745" r="3.10059" fill="#F5F5F5"/>
<circle cx="114.722" cy="300.745" r="3.10059" fill="#F5F5F5"/>
<circle cx="710.034" cy="300.745" r="3.10059" fill="#F5F5F5"/>
<circle cx="151.929" cy="300.745" r="3.10059" fill="#F5F5F5"/>
<circle cx="747.241" cy="300.745" r="3.10059" fill="#F5F5F5"/>
<circle cx="226.343" cy="300.745" r="3.10059" fill="#F5F5F5"/>
<circle cx="821.655" cy="300.745" r="3.10059" fill="#F5F5F5"/>
<circle cx="189.136" cy="300.745" r="3.10059" fill="#F5F5F5"/>
<circle cx="784.448" cy="300.745" r="3.10059" fill="#F5F5F5"/>
<circle cx="263.55" cy="300.745" r="3.10059" fill="#F5F5F5"/>
<circle cx="858.862" cy="300.745" r="3.10059" fill="#F5F5F5"/>
<circle cx="300.757" cy="300.745" r="3.10059" fill="#F5F5F5"/>
<circle cx="896.069" cy="300.745" r="3.10059" fill="#F5F5F5"/>
<circle cx="375.171" cy="300.745" r="3.10059" fill="#F5F5F5"/>
<circle cx="970.483" cy="300.745" r="3.10059" fill="#F5F5F5"/>
<circle cx="337.964" cy="300.745" r="3.10059" fill="#F5F5F5"/>
<circle cx="933.276" cy="300.745" r="3.10059" fill="#F5F5F5"/>
<circle cx="412.378" cy="300.745" r="3.10059" fill="#F5F5F5"/>
<circle cx="1007.69" cy="300.745" r="3.10059" fill="#F5F5F5"/>
<circle cx="449.585" cy="300.745" r="3.10059" fill="#F5F5F5"/>
<circle cx="1044.9" cy="300.745" r="3.10059" fill="#F5F5F5"/>
<circle cx="523.999" cy="300.745" r="3.10059" fill="#F5F5F5"/>
<circle cx="1119.31" cy="300.745" r="3.10059" fill="#F5F5F5"/>
<circle cx="486.792" cy="300.745" r="3.10059" fill="#F5F5F5"/>
<circle cx="1082.1" cy="300.745" r="3.10059" fill="#F5F5F5"/>
<circle cx="561.206" cy="300.745" r="3.10059" fill="#F5F5F5"/>
<circle cx="1156.52" cy="300.745" r="3.10059" fill="#F5F5F5"/>
</g>
<g opacity="0.2">
<circle cx="3.10059" cy="337.946" r="3.10059" fill="#F5F5F5"/>
<circle cx="598.413" cy="337.946" r="3.10059" fill="#F5F5F5"/>
<circle cx="3.10059" cy="375.153" r="3.10059" fill="#F5F5F5"/>
<circle cx="598.413" cy="375.153" r="3.10059" fill="#F5F5F5"/>
<circle cx="77.5146" cy="337.946" r="3.10059" fill="#F5F5F5"/>
<circle cx="672.827" cy="337.946" r="3.10059" fill="#F5F5F5"/>
<circle cx="77.5146" cy="375.153" r="3.10059" fill="#F5F5F5"/>
<circle cx="672.827" cy="375.153" r="3.10059" fill="#F5F5F5"/>
<circle cx="40.3076" cy="337.946" r="3.10059" fill="#F5F5F5"/>
<circle cx="635.62" cy="337.946" r="3.10059" fill="#F5F5F5"/>
<circle cx="40.3076" cy="375.153" r="3.10059" fill="#F5F5F5"/>
<circle cx="635.62" cy="375.153" r="3.10059" fill="#F5F5F5"/>
<circle cx="114.722" cy="337.946" r="3.10059" fill="#F5F5F5"/>
<circle cx="710.034" cy="337.946" r="3.10059" fill="#F5F5F5"/>
<circle cx="114.722" cy="375.153" r="3.10059" fill="#F5F5F5"/>
<circle cx="710.034" cy="375.153" r="3.10059" fill="#F5F5F5"/>
<circle cx="151.929" cy="337.946" r="3.10059" fill="#F5F5F5"/>
<circle cx="747.241" cy="337.946" r="3.10059" fill="#F5F5F5"/>
<circle cx="151.929" cy="375.153" r="3.10059" fill="#F5F5F5"/>
<circle cx="747.241" cy="375.153" r="3.10059" fill="#F5F5F5"/>
<circle cx="226.343" cy="337.946" r="3.10059" fill="#F5F5F5"/>
<circle cx="821.655" cy="337.946" r="3.10059" fill="#F5F5F5"/>
<circle cx="226.343" cy="375.153" r="3.10059" fill="#F5F5F5"/>
<circle cx="821.655" cy="375.153" r="3.10059" fill="#F5F5F5"/>
<circle cx="189.136" cy="337.946" r="3.10059" fill="#F5F5F5"/>
<circle cx="784.448" cy="337.946" r="3.10059" fill="#F5F5F5"/>
<circle cx="189.136" cy="375.153" r="3.10059" fill="#F5F5F5"/>
<circle cx="784.448" cy="375.153" r="3.10059" fill="#F5F5F5"/>
<circle cx="263.55" cy="337.946" r="3.10059" fill="#F5F5F5"/>
<circle cx="858.862" cy="337.946" r="3.10059" fill="#F5F5F5"/>
<circle cx="263.55" cy="375.153" r="3.10059" fill="#F5F5F5"/>
<circle cx="858.862" cy="375.153" r="3.10059" fill="#F5F5F5"/>
<circle cx="300.757" cy="337.946" r="3.10059" fill="#F5F5F5"/>
<circle cx="896.069" cy="337.946" r="3.10059" fill="#F5F5F5"/>
<circle cx="300.757" cy="375.153" r="3.10059" fill="#F5F5F5"/>
<circle cx="896.069" cy="375.153" r="3.10059" fill="#F5F5F5"/>
<circle cx="375.171" cy="337.946" r="3.10059" fill="#F5F5F5"/>
<circle cx="970.483" cy="337.946" r="3.10059" fill="#F5F5F5"/>
<circle cx="375.171" cy="375.153" r="3.10059" fill="#F5F5F5"/>
<circle cx="970.483" cy="375.153" r="3.10059" fill="#F5F5F5"/>
<circle cx="337.964" cy="337.946" r="3.10059" fill="#F5F5F5"/>
<circle cx="933.276" cy="337.946" r="3.10059" fill="#F5F5F5"/>
<circle cx="337.964" cy="375.153" r="3.10059" fill="#F5F5F5"/>
<circle cx="933.276" cy="375.153" r="3.10059" fill="#F5F5F5"/>
<circle cx="412.378" cy="337.946" r="3.10059" fill="#F5F5F5"/>
<circle cx="1007.69" cy="337.946" r="3.10059" fill="#F5F5F5"/>
<circle cx="412.378" cy="375.153" r="3.10059" fill="#F5F5F5"/>
<circle cx="1007.69" cy="375.153" r="3.10059" fill="#F5F5F5"/>
<circle cx="449.585" cy="337.946" r="3.10059" fill="#F5F5F5"/>
<circle cx="1044.9" cy="337.946" r="3.10059" fill="#F5F5F5"/>
<circle cx="449.585" cy="375.153" r="3.10059" fill="#F5F5F5"/>
<circle cx="1044.9" cy="375.153" r="3.10059" fill="#F5F5F5"/>
<circle cx="523.999" cy="337.946" r="3.10059" fill="#F5F5F5"/>
<circle cx="1119.31" cy="337.946" r="3.10059" fill="#F5F5F5"/>
<circle cx="523.999" cy="375.153" r="3.10059" fill="#F5F5F5"/>
<circle cx="1119.31" cy="375.153" r="3.10059" fill="#F5F5F5"/>
<circle cx="486.792" cy="337.946" r="3.10059" fill="#F5F5F5"/>
<circle cx="1082.1" cy="337.946" r="3.10059" fill="#F5F5F5"/>
<circle cx="486.792" cy="375.153" r="3.10059" fill="#F5F5F5"/>
<circle cx="1082.1" cy="375.153" r="3.10059" fill="#F5F5F5"/>
<circle cx="561.206" cy="337.946" r="3.10059" fill="#F5F5F5"/>
<circle cx="1156.52" cy="337.946" r="3.10059" fill="#F5F5F5"/>
<circle cx="561.206" cy="375.153" r="3.10059" fill="#F5F5F5"/>
<circle cx="1156.52" cy="375.153" r="3.10059" fill="#F5F5F5"/>
<circle cx="3.10059" cy="412.36" r="3.10059" fill="#F5F5F5"/>
<circle cx="598.413" cy="412.36" r="3.10059" fill="#F5F5F5"/>
<circle cx="77.5146" cy="412.36" r="3.10059" fill="#F5F5F5"/>
<circle cx="672.827" cy="412.36" r="3.10059" fill="#F5F5F5"/>
<circle cx="40.3076" cy="412.36" r="3.10059" fill="#F5F5F5"/>
<circle cx="635.62" cy="412.36" r="3.10059" fill="#F5F5F5"/>
<circle cx="114.722" cy="412.36" r="3.10059" fill="#F5F5F5"/>
<circle cx="710.034" cy="412.36" r="3.10059" fill="#F5F5F5"/>
<circle cx="151.929" cy="412.36" r="3.10059" fill="#F5F5F5"/>
<circle cx="747.241" cy="412.36" r="3.10059" fill="#F5F5F5"/>
<circle cx="226.343" cy="412.36" r="3.10059" fill="#F5F5F5"/>
<circle cx="821.655" cy="412.36" r="3.10059" fill="#F5F5F5"/>
<circle cx="189.136" cy="412.36" r="3.10059" fill="#F5F5F5"/>
<circle cx="784.448" cy="412.36" r="3.10059" fill="#F5F5F5"/>
<circle cx="263.55" cy="412.36" r="3.10059" fill="#F5F5F5"/>
<circle cx="858.862" cy="412.36" r="3.10059" fill="#F5F5F5"/>
<circle cx="300.757" cy="412.36" r="3.10059" fill="#F5F5F5"/>
<circle cx="896.069" cy="412.36" r="3.10059" fill="#F5F5F5"/>
<circle cx="375.171" cy="412.36" r="3.10059" fill="#F5F5F5"/>
<circle cx="970.483" cy="412.36" r="3.10059" fill="#F5F5F5"/>
<circle cx="337.964" cy="412.36" r="3.10059" fill="#F5F5F5"/>
<circle cx="933.276" cy="412.36" r="3.10059" fill="#F5F5F5"/>
<circle cx="412.378" cy="412.36" r="3.10059" fill="#F5F5F5"/>
<circle cx="1007.69" cy="412.36" r="3.10059" fill="#F5F5F5"/>
<circle cx="449.585" cy="412.36" r="3.10059" fill="#F5F5F5"/>
<circle cx="1044.9" cy="412.36" r="3.10059" fill="#F5F5F5"/>
<circle cx="523.999" cy="412.36" r="3.10059" fill="#F5F5F5"/>
<circle cx="1119.31" cy="412.36" r="3.10059" fill="#F5F5F5"/>
<circle cx="486.792" cy="412.36" r="3.10059" fill="#F5F5F5"/>
<circle cx="1082.1" cy="412.36" r="3.10059" fill="#F5F5F5"/>
<circle cx="561.206" cy="412.36" r="3.10059" fill="#F5F5F5"/>
<circle cx="1156.52" cy="412.36" r="3.10059" fill="#F5F5F5"/>
</g>
</svg>
