<svg width="417" height="417" viewBox="0 0 417 417" fill="none" xmlns="http://www.w3.org/2000/svg">
<circle cx="2.28963" cy="2.28963" r="2.28963" fill="#C2E3FF"/>
<circle cx="2.28963" cy="29.7652" r="2.28963" fill="#C2E3FF"/>
<circle cx="57.2408" cy="2.28963" r="2.28963" fill="#C2E3FF"/>
<circle cx="57.2408" cy="222.095" r="2.28963" fill="#5384E3"/>
<circle cx="57.2408" cy="29.7652" r="2.28963" fill="#C2E3FF"/>
<circle cx="57.2408" cy="249.57" r="2.28963" fill="#5384E3"/>
<circle cx="29.7652" cy="2.28963" r="2.28963" fill="#C2E3FF"/>
<circle cx="29.7652" cy="29.7652" r="2.28963" fill="#C2E3FF"/>
<circle cx="84.7164" cy="2.28963" r="2.28963" fill="#C2E3FF"/>
<circle cx="84.7164" cy="222.095" r="2.28963" fill="#5384E3"/>
<circle cx="84.7164" cy="29.7652" r="2.28963" fill="#C2E3FF"/>
<circle cx="84.7164" cy="249.57" r="2.28963" fill="#5384E3"/>
<circle cx="112.192" cy="2.28963" r="2.28963" fill="#C2E3FF"/>
<circle cx="277.046" cy="2.28963" r="2.28963" fill="#C2E3FF"/>
<circle cx="112.192" cy="222.095" r="2.28963" fill="#5384E3"/>
<circle cx="112.192" cy="29.7652" r="2.28963" fill="#C2E3FF"/>
<circle cx="277.046" cy="29.7652" r="2.28963" fill="#C2E3FF"/>
<circle cx="112.192" cy="249.57" r="2.28963" fill="#5384E3"/>
<circle cx="167.143" cy="2.28963" r="2.28963" fill="#C2E3FF"/>
<circle cx="331.997" cy="2.28963" r="2.28963" fill="#C2E3FF"/>
<circle cx="167.143" cy="222.095" r="2.28963" fill="#5384E3"/>
<circle cx="167.143" cy="29.7652" r="2.28963" fill="#C2E3FF"/>
<circle cx="331.997" cy="29.7652" r="2.28963" fill="#C2E3FF"/>
<circle cx="167.143" cy="249.57" r="2.28963" fill="#5384E3"/>
<circle cx="139.668" cy="2.28963" r="2.28963" fill="#C2E3FF"/>
<circle cx="304.521" cy="2.28963" r="2.28963" fill="#C2E3FF"/>
<circle cx="139.668" cy="222.095" r="2.28963" fill="#5384E3"/>
<circle cx="139.668" cy="29.7652" r="2.28963" fill="#C2E3FF"/>
<circle cx="304.521" cy="29.7652" r="2.28963" fill="#C2E3FF"/>
<circle cx="139.668" cy="249.57" r="2.28963" fill="#5384E3"/>
<circle cx="194.619" cy="2.28963" r="2.28963" fill="#C2E3FF"/>
<circle cx="359.472" cy="2.28963" r="2.28963" fill="#C2E3FF"/>
<circle cx="194.619" cy="222.095" r="2.28963" fill="#5384E3"/>
<circle cx="194.619" cy="29.7652" r="2.28963" fill="#C2E3FF"/>
<circle cx="359.472" cy="29.7652" r="2.28963" fill="#C2E3FF"/>
<circle cx="194.619" cy="249.57" r="2.28963" fill="#5384E3"/>
<circle cx="222.094" cy="2.28963" r="2.28963" fill="#C2E3FF"/>
<circle cx="386.948" cy="2.28963" r="2.28963" fill="#C2E3FF"/>
<circle cx="222.094" cy="222.095" r="2.28963" fill="#5384E3"/>
<circle cx="222.094" cy="29.7652" r="2.28963" fill="#C2E3FF"/>
<circle cx="386.948" cy="29.7652" r="2.28963" fill="#C2E3FF"/>
<circle cx="222.094" cy="249.57" r="2.28963" fill="#5384E3"/>
<circle cx="277.046" cy="222.095" r="2.28963" fill="#5384E3"/>
<circle cx="277.046" cy="249.57" r="2.28963" fill="#5384E3"/>
<circle cx="249.57" cy="2.28963" r="2.28963" fill="#C2E3FF"/>
<circle cx="414.423" cy="2.28963" r="2.28963" fill="#C2E3FF"/>
<circle cx="249.57" cy="222.095" r="2.28963" fill="#5384E3"/>
<circle cx="249.57" cy="29.7652" r="2.28963" fill="#C2E3FF"/>
<circle cx="414.423" cy="29.7652" r="2.28963" fill="#C2E3FF"/>
<circle cx="249.57" cy="249.57" r="2.28963" fill="#5384E3"/>
<circle cx="304.521" cy="222.095" r="2.28963" fill="#5384E3"/>
<circle cx="304.521" cy="249.57" r="2.28963" fill="#5384E3"/>
<circle cx="331.997" cy="222.095" r="2.28963" fill="#5384E3"/>
<circle cx="331.997" cy="249.57" r="2.28963" fill="#5384E3"/>
<circle cx="386.948" cy="222.095" r="2.28963" fill="#5384E3"/>
<circle cx="386.948" cy="249.57" r="2.28963" fill="#5384E3"/>
<circle cx="359.472" cy="222.095" r="2.28963" fill="#5384E3"/>
<circle cx="359.472" cy="249.57" r="2.28963" fill="#5384E3"/>
<circle cx="414.423" cy="222.095" r="2.28963" fill="#5384E3"/>
<circle cx="414.423" cy="249.57" r="2.28963" fill="#5384E3"/>
<circle cx="2.28963" cy="57.2408" r="2.28963" fill="#C2E3FF"/>
<circle cx="2.28963" cy="84.7164" r="2.28963" fill="#C2E3FF"/>
<circle cx="57.2408" cy="57.2408" r="2.28963" fill="#C2E3FF"/>
<circle cx="57.2408" cy="277.046" r="2.28963" fill="#5384E3"/>
<circle cx="57.2408" cy="84.7164" r="2.28963" fill="#C2E3FF"/>
<circle cx="57.2408" cy="304.521" r="2.28963" fill="#5384E3"/>
<circle cx="29.7652" cy="57.2408" r="2.28963" fill="#C2E3FF"/>
<circle cx="29.7652" cy="84.7164" r="2.28963" fill="#C2E3FF"/>
<circle cx="84.7164" cy="57.2408" r="2.28963" fill="#C2E3FF"/>
<circle cx="84.7164" cy="277.046" r="2.28963" fill="#5384E3"/>
<circle cx="84.7164" cy="84.7164" r="2.28963" fill="#C2E3FF"/>
<circle cx="84.7164" cy="304.521" r="2.28963" fill="#5384E3"/>
<circle cx="112.192" cy="57.2408" r="2.28963" fill="#C2E3FF"/>
<circle cx="112.192" cy="277.046" r="2.28963" fill="#5384E3"/>
<circle cx="112.192" cy="84.7164" r="2.28963" fill="#C2E3FF"/>
<circle cx="112.192" cy="304.521" r="2.28963" fill="#5384E3"/>
<circle cx="167.143" cy="57.2408" r="2.28963" fill="#C2E3FF"/>
<circle cx="167.143" cy="277.046" r="2.28963" fill="#5384E3"/>
<circle cx="167.143" cy="84.7164" r="2.28963" fill="#C2E3FF"/>
<circle cx="167.143" cy="304.521" r="2.28963" fill="#5384E3"/>
<circle cx="139.668" cy="57.2408" r="2.28963" fill="#C2E3FF"/>
<circle cx="139.668" cy="277.046" r="2.28963" fill="#5384E3"/>
<circle cx="139.668" cy="84.7164" r="2.28963" fill="#C2E3FF"/>
<circle cx="139.668" cy="304.521" r="2.28963" fill="#5384E3"/>
<circle cx="194.619" cy="57.2408" r="2.28963" fill="#C2E3FF"/>
<circle cx="194.619" cy="277.046" r="2.28963" fill="#5384E3"/>
<circle cx="194.619" cy="84.7164" r="2.28963" fill="#C2E3FF"/>
<circle cx="194.619" cy="304.521" r="2.28963" fill="#5384E3"/>
<circle cx="222.094" cy="57.2408" r="2.28963" fill="#C2E3FF"/>
<circle cx="222.094" cy="277.046" r="2.28963" fill="#5384E3"/>
<circle cx="222.094" cy="84.7165" r="2.28963" fill="#C2E3FF"/>
<circle cx="222.094" cy="304.521" r="2.28963" fill="#5384E3"/>
<circle cx="277.046" cy="57.2408" r="2.28963" fill="#C2E3FF"/>
<circle cx="277.046" cy="277.046" r="2.28963" fill="#5384E3"/>
<circle cx="277.046" cy="84.7165" r="2.28963" fill="#C2E3FF"/>
<circle cx="277.046" cy="304.521" r="2.28963" fill="#5384E3"/>
<circle cx="249.57" cy="57.2408" r="2.28963" fill="#C2E3FF"/>
<circle cx="249.57" cy="277.046" r="2.28963" fill="#5384E3"/>
<circle cx="249.57" cy="84.7165" r="2.28963" fill="#C2E3FF"/>
<circle cx="249.57" cy="304.521" r="2.28963" fill="#5384E3"/>
<circle cx="304.521" cy="57.2408" r="2.28963" fill="#C2E3FF"/>
<circle cx="304.521" cy="277.046" r="2.28963" fill="#5384E3"/>
<circle cx="304.521" cy="84.7165" r="2.28963" fill="#C2E3FF"/>
<circle cx="304.521" cy="304.521" r="2.28963" fill="#5384E3"/>
<circle cx="331.997" cy="57.2408" r="2.28963" fill="#C2E3FF"/>
<circle cx="331.997" cy="277.046" r="2.28963" fill="#5384E3"/>
<circle cx="331.997" cy="84.7165" r="2.28963" fill="#C2E3FF"/>
<circle cx="331.997" cy="304.521" r="2.28963" fill="#5384E3"/>
<circle cx="386.948" cy="57.2408" r="2.28963" fill="#C2E3FF"/>
<circle cx="386.948" cy="277.046" r="2.28963" fill="#5384E3"/>
<circle cx="386.948" cy="84.7165" r="2.28963" fill="#C2E3FF"/>
<circle cx="386.948" cy="304.521" r="2.28963" fill="#5384E3"/>
<circle cx="359.472" cy="57.2408" r="2.28963" fill="#C2E3FF"/>
<circle cx="359.472" cy="277.046" r="2.28963" fill="#5384E3"/>
<circle cx="359.472" cy="84.7165" r="2.28963" fill="#C2E3FF"/>
<circle cx="359.472" cy="304.521" r="2.28963" fill="#5384E3"/>
<circle cx="414.423" cy="57.2408" r="2.28963" fill="#C2E3FF"/>
<circle cx="414.423" cy="277.046" r="2.28963" fill="#5384E3"/>
<circle cx="414.423" cy="84.7165" r="2.28963" fill="#C2E3FF"/>
<circle cx="414.423" cy="304.521" r="2.28963" fill="#5384E3"/>
<circle cx="2.28963" cy="112.192" r="2.28963" fill="#C2E3FF"/>
<circle cx="2.28963" cy="139.668" r="2.28963" fill="#C2E3FF"/>
<circle cx="57.2408" cy="112.192" r="2.28963" fill="#C2E3FF"/>
<circle cx="57.2408" cy="331.997" r="2.28963" fill="#5384E3"/>
<circle cx="57.2408" cy="139.668" r="2.28963" fill="#C2E3FF"/>
<circle cx="57.2408" cy="359.472" r="2.28963" fill="#5384E3"/>
<circle cx="29.7652" cy="112.192" r="2.28963" fill="#C2E3FF"/>
<circle cx="29.7652" cy="139.668" r="2.28963" fill="#C2E3FF"/>
<circle cx="84.7164" cy="112.192" r="2.28963" fill="#C2E3FF"/>
<circle cx="84.7164" cy="331.997" r="2.28963" fill="#5384E3"/>
<circle cx="84.7164" cy="139.668" r="2.28963" fill="#C2E3FF"/>
<circle cx="84.7164" cy="359.472" r="2.28963" fill="#5384E3"/>
<circle cx="112.192" cy="112.192" r="2.28963" fill="#C2E3FF"/>
<circle cx="112.192" cy="331.997" r="2.28963" fill="#5384E3"/>
<circle cx="112.192" cy="139.668" r="2.28963" fill="#C2E3FF"/>
<circle cx="112.192" cy="359.472" r="2.28963" fill="#5384E3"/>
<circle cx="167.143" cy="112.192" r="2.28963" fill="#C2E3FF"/>
<circle cx="167.143" cy="331.997" r="2.28963" fill="#5384E3"/>
<circle cx="167.143" cy="139.668" r="2.28963" fill="#C2E3FF"/>
<circle cx="167.143" cy="359.472" r="2.28963" fill="#5384E3"/>
<circle cx="139.668" cy="112.192" r="2.28963" fill="#C2E3FF"/>
<circle cx="139.668" cy="331.997" r="2.28963" fill="#5384E3"/>
<circle cx="139.668" cy="139.668" r="2.28963" fill="#C2E3FF"/>
<circle cx="139.668" cy="359.472" r="2.28963" fill="#5384E3"/>
<circle cx="194.619" cy="112.192" r="2.28963" fill="#C2E3FF"/>
<circle cx="194.619" cy="331.997" r="2.28963" fill="#5384E3"/>
<circle cx="194.619" cy="139.668" r="2.28963" fill="#C2E3FF"/>
<circle cx="194.619" cy="359.472" r="2.28963" fill="#5384E3"/>
<circle cx="222.094" cy="112.192" r="2.28963" fill="#C2E3FF"/>
<circle cx="222.094" cy="331.997" r="2.28963" fill="#5384E3"/>
<circle cx="222.094" cy="139.668" r="2.28963" fill="#C2E3FF"/>
<circle cx="222.094" cy="359.472" r="2.28963" fill="#5384E3"/>
<circle cx="277.046" cy="112.192" r="2.28963" fill="#C2E3FF"/>
<circle cx="277.046" cy="331.997" r="2.28963" fill="#5384E3"/>
<circle cx="277.046" cy="139.668" r="2.28963" fill="#C2E3FF"/>
<circle cx="277.046" cy="359.472" r="2.28963" fill="#5384E3"/>
<circle cx="249.57" cy="112.192" r="2.28963" fill="#C2E3FF"/>
<circle cx="249.57" cy="331.997" r="2.28963" fill="#5384E3"/>
<circle cx="249.57" cy="139.668" r="2.28963" fill="#C2E3FF"/>
<circle cx="249.57" cy="359.472" r="2.28963" fill="#5384E3"/>
<circle cx="304.521" cy="112.192" r="2.28963" fill="#C2E3FF"/>
<circle cx="304.521" cy="331.997" r="2.28963" fill="#5384E3"/>
<circle cx="304.521" cy="139.668" r="2.28963" fill="#C2E3FF"/>
<circle cx="304.521" cy="359.472" r="2.28963" fill="#5384E3"/>
<circle cx="331.997" cy="112.192" r="2.28963" fill="#C2E3FF"/>
<circle cx="331.997" cy="331.997" r="2.28963" fill="#5384E3"/>
<circle cx="331.997" cy="139.668" r="2.28963" fill="#C2E3FF"/>
<circle cx="331.997" cy="359.472" r="2.28963" fill="#5384E3"/>
<circle cx="386.948" cy="112.192" r="2.28963" fill="#C2E3FF"/>
<circle cx="386.948" cy="331.997" r="2.28963" fill="#5384E3"/>
<circle cx="386.948" cy="139.668" r="2.28963" fill="#C2E3FF"/>
<circle cx="386.948" cy="359.472" r="2.28963" fill="#5384E3"/>
<circle cx="359.472" cy="112.192" r="2.28963" fill="#C2E3FF"/>
<circle cx="359.472" cy="331.997" r="2.28963" fill="#5384E3"/>
<circle cx="359.472" cy="139.668" r="2.28963" fill="#C2E3FF"/>
<circle cx="359.472" cy="359.472" r="2.28963" fill="#5384E3"/>
<circle cx="414.423" cy="112.192" r="2.28963" fill="#C2E3FF"/>
<circle cx="414.423" cy="331.997" r="2.28963" fill="#5384E3"/>
<circle cx="414.423" cy="139.668" r="2.28963" fill="#C2E3FF"/>
<circle cx="414.423" cy="359.472" r="2.28963" fill="#5384E3"/>
<circle cx="2.28963" cy="167.143" r="2.28963" fill="#C2E3FF"/>
<circle cx="2.28963" cy="194.619" r="2.28963" fill="#C2E3FF"/>
<circle cx="57.2408" cy="167.143" r="2.28963" fill="#C2E3FF"/>
<circle cx="57.2408" cy="386.948" r="2.28963" fill="#5384E3"/>
<circle cx="57.2408" cy="194.619" r="2.28963" fill="#C2E3FF"/>
<circle cx="57.2408" cy="414.424" r="2.28963" fill="#5384E3"/>
<circle cx="29.7652" cy="167.143" r="2.28963" fill="#C2E3FF"/>
<circle cx="29.7652" cy="194.619" r="2.28963" fill="#C2E3FF"/>
<circle cx="29.7652" cy="222.094" r="2.28963" fill="#5384E3"/>
<circle cx="4.5787" cy="222.094" r="2.28963" fill="#5384E3"/>
<circle cx="29.7652" cy="249.569" r="2.28963" fill="#5384E3"/>
<circle cx="4.5787" cy="249.569" r="2.28963" fill="#5384E3"/>
<circle cx="29.7652" cy="277.045" r="2.28963" fill="#5384E3"/>
<circle cx="4.5787" cy="277.045" r="2.28963" fill="#5384E3"/>
<circle cx="29.7652" cy="304.52" r="2.28963" fill="#5384E3"/>
<circle cx="4.5787" cy="304.52" r="2.28963" fill="#5384E3"/>
<circle cx="29.7652" cy="331.995" r="2.28963" fill="#5384E3"/>
<circle cx="4.5787" cy="331.995" r="2.28963" fill="#5384E3"/>
<circle cx="29.7652" cy="359.471" r="2.28963" fill="#5384E3"/>
<circle cx="4.5787" cy="359.471" r="2.28963" fill="#5384E3"/>
<circle cx="29.7652" cy="386.946" r="2.28963" fill="#5384E3"/>
<circle cx="4.5787" cy="386.946" r="2.28963" fill="#5384E3"/>
<circle cx="29.7652" cy="414.421" r="2.28963" fill="#5384E3"/>
<circle cx="4.5787" cy="414.421" r="2.28963" fill="#5384E3"/>
<circle cx="84.7164" cy="167.143" r="2.28963" fill="#C2E3FF"/>
<circle cx="84.7164" cy="386.948" r="2.28963" fill="#5384E3"/>
<circle cx="84.7164" cy="194.619" r="2.28963" fill="#C2E3FF"/>
<circle cx="84.7164" cy="414.424" r="2.28963" fill="#5384E3"/>
<circle cx="112.192" cy="167.143" r="2.28963" fill="#C2E3FF"/>
<circle cx="112.192" cy="386.948" r="2.28963" fill="#5384E3"/>
<circle cx="112.192" cy="194.619" r="2.28963" fill="#C2E3FF"/>
<circle cx="112.192" cy="414.424" r="2.28963" fill="#5384E3"/>
<circle cx="167.143" cy="167.143" r="2.28963" fill="#C2E3FF"/>
<circle cx="167.143" cy="386.948" r="2.28963" fill="#5384E3"/>
<circle cx="167.143" cy="194.619" r="2.28963" fill="#C2E3FF"/>
<circle cx="167.143" cy="414.424" r="2.28963" fill="#5384E3"/>
<circle cx="139.668" cy="167.143" r="2.28963" fill="#C2E3FF"/>
<circle cx="139.668" cy="386.948" r="2.28963" fill="#5384E3"/>
<circle cx="139.668" cy="194.619" r="2.28963" fill="#C2E3FF"/>
<circle cx="139.668" cy="414.424" r="2.28963" fill="#5384E3"/>
<circle cx="194.619" cy="167.143" r="2.28963" fill="#C2E3FF"/>
<circle cx="194.619" cy="386.948" r="2.28963" fill="#5384E3"/>
<circle cx="194.619" cy="194.619" r="2.28963" fill="#C2E3FF"/>
<circle cx="194.619" cy="414.424" r="2.28963" fill="#5384E3"/>
<circle cx="222.094" cy="167.143" r="2.28963" fill="#C2E3FF"/>
<circle cx="222.094" cy="386.948" r="2.28963" fill="#5384E3"/>
<circle cx="222.094" cy="194.619" r="2.28963" fill="#C2E3FF"/>
<circle cx="222.094" cy="414.424" r="2.28963" fill="#5384E3"/>
<circle cx="277.046" cy="167.143" r="2.28963" fill="#C2E3FF"/>
<circle cx="277.046" cy="386.948" r="2.28963" fill="#5384E3"/>
<circle cx="277.046" cy="194.619" r="2.28963" fill="#C2E3FF"/>
<circle cx="277.046" cy="414.424" r="2.28963" fill="#5384E3"/>
<circle cx="249.57" cy="167.143" r="2.28963" fill="#C2E3FF"/>
<circle cx="249.57" cy="386.948" r="2.28963" fill="#5384E3"/>
<circle cx="249.57" cy="194.619" r="2.28963" fill="#C2E3FF"/>
<circle cx="249.57" cy="414.424" r="2.28963" fill="#5384E3"/>
<circle cx="304.521" cy="167.143" r="2.28963" fill="#C2E3FF"/>
<circle cx="304.521" cy="386.948" r="2.28963" fill="#5384E3"/>
<circle cx="304.521" cy="194.619" r="2.28963" fill="#C2E3FF"/>
<circle cx="304.521" cy="414.424" r="2.28963" fill="#5384E3"/>
<circle cx="331.997" cy="167.143" r="2.28963" fill="#C2E3FF"/>
<circle cx="331.997" cy="386.948" r="2.28963" fill="#5384E3"/>
<circle cx="331.997" cy="194.619" r="2.28963" fill="#C2E3FF"/>
<circle cx="331.997" cy="414.424" r="2.28963" fill="#5384E3"/>
<circle cx="386.948" cy="167.143" r="2.28963" fill="#C2E3FF"/>
<circle cx="386.948" cy="386.948" r="2.28963" fill="#5384E3"/>
<circle cx="386.948" cy="194.619" r="2.28963" fill="#C2E3FF"/>
<circle cx="386.948" cy="414.424" r="2.28963" fill="#5384E3"/>
<circle cx="359.472" cy="167.143" r="2.28963" fill="#C2E3FF"/>
<circle cx="359.472" cy="386.948" r="2.28963" fill="#5384E3"/>
<circle cx="359.472" cy="194.619" r="2.28963" fill="#C2E3FF"/>
<circle cx="359.472" cy="414.424" r="2.28963" fill="#5384E3"/>
<circle cx="414.423" cy="167.143" r="2.28963" fill="#C2E3FF"/>
<circle cx="414.423" cy="386.948" r="2.28963" fill="#5384E3"/>
<circle cx="414.423" cy="194.619" r="2.28963" fill="#C2E3FF"/>
<circle cx="414.423" cy="414.424" r="2.28963" fill="#5384E3"/>
</svg>
