<svg width="131" height="30" viewBox="0 0 131 30" fill="none" xmlns="http://www.w3.org/2000/svg">
<path fill-rule="evenodd" clip-rule="evenodd" d="M1.88356 25.8181C10.8701 15.6465 23.5061 9.92963 37.2821 7.34918C58.0868 3.45274 81.4955 6.70515 99.0521 12.7291C110.087 16.5139 116.287 22.7631 126.196 28.8107C126.598 29.0554 127.121 28.9288 127.366 28.5273C127.611 28.128 127.484 27.6021 127.083 27.3595C117.057 21.2411 110.767 14.9489 99.6038 11.119C81.8025 5.01132 58.0653 1.7267 36.9687 5.67681C22.8127 8.32811 9.84391 14.2382 0.608373 24.691C0.297087 25.0431 0.329256 25.5797 0.681331 25.891C1.03341 26.2023 1.57227 26.1701 1.88356 25.8181Z" fill="#D8EDFF"/>
<path fill-rule="evenodd" clip-rule="evenodd" d="M129.479 28.2699C129.445 28.2463 129.213 28.0939 129.033 27.9458C128.282 27.3361 127.064 26.1489 125.617 24.5603C120.77 19.2255 113.363 9.38237 112.621 1.26961C112.578 0.80161 112.163 0.458104 111.695 0.501041C111.227 0.543977 110.882 0.956226 110.925 1.42423C111.697 9.86545 119.314 20.1551 124.359 25.7046C125.036 26.4474 125.665 27.1085 126.225 27.6667C123.857 27.1858 121.506 26.6449 119.155 26.0759C112.389 24.4358 106.195 24.4186 99.3212 25.8162C98.8618 25.9085 98.5634 26.3593 98.6578 26.8187C98.7502 27.2782 99.201 27.5765 99.6604 27.4821C106.277 26.1382 112.241 26.151 118.754 27.7289C121.826 28.4717 124.902 29.1673 128.009 29.7491C128.318 29.8071 129.123 29.9487 129.239 29.9509C129.9 29.9638 130.063 29.4271 130.093 29.3068C130.108 29.2489 130.252 28.5189 129.479 28.2699ZM128.9 29.8693C128.921 29.8758 128.943 29.8844 128.966 29.8908C128.947 29.8865 128.926 29.8779 128.9 29.8693Z" fill="#D8EDFF"/>
</svg>
