<svg width="37" height="32" viewBox="0 0 37 32" fill="none" xmlns="http://www.w3.org/2000/svg">
<g clip-path="url(#clip0_1_11988)">
<g clip-path="url(#clip1_1_11988)">
<path d="M30.7168 28.8896C30.7168 28.3292 30.5506 27.7815 30.2393 27.3155C29.928 26.8496 29.4855 26.4865 28.9678 26.2721C28.4501 26.0576 27.8805 26.0015 27.3309 26.1108C26.7813 26.2202 26.2765 26.49 25.8803 26.8862C25.484 27.2824 25.2142 27.7873 25.1049 28.3369C24.9956 28.8864 25.0517 29.4561 25.2661 29.9738C25.4806 30.4915 25.8437 30.934 26.3096 31.2453C26.7755 31.5566 27.3233 31.7228 27.8836 31.7228C28.635 31.7228 29.3557 31.4242 29.887 30.8929C30.4183 30.3616 30.7168 29.641 30.7168 28.8896Z" fill="#5384E3"/>
<path d="M30.7167 16.4712C30.7204 15.9101 30.5573 15.3605 30.2482 14.8922C29.9391 14.4239 29.4979 14.0579 28.9806 13.8406C28.4632 13.6234 27.893 13.5646 27.3422 13.6718C26.7914 13.7791 26.2849 14.0474 25.8868 14.4429C25.4887 14.8384 25.2171 15.3432 25.1063 15.8933C24.9954 16.4433 25.0505 17.014 25.2643 17.5327C25.4782 18.0515 25.8413 18.495 26.3076 18.8072C26.7739 19.1193 27.3224 19.2859 27.8836 19.286C28.6318 19.286 29.3496 18.99 29.8804 18.4627C30.4112 17.9353 30.7119 17.2194 30.7167 16.4712Z" fill="#5384E3"/>
<path d="M30.7158 4.03468C30.7194 3.47356 30.5563 2.92399 30.2473 2.45566C29.9382 1.98734 29.497 1.62135 28.9796 1.40409C28.4622 1.18683 27.892 1.12809 27.3412 1.23532C26.7904 1.34255 26.2839 1.61094 25.8858 2.00643C25.4878 2.40191 25.2161 2.90669 25.1053 3.45676C24.9945 4.00684 25.0495 4.57743 25.2634 5.09619C25.4772 5.61496 25.8404 6.05855 26.3067 6.37069C26.773 6.68282 27.3215 6.84944 27.8826 6.84946C28.6308 6.84947 29.3487 6.55351 29.8795 6.02616C30.4103 5.49881 30.7109 4.78289 30.7158 4.03468Z" fill="#5384E3"/>
<path d="M19.0156 28.8894C19.0156 28.3282 18.849 27.7798 18.5368 27.3135C18.2247 26.8472 17.7811 26.484 17.2624 26.2702C16.7436 26.0563 16.173 26.0013 15.6229 26.1121C15.0728 26.2229 14.5681 26.4946 14.1726 26.8926C13.7771 27.2907 13.5087 27.7972 13.4015 28.348C13.2943 28.8988 13.353 29.469 13.5703 29.9864C13.7875 30.5038 14.1535 30.945 14.6218 31.254C15.0902 31.5631 15.6397 31.7262 16.2009 31.7226C16.9491 31.7177 17.665 31.4171 18.1923 30.8863C18.7197 30.3555 19.0156 29.6376 19.0156 28.8894Z" fill="#5384E3"/>
<path d="M19.0156 16.4711C19.0192 15.9092 18.8557 15.359 18.5458 14.8902C18.2359 14.4215 17.7936 14.0555 17.2751 13.8388C16.7567 13.6221 16.1855 13.5644 15.6342 13.6732C15.0829 13.7819 14.5764 14.0521 14.1791 14.4494C13.7818 14.8468 13.5116 15.3533 13.4028 15.9046C13.2941 16.4559 13.3518 17.027 13.5685 17.5455C13.7852 18.0639 14.1512 18.5062 14.6199 18.8161C15.0886 19.126 15.6389 19.2895 16.2008 19.2859C16.9458 19.2811 17.659 18.983 18.1858 18.4562C18.7126 17.9293 19.0107 17.2162 19.0156 16.4711Z" fill="#5384E3"/>
<path d="M19.0156 4.03462C19.0192 3.47272 18.8557 2.92244 18.5458 2.45372C18.2359 1.985 17.7936 1.619 17.2751 1.40228C16.7567 1.18557 16.1855 1.12793 15.6342 1.23666C15.0829 1.34539 14.5764 1.6156 14.1791 2.01293C13.7818 2.41026 13.5116 2.91675 13.4028 3.46804C13.2941 4.01933 13.3518 4.59052 13.5685 5.10896C13.7852 5.6274 14.1512 6.06967 14.6199 6.37958C15.0886 6.68949 15.6389 6.85303 16.2008 6.84939C16.9458 6.84457 17.659 6.54647 18.1858 6.01964C18.7126 5.49281 19.0107 4.77965 19.0156 4.03462Z" fill="#5384E3"/>
<path d="M7.37109 28.8901C7.36746 28.3342 7.19929 27.7918 6.8878 27.3314C6.57631 26.8709 6.13544 26.513 5.62079 26.3028C5.10615 26.0926 4.54079 26.0394 3.99599 26.1501C3.45119 26.2608 2.95137 26.5303 2.55956 26.9247C2.16774 27.319 1.90148 27.8206 1.79436 28.3661C1.68723 28.9116 1.74404 29.4766 1.95761 29.9899C2.17118 30.5031 2.53196 30.9417 2.99444 31.2502C3.45692 31.5587 4.00039 31.7233 4.55631 31.7233C5.30452 31.7184 6.02044 31.4178 6.54779 30.887C7.07514 30.3562 7.37111 29.6383 7.37109 28.8901Z" fill="#5384E3"/>
<path d="M7.37109 16.47C7.37109 15.9133 7.206 15.3691 6.89671 14.9062C6.58742 14.4433 6.14782 14.0826 5.63348 13.8695C5.11915 13.6565 4.55319 13.6008 4.00718 13.7094C3.46116 13.818 2.95962 14.0861 2.56597 14.4797C2.17232 14.8734 1.90424 15.3749 1.79563 15.9209C1.68702 16.4669 1.74276 17.0329 1.9558 17.5472C2.16884 18.0615 2.52962 18.5012 2.99251 18.8105C3.4554 19.1197 3.9996 19.2848 4.55631 19.2848C5.30135 19.28 6.01451 18.9819 6.54134 18.4551C7.06817 17.9282 7.36627 17.2151 7.37109 16.47Z" fill="#5384E3"/>
<path d="M7.37109 4.03474C7.37109 3.47803 7.206 2.93382 6.89671 2.47093C6.58742 2.00804 6.14782 1.64728 5.63348 1.43424C5.11915 1.22119 4.55319 1.16545 4.00718 1.27406C3.46116 1.38267 2.95962 1.65073 2.56597 2.04438C2.17232 2.43803 1.90424 2.93958 1.79563 3.48559C1.68702 4.0316 1.74276 4.59758 1.9558 5.11191C2.16884 5.62624 2.52962 6.06586 2.99251 6.37515C3.4554 6.68444 3.9996 6.84951 4.55631 6.84951C5.30135 6.84469 6.01451 6.54659 6.54134 6.01976C7.06817 5.49293 7.36627 4.77977 7.37109 4.03474Z" fill="#5384E3"/>
</g>
</g>
<defs>
<clipPath id="clip0_1_11988">
<rect width="31" height="36" fill="white" transform="translate(36.7588 0.618652) rotate(90)"/>
</clipPath>
<clipPath id="clip1_1_11988">
<rect width="179.723" height="28.9204" fill="white" transform="translate(30.6621 1.20166) rotate(90)"/>
</clipPath>
</defs>
</svg>
