<svg width="565" height="565" viewBox="0 0 565 565" fill="none" xmlns="http://www.w3.org/2000/svg">
<g opacity="0.2">
<circle cx="3.7207" cy="3.57349" r="3.10059" fill="#F5F5F5"/>
<circle cx="3.7207" cy="301.23" r="3.10059" fill="#F5F5F5"/>
<circle cx="3.7207" cy="40.7805" r="3.10059" fill="#F5F5F5"/>
<circle cx="3.7207" cy="338.437" r="3.10059" fill="#F5F5F5"/>
<circle cx="78.1348" cy="3.57349" r="3.10059" fill="#F5F5F5"/>
<circle cx="78.1348" cy="301.23" r="3.10059" fill="#F5F5F5"/>
<circle cx="78.1348" cy="40.7805" r="3.10059" fill="#F5F5F5"/>
<circle cx="78.1348" cy="338.437" r="3.10059" fill="#F5F5F5"/>
<circle cx="40.9277" cy="3.57349" r="3.10059" fill="#F5F5F5"/>
<circle cx="40.9277" cy="301.23" r="3.10059" fill="#F5F5F5"/>
<circle cx="40.9277" cy="40.7805" r="3.10059" fill="#F5F5F5"/>
<circle cx="40.9277" cy="338.437" r="3.10059" fill="#F5F5F5"/>
<circle cx="115.342" cy="3.57349" r="3.10059" fill="#F5F5F5"/>
<circle cx="115.342" cy="301.23" r="3.10059" fill="#F5F5F5"/>
<circle cx="115.342" cy="40.7805" r="3.10059" fill="#F5F5F5"/>
<circle cx="115.342" cy="338.437" r="3.10059" fill="#F5F5F5"/>
<circle cx="152.549" cy="3.57349" r="3.10059" fill="#F5F5F5"/>
<circle cx="152.549" cy="301.23" r="3.10059" fill="#F5F5F5"/>
<circle cx="152.549" cy="40.7805" r="3.10059" fill="#F5F5F5"/>
<circle cx="152.549" cy="338.437" r="3.10059" fill="#F5F5F5"/>
<circle cx="226.963" cy="3.57349" r="3.10059" fill="#F5F5F5"/>
<circle cx="226.963" cy="301.23" r="3.10059" fill="#F5F5F5"/>
<circle cx="226.963" cy="40.7805" r="3.10059" fill="#F5F5F5"/>
<circle cx="226.963" cy="338.437" r="3.10059" fill="#F5F5F5"/>
<circle cx="189.756" cy="3.57349" r="3.10059" fill="#F5F5F5"/>
<circle cx="189.756" cy="301.23" r="3.10059" fill="#F5F5F5"/>
<circle cx="189.756" cy="40.7805" r="3.10059" fill="#F5F5F5"/>
<circle cx="189.756" cy="338.437" r="3.10059" fill="#F5F5F5"/>
<circle cx="264.17" cy="3.57349" r="3.10059" fill="#F5F5F5"/>
<circle cx="264.17" cy="301.23" r="3.10059" fill="#F5F5F5"/>
<circle cx="264.17" cy="40.7805" r="3.10059" fill="#F5F5F5"/>
<circle cx="264.17" cy="338.437" r="3.10059" fill="#F5F5F5"/>
<circle cx="301.377" cy="3.57349" r="3.10059" fill="#F5F5F5"/>
<circle cx="301.377" cy="301.23" r="3.10059" fill="#F5F5F5"/>
<circle cx="301.377" cy="40.7805" r="3.10059" fill="#F5F5F5"/>
<circle cx="301.377" cy="338.437" r="3.10059" fill="#F5F5F5"/>
<circle cx="375.791" cy="301.23" r="3.10059" fill="#F5F5F5"/>
<circle cx="375.791" cy="338.437" r="3.10059" fill="#F5F5F5"/>
<circle cx="338.584" cy="3.57349" r="3.10059" fill="#F5F5F5"/>
<circle cx="338.584" cy="301.23" r="3.10059" fill="#F5F5F5"/>
<circle cx="338.584" cy="40.7805" r="3.10059" fill="#F5F5F5"/>
<circle cx="338.584" cy="338.437" r="3.10059" fill="#F5F5F5"/>
<circle cx="412.998" cy="301.23" r="3.10059" fill="#F5F5F5"/>
<circle cx="412.998" cy="338.437" r="3.10059" fill="#F5F5F5"/>
<circle cx="450.205" cy="301.23" r="3.10059" fill="#F5F5F5"/>
<circle cx="450.205" cy="338.437" r="3.10059" fill="#F5F5F5"/>
<circle cx="524.619" cy="301.23" r="3.10059" fill="#F5F5F5"/>
<circle cx="524.619" cy="338.437" r="3.10059" fill="#F5F5F5"/>
<circle cx="487.412" cy="301.23" r="3.10059" fill="#F5F5F5"/>
<circle cx="487.412" cy="338.437" r="3.10059" fill="#F5F5F5"/>
<circle cx="561.826" cy="301.23" r="3.10059" fill="#F5F5F5"/>
<circle cx="561.826" cy="338.437" r="3.10059" fill="#F5F5F5"/>
<circle cx="3.7207" cy="77.9875" r="3.10059" fill="#F5F5F5"/>
<circle cx="3.7207" cy="115.195" r="3.10059" fill="#F5F5F5"/>
<circle cx="78.1348" cy="77.9875" r="3.10059" fill="#F5F5F5"/>
<circle cx="78.1348" cy="375.644" r="3.10059" fill="#F5F5F5"/>
<circle cx="78.1348" cy="115.195" r="3.10059" fill="#F5F5F5"/>
<circle cx="78.1348" cy="412.851" r="3.10059" fill="#F5F5F5"/>
<circle cx="40.9277" cy="77.9875" r="3.10059" fill="#F5F5F5"/>
<circle cx="40.9277" cy="115.195" r="3.10059" fill="#F5F5F5"/>
<circle cx="115.342" cy="77.9875" r="3.10059" fill="#F5F5F5"/>
<circle cx="115.342" cy="375.644" r="3.10059" fill="#F5F5F5"/>
<circle cx="115.342" cy="115.195" r="3.10059" fill="#F5F5F5"/>
<circle cx="115.342" cy="412.851" r="3.10059" fill="#F5F5F5"/>
<circle cx="152.549" cy="77.9875" r="3.10059" fill="#F5F5F5"/>
<circle cx="152.549" cy="375.644" r="3.10059" fill="#F5F5F5"/>
<circle cx="152.549" cy="115.195" r="3.10059" fill="#F5F5F5"/>
<circle cx="152.549" cy="412.851" r="3.10059" fill="#F5F5F5"/>
<circle cx="226.963" cy="77.9875" r="3.10059" fill="#F5F5F5"/>
<circle cx="226.963" cy="375.644" r="3.10059" fill="#F5F5F5"/>
<circle cx="226.963" cy="115.195" r="3.10059" fill="#F5F5F5"/>
<circle cx="226.963" cy="412.851" r="3.10059" fill="#F5F5F5"/>
<circle cx="189.756" cy="77.9875" r="3.10059" fill="#F5F5F5"/>
<circle cx="189.756" cy="375.644" r="3.10059" fill="#F5F5F5"/>
<circle cx="189.756" cy="115.195" r="3.10059" fill="#F5F5F5"/>
<circle cx="189.756" cy="412.851" r="3.10059" fill="#F5F5F5"/>
<circle cx="264.17" cy="77.9875" r="3.10059" fill="#F5F5F5"/>
<circle cx="264.17" cy="375.644" r="3.10059" fill="#F5F5F5"/>
<circle cx="264.17" cy="115.195" r="3.10059" fill="#F5F5F5"/>
<circle cx="264.17" cy="412.851" r="3.10059" fill="#F5F5F5"/>
<circle cx="301.377" cy="77.9875" r="3.10059" fill="#F5F5F5"/>
<circle cx="301.377" cy="375.644" r="3.10059" fill="#F5F5F5"/>
<circle cx="301.377" cy="115.195" r="3.10059" fill="#F5F5F5"/>
<circle cx="301.377" cy="412.851" r="3.10059" fill="#F5F5F5"/>
<circle cx="375.791" cy="77.9875" r="3.10059" fill="#F5F5F5"/>
<circle cx="375.791" cy="375.644" r="3.10059" fill="#F5F5F5"/>
<circle cx="375.791" cy="115.195" r="3.10059" fill="#F5F5F5"/>
<circle cx="375.791" cy="412.851" r="3.10059" fill="#F5F5F5"/>
<circle cx="338.584" cy="77.9875" r="3.10059" fill="#F5F5F5"/>
<circle cx="338.584" cy="375.644" r="3.10059" fill="#F5F5F5"/>
<circle cx="338.584" cy="115.195" r="3.10059" fill="#F5F5F5"/>
<circle cx="338.584" cy="412.851" r="3.10059" fill="#F5F5F5"/>
<circle cx="412.998" cy="77.9875" r="3.10059" fill="#F5F5F5"/>
<circle cx="412.998" cy="375.644" r="3.10059" fill="#F5F5F5"/>
<circle cx="412.998" cy="115.195" r="3.10059" fill="#F5F5F5"/>
<circle cx="412.998" cy="412.851" r="3.10059" fill="#F5F5F5"/>
<circle cx="450.205" cy="77.9875" r="3.10059" fill="#F5F5F5"/>
<circle cx="450.205" cy="375.644" r="3.10059" fill="#F5F5F5"/>
<circle cx="450.205" cy="115.195" r="3.10059" fill="#F5F5F5"/>
<circle cx="450.205" cy="412.851" r="3.10059" fill="#F5F5F5"/>
<circle cx="524.619" cy="77.9875" r="3.10059" fill="#F5F5F5"/>
<circle cx="524.619" cy="375.644" r="3.10059" fill="#F5F5F5"/>
<circle cx="524.619" cy="115.195" r="3.10059" fill="#F5F5F5"/>
<circle cx="524.619" cy="412.851" r="3.10059" fill="#F5F5F5"/>
<circle cx="487.412" cy="77.9875" r="3.10059" fill="#F5F5F5"/>
<circle cx="487.412" cy="375.644" r="3.10059" fill="#F5F5F5"/>
<circle cx="487.412" cy="115.195" r="3.10059" fill="#F5F5F5"/>
<circle cx="487.412" cy="412.851" r="3.10059" fill="#F5F5F5"/>
<circle cx="561.826" cy="77.9875" r="3.10059" fill="#F5F5F5"/>
<circle cx="561.826" cy="375.644" r="3.10059" fill="#F5F5F5"/>
<circle cx="561.826" cy="115.195" r="3.10059" fill="#F5F5F5"/>
<circle cx="561.826" cy="412.851" r="3.10059" fill="#F5F5F5"/>
<circle cx="3.7207" cy="152.402" r="3.10059" fill="#F5F5F5"/>
<circle cx="3.7207" cy="189.609" r="3.10059" fill="#F5F5F5"/>
<circle cx="78.1348" cy="152.402" r="3.10059" fill="#F5F5F5"/>
<circle cx="78.1348" cy="450.058" r="3.10059" fill="#F5F5F5"/>
<circle cx="78.1348" cy="189.609" r="3.10059" fill="#F5F5F5"/>
<circle cx="78.1348" cy="487.265" r="3.10059" fill="#F5F5F5"/>
<circle cx="40.9277" cy="152.402" r="3.10059" fill="#F5F5F5"/>
<circle cx="40.9277" cy="189.609" r="3.10059" fill="#F5F5F5"/>
<circle cx="115.342" cy="152.402" r="3.10059" fill="#F5F5F5"/>
<circle cx="115.342" cy="450.058" r="3.10059" fill="#F5F5F5"/>
<circle cx="115.342" cy="189.609" r="3.10059" fill="#F5F5F5"/>
<circle cx="115.342" cy="487.265" r="3.10059" fill="#F5F5F5"/>
<circle cx="152.549" cy="152.402" r="3.10059" fill="#F5F5F5"/>
<circle cx="152.549" cy="450.058" r="3.10059" fill="#F5F5F5"/>
<circle cx="152.549" cy="189.609" r="3.10059" fill="#F5F5F5"/>
<circle cx="152.549" cy="487.265" r="3.10059" fill="#F5F5F5"/>
<circle cx="226.963" cy="152.402" r="3.10059" fill="#F5F5F5"/>
<circle cx="226.963" cy="450.058" r="3.10059" fill="#F5F5F5"/>
<circle cx="226.963" cy="189.609" r="3.10059" fill="#F5F5F5"/>
<circle cx="226.963" cy="487.265" r="3.10059" fill="#F5F5F5"/>
<circle cx="189.756" cy="152.402" r="3.10059" fill="#F5F5F5"/>
<circle cx="189.756" cy="450.058" r="3.10059" fill="#F5F5F5"/>
<circle cx="189.756" cy="189.609" r="3.10059" fill="#F5F5F5"/>
<circle cx="189.756" cy="487.265" r="3.10059" fill="#F5F5F5"/>
<circle cx="264.17" cy="152.402" r="3.10059" fill="#F5F5F5"/>
<circle cx="264.17" cy="450.058" r="3.10059" fill="#F5F5F5"/>
<circle cx="264.17" cy="189.609" r="3.10059" fill="#F5F5F5"/>
<circle cx="264.17" cy="487.265" r="3.10059" fill="#F5F5F5"/>
<circle cx="301.377" cy="152.402" r="3.10059" fill="#F5F5F5"/>
<circle cx="301.377" cy="450.058" r="3.10059" fill="#F5F5F5"/>
<circle cx="301.377" cy="189.609" r="3.10059" fill="#F5F5F5"/>
<circle cx="301.377" cy="487.265" r="3.10059" fill="#F5F5F5"/>
<circle cx="375.791" cy="152.402" r="3.10059" fill="#F5F5F5"/>
<circle cx="375.791" cy="450.058" r="3.10059" fill="#F5F5F5"/>
<circle cx="375.791" cy="189.609" r="3.10059" fill="#F5F5F5"/>
<circle cx="375.791" cy="487.265" r="3.10059" fill="#F5F5F5"/>
<circle cx="338.584" cy="152.402" r="3.10059" fill="#F5F5F5"/>
<circle cx="338.584" cy="450.058" r="3.10059" fill="#F5F5F5"/>
<circle cx="338.584" cy="189.609" r="3.10059" fill="#F5F5F5"/>
<circle cx="338.584" cy="487.265" r="3.10059" fill="#F5F5F5"/>
<circle cx="412.998" cy="152.402" r="3.10059" fill="#F5F5F5"/>
<circle cx="412.998" cy="450.058" r="3.10059" fill="#F5F5F5"/>
<circle cx="412.998" cy="189.609" r="3.10059" fill="#F5F5F5"/>
<circle cx="412.998" cy="487.265" r="3.10059" fill="#F5F5F5"/>
<circle cx="450.205" cy="152.402" r="3.10059" fill="#F5F5F5"/>
<circle cx="450.205" cy="450.058" r="3.10059" fill="#F5F5F5"/>
<circle cx="450.205" cy="189.609" r="3.10059" fill="#F5F5F5"/>
<circle cx="450.205" cy="487.265" r="3.10059" fill="#F5F5F5"/>
<circle cx="524.619" cy="152.402" r="3.10059" fill="#F5F5F5"/>
<circle cx="524.619" cy="450.058" r="3.10059" fill="#F5F5F5"/>
<circle cx="524.619" cy="189.609" r="3.10059" fill="#F5F5F5"/>
<circle cx="524.619" cy="487.265" r="3.10059" fill="#F5F5F5"/>
<circle cx="487.412" cy="152.402" r="3.10059" fill="#F5F5F5"/>
<circle cx="487.412" cy="450.058" r="3.10059" fill="#F5F5F5"/>
<circle cx="487.412" cy="189.609" r="3.10059" fill="#F5F5F5"/>
<circle cx="487.412" cy="487.265" r="3.10059" fill="#F5F5F5"/>
<circle cx="561.826" cy="152.402" r="3.10059" fill="#F5F5F5"/>
<circle cx="561.826" cy="450.058" r="3.10059" fill="#F5F5F5"/>
<circle cx="561.826" cy="189.609" r="3.10059" fill="#F5F5F5"/>
<circle cx="561.826" cy="487.265" r="3.10059" fill="#F5F5F5"/>
<circle cx="3.7207" cy="226.816" r="3.10059" fill="#F5F5F5"/>
<circle cx="3.7207" cy="264.023" r="3.10059" fill="#F5F5F5"/>
<circle cx="3.7207" cy="561.679" r="3.10059" fill="#F5F5F5"/>
<circle cx="78.1348" cy="226.816" r="3.10059" fill="#F5F5F5"/>
<circle cx="78.1348" cy="524.472" r="3.10059" fill="#F5F5F5"/>
<circle cx="78.1348" cy="264.023" r="3.10059" fill="#F5F5F5"/>
<circle cx="78.1348" cy="561.679" r="3.10059" fill="#F5F5F5"/>
<circle cx="40.9277" cy="226.816" r="3.10059" fill="#F5F5F5"/>
<circle cx="40.9277" cy="264.023" r="3.10059" fill="#F5F5F5"/>
<circle cx="40.9277" cy="561.679" r="3.10059" fill="#F5F5F5"/>
<circle cx="115.342" cy="226.816" r="3.10059" fill="#F5F5F5"/>
<circle cx="115.342" cy="524.472" r="3.10059" fill="#F5F5F5"/>
<circle cx="115.342" cy="264.023" r="3.10059" fill="#F5F5F5"/>
<circle cx="115.342" cy="561.679" r="3.10059" fill="#F5F5F5"/>
<circle cx="152.549" cy="226.816" r="3.10059" fill="#F5F5F5"/>
<circle cx="152.549" cy="524.472" r="3.10059" fill="#F5F5F5"/>
<circle cx="152.549" cy="264.023" r="3.10059" fill="#F5F5F5"/>
<circle cx="152.549" cy="561.679" r="3.10059" fill="#F5F5F5"/>
<circle cx="226.963" cy="226.816" r="3.10059" fill="#F5F5F5"/>
<circle cx="226.963" cy="524.472" r="3.10059" fill="#F5F5F5"/>
<circle cx="226.963" cy="264.023" r="3.10059" fill="#F5F5F5"/>
<circle cx="226.963" cy="561.679" r="3.10059" fill="#F5F5F5"/>
<circle cx="189.756" cy="226.816" r="3.10059" fill="#F5F5F5"/>
<circle cx="189.756" cy="524.472" r="3.10059" fill="#F5F5F5"/>
<circle cx="189.756" cy="264.023" r="3.10059" fill="#F5F5F5"/>
<circle cx="189.756" cy="561.679" r="3.10059" fill="#F5F5F5"/>
<circle cx="264.17" cy="226.816" r="3.10059" fill="#F5F5F5"/>
<circle cx="264.17" cy="524.472" r="3.10059" fill="#F5F5F5"/>
<circle cx="264.17" cy="264.023" r="3.10059" fill="#F5F5F5"/>
<circle cx="264.17" cy="561.679" r="3.10059" fill="#F5F5F5"/>
<circle cx="301.377" cy="226.816" r="3.10059" fill="#F5F5F5"/>
<circle cx="301.377" cy="524.472" r="3.10059" fill="#F5F5F5"/>
<circle cx="301.377" cy="264.023" r="3.10059" fill="#F5F5F5"/>
<circle cx="301.377" cy="561.679" r="3.10059" fill="#F5F5F5"/>
<circle cx="375.791" cy="226.816" r="3.10059" fill="#F5F5F5"/>
<circle cx="375.791" cy="524.472" r="3.10059" fill="#F5F5F5"/>
<circle cx="375.791" cy="264.023" r="3.10059" fill="#F5F5F5"/>
<circle cx="375.791" cy="561.679" r="3.10059" fill="#F5F5F5"/>
<circle cx="338.584" cy="226.816" r="3.10059" fill="#F5F5F5"/>
<circle cx="338.584" cy="524.472" r="3.10059" fill="#F5F5F5"/>
<circle cx="338.584" cy="264.023" r="3.10059" fill="#F5F5F5"/>
<circle cx="338.584" cy="561.679" r="3.10059" fill="#F5F5F5"/>
<circle cx="412.998" cy="226.816" r="3.10059" fill="#F5F5F5"/>
<circle cx="412.998" cy="524.472" r="3.10059" fill="#F5F5F5"/>
<circle cx="412.998" cy="264.023" r="3.10059" fill="#F5F5F5"/>
<circle cx="412.998" cy="561.679" r="3.10059" fill="#F5F5F5"/>
<circle cx="450.205" cy="226.816" r="3.10059" fill="#F5F5F5"/>
<circle cx="450.205" cy="524.472" r="3.10059" fill="#F5F5F5"/>
<circle cx="450.205" cy="264.023" r="3.10059" fill="#F5F5F5"/>
<circle cx="450.205" cy="561.679" r="3.10059" fill="#F5F5F5"/>
<circle cx="524.619" cy="226.816" r="3.10059" fill="#F5F5F5"/>
<circle cx="524.619" cy="524.472" r="3.10059" fill="#F5F5F5"/>
<circle cx="524.619" cy="264.023" r="3.10059" fill="#F5F5F5"/>
<circle cx="524.619" cy="561.679" r="3.10059" fill="#F5F5F5"/>
<circle cx="487.412" cy="226.816" r="3.10059" fill="#F5F5F5"/>
<circle cx="487.412" cy="524.472" r="3.10059" fill="#F5F5F5"/>
<circle cx="487.412" cy="264.023" r="3.10059" fill="#F5F5F5"/>
<circle cx="487.412" cy="561.679" r="3.10059" fill="#F5F5F5"/>
<circle cx="561.826" cy="226.816" r="3.10059" fill="#F5F5F5"/>
<circle cx="561.826" cy="524.472" r="3.10059" fill="#F5F5F5"/>
<circle cx="561.826" cy="264.023" r="3.10059" fill="#F5F5F5"/>
<circle cx="561.826" cy="561.679" r="3.10059" fill="#F5F5F5"/>
</g>
</svg>
