<svg width="42" height="42" viewBox="0 0 42 42" fill="none" xmlns="http://www.w3.org/2000/svg">
<rect width="36" height="36" transform="translate(0.758789 0.161133)" fill="white"/>
<path d="M19.9843 12.9793V23.1611H18.7513V14.7691H18.6718C18.6254 14.8619 18.5061 14.968 18.3138 15.0873C18.1216 15.2033 17.873 15.306 17.5681 15.3955C17.2632 15.4817 16.9152 15.5248 16.5241 15.5248V14.4907C16.9185 14.4907 17.2599 14.4194 17.5482 14.2769C17.8366 14.1344 18.0769 13.967 18.2691 13.7748C18.4646 13.5825 18.6121 13.4085 18.7116 13.2528C18.8143 13.097 18.874 13.0058 18.8905 12.9793H19.9843Z" fill="white"/>
<rect width="36" height="36" transform="translate(5.75879 5.16113)" fill="#D8EDFF"/>
<path d="M33.0775 31.1885L26.9908 25.1018C27.9354 23.8807 28.4463 22.3877 28.4463 20.8174C28.4463 18.9377 27.7127 17.1752 26.3861 15.8463C25.0596 14.5174 23.2924 13.7861 21.415 13.7861C19.5377 13.7861 17.7705 14.5197 16.4439 15.8463C15.115 17.1729 14.3838 18.9377 14.3838 20.8174C14.3838 22.6947 15.1174 24.4619 16.4439 25.7885C17.7705 27.1174 19.5354 27.8486 21.415 27.8486C22.9854 27.8486 24.476 27.3377 25.6971 26.3955L31.7838 32.4799C31.8016 32.4977 31.8228 32.5119 31.8462 32.5216C31.8695 32.5312 31.8945 32.5362 31.9197 32.5362C31.945 32.5362 31.97 32.5312 31.9933 32.5216C32.0166 32.5119 32.0378 32.4977 32.0557 32.4799L33.0775 31.4604C33.0954 31.4425 33.1096 31.4213 33.1192 31.398C33.1289 31.3747 33.1339 31.3497 33.1339 31.3244C33.1339 31.2992 33.1289 31.2742 33.1192 31.2508C33.1096 31.2275 33.0954 31.2063 33.0775 31.1885ZM25.1275 24.5299C24.1338 25.5213 22.8166 26.0674 21.415 26.0674C20.0135 26.0674 18.6963 25.5213 17.7025 24.5299C16.7111 23.5361 16.165 22.2189 16.165 20.8174C16.165 19.4158 16.7111 18.0963 17.7025 17.1049C18.6963 16.1135 20.0135 15.5674 21.415 15.5674C22.8166 15.5674 24.1361 16.1111 25.1275 17.1049C26.1189 18.0986 26.665 19.4158 26.665 20.8174C26.665 22.2189 26.1189 23.5385 25.1275 24.5299Z" fill="#2B68DE"/>
</svg>
