<svg width="49" height="49" viewBox="0 0 49 49" fill="none" xmlns="http://www.w3.org/2000/svg">
<rect x="0.632324" y="0.219727" width="48" height="48" rx="24" fill="#D8EDFF"/>
<path fill-rule="evenodd" clip-rule="evenodd" d="M27.7219 24.3335C27.584 23.9435 27.3286 23.6059 26.9908 23.3671C26.6531 23.1282 26.2496 23 25.8359 23V22.5H24.8359V23C24.3055 23 23.7968 23.2107 23.4217 23.5858C23.0467 23.9609 22.8359 24.4696 22.8359 25C22.8359 25.5304 23.0467 26.0391 23.4217 26.4142C23.7968 26.7893 24.3055 27 24.8359 27V29C24.4009 29 24.0304 28.7225 23.8924 28.3335C23.872 28.2699 23.8389 28.211 23.7953 28.1603C23.7517 28.1097 23.6983 28.0683 23.6384 28.0386C23.5785 28.0089 23.5133 27.9916 23.4465 27.9875C23.3798 27.9835 23.3129 27.9929 23.2499 28.0152C23.1869 28.0375 23.1289 28.0721 23.0795 28.1172C23.0301 28.1622 22.9903 28.2167 22.9623 28.2775C22.9343 28.3382 22.9188 28.4039 22.9167 28.4707C22.9146 28.5376 22.9259 28.6041 22.9499 28.6665C23.0879 29.0565 23.3433 29.3941 23.681 29.6329C24.0188 29.8718 24.4223 30 24.8359 30V30.5H25.8359V30C26.3664 30 26.8751 29.7893 27.2502 29.4142C27.6252 29.0391 27.8359 28.5304 27.8359 28C27.8359 27.4696 27.6252 26.9609 27.2502 26.5858C26.8751 26.2107 26.3664 26 25.8359 26V24C26.0427 23.9999 26.2445 24.064 26.4134 24.1834C26.5822 24.3027 26.71 24.4715 26.7789 24.6665C26.8231 24.7915 26.9151 24.8939 27.0348 24.9511C27.094 24.9795 27.1583 24.9958 27.2238 24.9993C27.2894 25.0028 27.355 24.9934 27.4169 24.9715C27.4789 24.9496 27.5359 24.9158 27.5847 24.8719C27.6335 24.828 27.6732 24.7749 27.7016 24.7157C27.7299 24.6564 27.7463 24.5922 27.7498 24.5266C27.7533 24.461 27.7438 24.3954 27.7219 24.3335V24.3335ZM24.8359 24C24.5707 24 24.3164 24.1054 24.1288 24.2929C23.9413 24.4804 23.8359 24.7348 23.8359 25C23.8359 25.2652 23.9413 25.5196 24.1288 25.7071C24.3164 25.8946 24.5707 26 24.8359 26V24ZM25.8359 29C26.1012 29 26.3555 28.8946 26.543 28.7071C26.7306 28.5196 26.8359 28.2652 26.8359 28C26.8359 27.7348 26.7306 27.4804 26.543 27.2929C26.3555 27.1054 26.1012 27 25.8359 27V29Z" fill="#2B68DE"/>
<path fill-rule="evenodd" clip-rule="evenodd" d="M27.7219 24.3335C27.7438 24.3954 27.7532 24.461 27.7497 24.5266C27.7462 24.5922 27.7298 24.6564 27.7015 24.7157C27.6732 24.7749 27.6335 24.828 27.5847 24.8719C27.5358 24.9158 27.4788 24.9496 27.4169 24.9715C27.355 24.9934 27.2894 25.0028 27.2238 24.9993C27.1582 24.9958 27.094 24.9795 27.0347 24.9511C26.9151 24.8939 26.823 24.7916 26.7789 24.6665C26.7099 24.4715 26.5822 24.3028 26.4133 24.1834C26.328 24.1231 26.2344 24.0769 26.1359 24.046C26.0395 24.0157 25.9386 24 25.8364 24C25.8362 24 25.8366 24 25.8364 24L25.8359 26C26.3663 26 26.875 26.2107 27.2501 26.5858C27.6252 26.9609 27.8359 27.4696 27.8359 28C27.8359 28.5304 27.6252 29.0392 27.2501 29.4142C26.875 29.7893 26.3663 30 25.8359 30V30.5H24.8359V30C24.4222 30 24.0187 29.8718 23.681 29.633C23.3432 29.3941 23.0878 29.0565 22.9499 28.6665C22.9258 28.6041 22.9145 28.5376 22.9167 28.4707C22.9188 28.4039 22.9343 28.3382 22.9623 28.2775C22.9902 28.2168 23.0301 28.1623 23.0795 28.1172C23.1289 28.0722 23.1868 28.0375 23.2498 28.0152C23.3129 27.9929 23.3797 27.9835 23.4465 27.9875C23.5132 27.9916 23.5785 28.0089 23.6384 28.0386C23.6983 28.0683 23.7516 28.1097 23.7953 28.1603C23.8389 28.211 23.8719 28.2699 23.8924 28.3335C23.9972 28.6291 24.2363 28.8603 24.5359 28.9543C24.6306 28.984 24.7314 29 24.8359 29V27C24.3055 27 23.7967 26.7893 23.4217 26.4142C23.0466 26.0392 22.8359 25.5304 22.8359 25C22.8359 24.4696 23.0466 23.9609 23.4217 23.5858C23.7967 23.2107 24.3055 23 24.8359 23V22.5H25.8359V23C26.2495 23 26.653 23.1283 26.9908 23.3671C27.3285 23.6059 27.584 23.9435 27.7219 24.3335ZM26.1359 22.7197C26.5047 22.7682 26.8578 22.9056 27.164 23.1221C27.5524 23.3967 27.8461 23.785 28.0047 24.2335C28.0397 24.3326 28.0549 24.4377 28.0493 24.5426C28.0437 24.6475 28.0175 24.7503 27.9722 24.8451C27.9269 24.9399 27.8633 25.0248 27.7852 25.095C27.7071 25.1653 27.6159 25.2194 27.5168 25.2544C27.4177 25.2894 27.3127 25.3045 27.2078 25.2989C27.1029 25.2933 27.0001 25.2671 26.9053 25.2218C26.7139 25.1303 26.5667 24.9665 26.496 24.7664C26.496 24.7664 26.496 24.7665 26.496 24.7664M26.1359 22.7197V22.2H24.5359V22.7197C24.0366 22.7853 23.5695 23.0137 23.2095 23.3737C22.7782 23.805 22.5359 24.39 22.5359 25C22.5359 25.61 22.7782 26.195 23.2095 26.6264C23.5695 26.9864 24.0366 27.2147 24.5359 27.2804V28.6327C24.3699 28.554 24.2395 28.4117 24.1763 28.2365C24.1434 28.1367 24.0912 28.0442 24.0226 27.9645C23.9527 27.8835 23.8674 27.8173 23.7715 27.7698C23.6757 27.7223 23.5713 27.6945 23.4645 27.6881C23.3577 27.6817 23.2508 27.6967 23.1499 27.7323C23.049 27.768 22.9564 27.8235 22.8773 27.8955C22.7983 27.9676 22.7345 28.0548 22.6898 28.152C22.645 28.2491 22.6202 28.3543 22.6168 28.4612C22.6135 28.5666 22.631 28.6716 22.6683 28.7702C22.8272 29.2171 23.1204 29.604 23.5078 29.8779C23.814 30.0944 24.1671 30.2319 24.5359 30.2804V30.8H26.1359V30.2804C26.6352 30.2147 27.1022 29.9864 27.4622 29.6264C27.8936 29.195 28.1359 28.61 28.1359 28C28.1359 27.39 27.8936 26.805 27.4622 26.3737C27.1022 26.0137 26.6352 25.7853 26.1359 25.7197V24.3674C26.1722 24.3846 26.2071 24.405 26.2402 24.4284C26.3583 24.5119 26.4477 24.63 26.496 24.7664M24.5359 24.3676C24.4642 24.4016 24.3981 24.4478 24.3409 24.505C24.2096 24.6363 24.1359 24.8144 24.1359 25C24.1359 25.1857 24.2096 25.3637 24.3409 25.495C24.3981 25.5522 24.4642 25.5985 24.5359 25.6325V24.3676ZM24.5359 24.0461C24.3837 24.0939 24.2437 24.178 24.1288 24.2929C23.9412 24.4804 23.8359 24.7348 23.8359 25C23.8359 25.2652 23.9412 25.5196 24.1288 25.7071C24.2437 25.822 24.3837 25.9061 24.5359 25.954C24.6321 25.9842 24.7332 26 24.8359 26V24C24.7332 24 24.6321 24.0158 24.5359 24.0461ZM26.1359 28.6325C26.2076 28.5985 26.2737 28.5522 26.3309 28.495C26.4621 28.3637 26.5359 28.1857 26.5359 28C26.5359 27.8144 26.4621 27.6363 26.3309 27.505C26.2737 27.4478 26.2076 27.4016 26.1359 27.3676V28.6325ZM26.1359 28.954C26.2881 28.9061 26.4281 28.822 26.543 28.7071C26.7305 28.5196 26.8359 28.2652 26.8359 28C26.8359 27.7348 26.7305 27.4804 26.543 27.2929C26.4281 27.178 26.2881 27.0939 26.1359 27.0461C26.0397 27.0158 25.9386 27 25.8359 27V29C25.9386 29 26.0397 28.9842 26.1359 28.954Z" fill="#2B68DE"/>
<path fill-rule="evenodd" clip-rule="evenodd" d="M19.9124 16.3105C21.1394 15.71 23.1524 15 25.3554 15C27.5124 15 29.4724 15.6805 30.6929 16.273L30.7619 16.3065C31.1299 16.4885 31.4269 16.6605 31.6359 16.8L29.7889 19.5C34.0469 23.853 37.3359 32.9985 25.3554 32.9985C13.3749 32.9985 16.5754 24.019 20.8704 19.5L19.0354 16.8C19.1769 16.7075 19.3564 16.6 19.5704 16.486C19.6764 16.429 19.7904 16.3705 19.9124 16.311V16.3105ZM28.6019 19.464L30.0804 17.3025C28.7054 17.4015 27.0694 17.7245 25.4944 18.1805C24.3694 18.5055 23.1194 18.456 21.9619 18.2425C21.6702 18.1884 21.3806 18.1241 21.0934 18.0495L22.0534 19.463C24.1109 20.1955 26.5439 20.1955 28.6019 19.464V19.464ZM21.4759 20.315C23.8834 21.245 26.7769 21.245 29.1844 20.314C30.1894 21.3733 31.03 22.5772 31.6784 23.8855C32.3544 25.2645 32.7224 26.643 32.6624 27.831C32.6044 28.9775 32.1534 29.957 31.1234 30.685C30.0499 31.4435 28.2444 31.9985 25.3549 31.9985C22.4624 31.9985 20.6484 31.453 19.5649 30.703C18.5274 29.984 18.0719 29.018 18.0074 27.887C17.9399 26.712 18.2999 25.3405 18.9734 23.952C19.6159 22.628 20.5124 21.3535 21.4759 20.315V20.315ZM20.9009 16.958C21.3009 17.077 21.7189 17.1805 22.1429 17.259C23.2179 17.457 24.2959 17.486 25.2159 17.2195C26.288 16.9072 27.3785 16.6615 28.4809 16.484C27.5609 16.207 26.4849 16 25.3549 16C23.6324 16 22.0259 16.4805 20.9009 16.958V16.958Z" fill="#2B68DE"/>
<path fill-rule="evenodd" clip-rule="evenodd" d="M19.6124 16.1233L19.7805 16.0411C21.0338 15.4277 23.0927 14.7 25.3554 14.7C27.5712 14.7 29.5767 15.3977 30.8239 16.0031L30.8949 16.0376C31.2718 16.224 31.5804 16.4023 31.8024 16.5505L32.0548 16.7189L30.1742 19.468C31.1961 20.5495 32.1508 21.8931 32.8467 23.3136C33.5798 24.8102 34.0362 26.4134 33.9612 27.8968C33.8856 29.3927 33.2682 30.7618 31.8743 31.7465C30.4936 32.722 28.3821 33.2985 25.3554 33.2985C22.3294 33.2985 20.2135 32.7326 18.8255 31.7715C17.424 30.8009 16.795 29.4479 16.7101 27.961C16.6258 26.4872 17.0747 24.8887 17.8045 23.3846C18.4988 21.9539 19.4565 20.5892 20.4874 19.4702L18.6156 16.716L18.8712 16.5489C19.0205 16.4513 19.2076 16.3394 19.4288 16.2215C19.429 16.2214 19.4286 16.2216 19.4288 16.2215L19.5704 16.486M19.9124 16.311C21.1394 15.7105 23.1524 15 25.3554 15C27.5124 15 29.4724 15.6805 30.6929 16.273L30.7619 16.3065C30.9996 16.4241 31.2076 16.5374 31.3815 16.6406C31.4768 16.6971 31.5619 16.7506 31.6359 16.8L29.7889 19.5C34.0469 23.853 37.3359 32.9985 25.3554 32.9985C13.3749 32.9985 16.5754 24.019 20.8704 19.5L19.0354 16.8C19.1101 16.7512 19.1954 16.6981 19.2908 16.6422M19.6124 16.1233V16.1254ZM28.6019 19.464L30.0804 17.3025C29.9538 17.3116 29.8251 17.3226 29.6944 17.3355C28.4048 17.4621 26.9244 17.7665 25.4944 18.1805C24.3694 18.5055 23.1194 18.456 21.9619 18.2425C21.8164 18.2155 21.6714 18.186 21.5269 18.1539C21.3818 18.1217 21.2373 18.0869 21.0934 18.0495L22.0534 19.463C24.1109 20.1955 26.5439 20.1955 28.6019 19.464ZM22.2459 19.2125C24.1882 19.8791 26.4671 19.879 28.4099 19.2133L29.4719 17.6608C28.2652 17.7983 26.902 18.0853 25.5778 18.4687C24.3914 18.8114 23.09 18.7556 21.9075 18.5375C21.8615 18.529 21.8154 18.5202 21.7696 18.5112L22.2459 19.2125ZM18.0074 27.887C18.0719 29.018 18.5274 29.984 19.5649 30.703C20.6484 31.453 22.4624 31.9985 25.3549 31.9985C28.2444 31.9985 30.0499 31.4435 31.1234 30.685C32.1534 29.957 32.6044 28.9775 32.6624 27.831C32.7224 26.643 32.3544 25.2645 31.6784 23.8855C31.03 22.5772 30.1893 21.3734 29.1844 20.314C26.7769 21.245 23.8834 21.245 21.4759 20.315C20.5124 21.3535 19.6159 22.628 18.9734 23.952C18.2999 25.3405 17.9399 26.712 18.0074 27.887ZM19.2433 24.083C18.5827 25.4448 18.2434 26.7638 18.3069 27.8698C18.3667 28.9185 18.782 29.7954 19.7358 30.4564C20.749 31.1577 22.4934 31.6985 25.3549 31.6985C28.2128 31.6985 29.9476 31.1485 30.9503 30.44C31.8965 29.7712 32.3089 28.8814 32.3628 27.8159C32.4193 26.6961 32.0718 25.3697 31.4092 24.018C30.8035 22.796 30.0266 21.6671 29.1022 20.6652C26.7288 21.5277 23.934 21.528 21.5605 20.667C20.6673 21.6574 19.8418 22.8497 19.2433 24.083ZM21.3752 17.0893C21.6271 17.1538 21.8838 17.2111 22.1429 17.259C23.2179 17.457 24.2959 17.486 25.2159 17.2195C26.062 16.973 26.9195 16.7681 27.7854 16.6053C28.0167 16.5619 28.2485 16.5214 28.4809 16.484C28.2602 16.4176 28.0306 16.3552 27.7934 16.2987C27.0416 16.1196 26.2138 16 25.3549 16C23.8538 16 22.4407 16.3649 21.3577 16.7748C21.198 16.8352 21.0455 16.8966 20.9009 16.958C21.0565 17.0043 21.2149 17.0483 21.3752 17.0893ZM21.8908 16.9026C21.9926 16.9245 22.0949 16.945 22.1974 16.964C23.2475 17.1574 24.2739 17.18 25.1322 16.9314C25.762 16.7479 26.3981 16.5872 27.0392 16.4496C26.5011 16.3563 25.9347 16.3 25.3549 16.3C24.0876 16.3 22.8805 16.5688 21.8908 16.9026Z" fill="#2B68DE"/>
</svg>
