<svg width="42" height="42" viewBox="0 0 42 42" fill="none" xmlns="http://www.w3.org/2000/svg">
<rect width="36" height="36" transform="translate(0.425781 0.161133)" fill="white"/>
<path d="M19.6513 12.9793V23.1611H18.4183V14.7691H18.3388C18.2924 14.8619 18.1731 14.968 17.9808 15.0873C17.7886 15.2033 17.54 15.306 17.2351 15.3955C16.9302 15.4817 16.5821 15.5248 16.1911 15.5248V14.4907C16.5855 14.4907 16.9268 14.4194 17.2152 14.2769C17.5036 14.1344 17.7438 13.967 17.9361 13.7748C18.1316 13.5825 18.2791 13.4085 18.3786 13.2528C18.4813 13.097 18.541 13.0058 18.5575 12.9793H19.6513Z" fill="white"/>
<rect width="36" height="36" transform="translate(5.42578 5.16113)" fill="#D8EDFF"/>
<path d="M31.4102 13.9888H29.4102V12.9888C29.4102 12.7236 29.3048 12.4692 29.1173 12.2817C28.9297 12.0941 28.6754 11.9888 28.4102 11.9888C28.1449 11.9888 27.8906 12.0941 27.703 12.2817C27.5155 12.4692 27.4102 12.7236 27.4102 12.9888V13.9888H21.4102V12.9888C21.4102 12.7236 21.3048 12.4692 21.1173 12.2817C20.9297 12.0941 20.6754 11.9888 20.4102 11.9888C20.1449 11.9888 19.8906 12.0941 19.703 12.2817C19.5155 12.4692 19.4102 12.7236 19.4102 12.9888V13.9888H17.4102C16.6145 13.9888 15.8514 14.3048 15.2888 14.8674C14.7262 15.4301 14.4102 16.1931 14.4102 16.9888V28.9888C14.4102 29.7844 14.7262 30.5475 15.2888 31.1101C15.8514 31.6727 16.6145 31.9888 17.4102 31.9888H31.4102C32.2058 31.9888 32.9689 31.6727 33.5315 31.1101C34.0941 30.5475 34.4102 29.7844 34.4102 28.9888V16.9888C34.4102 16.1931 34.0941 15.4301 33.5315 14.8674C32.9689 14.3048 32.2058 13.9888 31.4102 13.9888ZM32.4102 28.9888C32.4102 29.254 32.3048 29.5083 32.1173 29.6959C31.9297 29.8834 31.6754 29.9888 31.4102 29.9888H17.4102C17.1449 29.9888 16.8906 29.8834 16.703 29.6959C16.5155 29.5083 16.4102 29.254 16.4102 28.9888V21.9888H32.4102V28.9888ZM32.4102 19.9888H16.4102V16.9888C16.4102 16.7236 16.5155 16.4692 16.703 16.2817C16.8906 16.0941 17.1449 15.9888 17.4102 15.9888H19.4102V16.9888C19.4102 17.254 19.5155 17.5083 19.703 17.6959C19.8906 17.8834 20.1449 17.9888 20.4102 17.9888C20.6754 17.9888 20.9297 17.8834 21.1173 17.6959C21.3048 17.5083 21.4102 17.254 21.4102 16.9888V15.9888H27.4102V16.9888C27.4102 17.254 27.5155 17.5083 27.703 17.6959C27.8906 17.8834 28.1449 17.9888 28.4102 17.9888C28.6754 17.9888 28.9297 17.8834 29.1173 17.6959C29.3048 17.5083 29.4102 17.254 29.4102 16.9888V15.9888H31.4102C31.6754 15.9888 31.9297 16.0941 32.1173 16.2817C32.3048 16.4692 32.4102 16.7236 32.4102 16.9888V19.9888Z" fill="#2B68DE"/>
</svg>
