<svg width="49" height="49" viewBox="0 0 49 49" fill="none" xmlns="http://www.w3.org/2000/svg">
<rect x="0.632324" y="0.219727" width="48" height="48" rx="24" fill="#D8EDFF"/>
<path d="M21.9 14.9C19.9 16.9 19 18.8 19 21C19 25.3 23.7 30 28 30C32.3 30 37 25.3 37 21C37 16.7 32.3 12 28 12C25.8 12 23.9 12.9 21.9 14.9ZM33.4 16C37.5 20 34.9 27 28.8 28.5C26.6 29.1 25.5 28.6 23 26.2C19.6 22.8 19.3 20.5 21.6 17.2C24.7 12.8 29.5 12.3 33.4 16Z" fill="#2B68DE"/>
<path d="M27 19.5C27 21.5 27.5 22 29.5 22C30.9 22 32 21.5 32 21C32 20.4 30.3 20.3988 29.5 20.3988C28.7 20.3988 28.5625 19.8863 28.5625 19.0863C28.5625 18.2863 28.6 17 28 17C27.5 17 27 18.1 27 19.5Z" fill="#2B68DE"/>
<path d="M14.4999 23C13.4999 24.1 13.1999 25 13.6999 25C14.9999 25 17.4999 22.1 16.7999 21.5C16.4999 21.2 15.4999 21.9 14.4999 23Z" fill="#2B68DE"/>
<path d="M15.4998 27C14.4998 28.1 13.8998 29.2 14.1998 29.5C14.4998 29.8 15.4998 29.1 16.4998 28C17.4998 26.9 18.0998 25.8 17.7998 25.5C17.4998 25.2 16.4998 25.9 15.4998 27Z" fill="#2B68DE"/>
<path d="M16.9998 31.5C15.6998 32.9 15.0998 34 15.6998 34C16.8998 34 20.4998 30.2 19.7998 29.5C19.5998 29.2 18.2998 30.1 16.9998 31.5Z" fill="#2B68DE"/>
<path d="M20.4999 33C19.4999 34.1 19.0999 35 19.6999 35C20.1999 35 21.4999 34.1 22.4999 33C23.4999 31.9 23.8999 31 23.2999 31C22.7999 31 21.4999 31.9 20.4999 33Z" fill="#2B68DE"/>
<path d="M25 33.5C23 35.9 24.4 36.3 26.5 34C27.5 32.9 27.8 32 27.3 32C26.7 32 25.7 32.7 25 33.5Z" fill="#2B68DE"/>
</svg>
