<svg width="42" height="42" viewBox="0 0 42 42" fill="none" xmlns="http://www.w3.org/2000/svg">
<rect width="36" height="36" transform="translate(0.0927734 0.161133)" fill="white"/>
<path d="M19.3183 12.9793V23.1611H18.0853V14.7691H18.0058C17.9594 14.8619 17.8401 14.968 17.6478 15.0873C17.4556 15.2033 17.207 15.306 16.9021 15.3955C16.5972 15.4817 16.2491 15.5248 15.858 15.5248V14.4907C16.2525 14.4907 16.5938 14.4194 16.8822 14.2769C17.1705 14.1344 17.4108 13.967 17.6031 13.7748C17.7986 13.5825 17.9461 13.4085 18.0455 13.2528C18.1483 13.097 18.2079 13.0058 18.2245 12.9793H19.3183Z" fill="white"/>
<rect width="36" height="36" transform="translate(5.09277 5.16113)" fill="#D8EDFF"/>
<path d="M29.5126 13.4143L13.2639 22.7855C11.9202 23.5629 12.0491 25.5512 13.4865 26.141L17.951 27.9887V31.2856C17.951 33.0981 20.2633 33.8442 21.3335 32.4028L23.0443 30.0942L27.4151 31.8989C27.6456 31.9926 27.8877 32.0395 28.1299 32.0395C28.4502 32.0395 28.7666 31.9575 29.0517 31.7973C29.5517 31.5161 29.8954 31.0161 29.9852 30.4496L32.3054 15.3245C32.5436 13.7581 30.8641 12.637 29.5126 13.4143ZM19.8258 31.2856V28.7621L21.2554 29.352L19.8258 31.2856ZM28.1299 30.1645L22.1225 27.684L27.5987 19.7816C28.0166 19.1761 27.2276 18.473 26.673 18.9534L18.4119 26.1527L14.2013 24.4105L30.45 15.0354L28.1299 30.1645Z" fill="#2B68DE"/>
</svg>
