<svg width="49" height="49" viewBox="0 0 49 49" fill="none" xmlns="http://www.w3.org/2000/svg">
<rect x="0.5" y="0.98877" width="48" height="48" rx="24" fill="#D8EDFF"/>
<path fill-rule="evenodd" clip-rule="evenodd" d="M29.0769 23.4232H34.1001C34.781 23.4232 35.3387 23.9635 35.3387 24.6231V29.5419C35.3387 30.2015 34.781 30.7418 34.1001 30.7418H29.0769C26.9999 30.7418 25.2996 29.0946 25.2996 27.0825C25.3014 25.0687 26.9981 23.4232 29.0769 23.4232ZM23.3819 16.5712L24.204 17.3237L25.9841 15.5748C26.1416 15.4204 26.2394 15.2976 26.4332 15.4888L27.0597 16.1116C27.2661 16.308 27.2553 16.4238 27.0615 16.608L24.5626 18.892C24.1533 19.2815 24.224 19.3043 23.8093 18.9061L22.328 17.5746C22.2411 17.4834 22.2502 17.3922 22.3461 17.3009L23.0741 16.5694C23.1809 16.4589 23.2678 16.4659 23.3819 16.5712ZM17.198 17.6448H20.4031C20.3977 17.5571 20.3941 17.4693 20.3941 17.3799C20.3959 14.9836 22.4005 13.0399 24.8759 13.0399C27.3494 13.0399 29.3558 14.9836 29.3558 17.3799C29.3558 17.4676 29.3522 17.5553 29.3486 17.643L30.5274 17.6413C31.7316 17.6395 32.7167 18.5535 32.7167 19.72V20.0674C33.3106 20.448 33.7036 21.1006 33.7036 21.8374V22.6022H32.3129V22.0917C32.3129 21.5427 31.8493 21.0953 31.2843 21.0953H18.4909V19.9849C18.4909 19.8376 18.6159 19.7165 18.768 19.7165H21.1003C20.9464 19.485 20.816 19.2376 20.7092 18.978H17.5076C17.1093 18.978 16.7851 19.2937 16.7851 19.6779V32.4189C16.7851 32.8048 17.1111 33.1188 17.5076 33.1188H31.5777C31.9761 33.1188 32.3002 32.8031 32.3002 32.4189V31.6172H33.7271V32.9416H33.7235C33.7181 33.8573 32.7094 34.5959 31.7135 34.5959H17.1926C16.1024 34.5941 15.2097 33.7293 15.2097 32.6732V19.5709C15.2097 18.5114 16.1043 17.6448 17.198 17.6448ZM29.0407 18.9762C28.9339 19.2359 28.8035 19.4832 28.6496 19.7148H31.5107C31.5904 19.7148 31.6682 19.7183 31.7461 19.727V19.6762C31.7461 19.2902 31.4201 18.9762 31.0236 18.9762H29.0407ZM29.2671 24.7634H33.7235V29.4016H29.2671C27.9506 29.4016 26.8732 28.3578 26.8732 27.0825C26.8732 25.8054 27.9506 24.7634 29.2671 24.7634ZM30.3626 26.3142C30.8135 26.3142 31.1793 26.6685 31.1793 27.1053C31.1793 27.5421 30.8135 27.8965 30.3626 27.8965C29.9117 27.8965 29.5459 27.5421 29.5459 27.1053C29.5459 26.6685 29.9117 26.3142 30.3626 26.3142Z" fill="#2B68DE"/>
</svg>
