<svg width="49" height="49" viewBox="0 0 49 49" fill="none" xmlns="http://www.w3.org/2000/svg">
<rect x="0.632324" y="0.219727" width="48" height="48" rx="24" fill="#D8EDFF"/>
<path d="M18 13.7663C18 14.4459 18.754 15.5333 19.5079 15.941C20.4127 16.3488 21.0159 16.2129 21.0159 15.3974C21.0159 14.7178 20.4127 13.6304 19.5079 13.2227C18.754 12.8149 18 12.9508 18 13.7663Z" fill="#2B68DE"/>
<path d="M17.6007 18.2722C18.2108 18.6244 19.5027 18.6412 20.1845 18.3057C20.9294 17.8609 21.0599 17.353 20.3278 16.9303C19.7177 16.578 18.4889 16.4519 17.744 16.8967C17.0623 17.2322 16.8686 17.8495 17.6007 18.2722Z" fill="#2B68DE"/>
<path d="M23.9122 14.476C23.096 14.7137 21.9299 15.5741 21.58 16.1968C21.2581 16.9156 21.5332 17.252 22.5127 16.9667C23.3289 16.729 24.5229 15.9646 24.8449 15.2459C25.1948 14.6232 24.8917 14.1907 23.9122 14.476Z" fill="#2B68DE"/>
<path d="M26.4378 18.2637C23.2378 21.4637 22.5378 21.6637 20.8378 20.5637C19.7378 19.8637 18.0378 19.6637 17.1378 19.9637C15.6378 20.5637 15.6378 20.8637 17.0378 23.5637C17.8378 25.2637 18.5378 27.2637 18.5378 28.0637C18.5378 29.5637 24.0378 34.6637 25.5378 34.6637C26.8378 34.6637 33.5378 28.6637 33.5378 27.4637C33.5378 26.9637 32.6378 25.3637 31.5378 23.9637C29.6378 21.5637 29.6378 21.2637 31.1378 19.5637C32.7378 17.8637 32.4378 14.6637 30.8378 14.6637C30.3378 14.6637 28.3378 16.2637 26.4378 18.2637ZM29.2378 19.4637C26.6378 22.1637 26.6378 22.2637 28.5378 23.6637C29.6378 24.4637 30.7378 25.7637 31.0378 26.5637C31.7378 28.3637 27.7378 32.6637 25.3378 32.6637C23.3378 32.6637 20.6378 28.9637 18.9378 23.9637C17.6378 20.2637 18.0378 19.8637 20.7378 22.3637C22.5378 23.9637 22.8378 23.8637 26.3378 20.3637C30.5378 16.0637 33.2378 15.2637 29.2378 19.4637Z" fill="#2B68DE"/>
</svg>
