<svg width="49" height="49" viewBox="0 0 49 49" fill="none" xmlns="http://www.w3.org/2000/svg">
<rect x="0.632324" y="0.219727" width="48" height="48" rx="24" fill="#D8EDFF"/>
<path d="M16.808 14.83C13.508 17.63 13.408 17.83 15.008 19.63C16.108 20.83 17.108 24.43 17.608 28.93C18.008 35.83 19.508 37.43 19.608 35.83C19.708 33.53 19.108 30.83 21.608 30.83C24.108 30.83 23.908 33.63 24.308 35.83L25.408 36.33L25.608 33.53C25.708 30.13 27.708 29.93 27.708 33.33C27.708 35.13 28.208 35.83 29.708 35.83C31.208 35.83 31.708 35.13 31.708 33.13C31.708 30.53 31.808 30.53 33.108 32.43C34.408 34.13 34.708 34.13 36.108 32.83C37.508 31.43 37.408 30.93 34.608 27.53C32.708 25.23 30.708 23.83 29.208 23.83C26.208 23.83 25.308 20.53 27.808 18.23C30.708 15.63 30.108 14.03 26.008 12.93C20.908 11.43 20.708 11.53 16.808 14.83ZM22.708 16.23C21.408 17.53 19.208 15.53 20.208 13.83C20.708 13.03 21.308 13.03 22.308 13.93C23.308 14.73 23.508 15.43 22.708 16.23ZM26.708 17.33C25.308 18.83 24.608 20.43 25.008 21.83C25.408 23.43 25.008 23.83 23.108 23.83C21.408 23.83 20.708 23.23 20.708 21.93C20.708 20.73 19.808 19.83 18.208 19.43C16.808 19.03 15.708 18.43 15.708 17.93C15.708 16.63 18.508 15.73 19.208 16.83C20.208 18.33 23.708 18.03 24.308 16.33C24.708 15.53 25.808 14.83 27.008 14.83C29.008 14.83 29.008 14.83 26.708 17.33ZM19.908 24.33C20.208 25.73 20.008 26.83 19.608 26.83C19.108 26.83 18.708 26.53 18.708 26.03C18.708 25.63 18.408 24.23 18.008 22.93C17.608 21.33 17.808 20.73 18.408 21.13C19.008 21.53 19.708 22.93 19.908 24.33ZM33.608 28.53C34.808 29.93 35.508 31.33 35.208 31.63C35.008 31.93 33.808 30.93 32.708 29.53C31.208 27.63 29.508 26.83 26.408 26.53H22.308L22.708 25.4788C26.708 25.2788 31.908 26.23 33.608 28.53ZM24.708 28.83C24.708 29.33 23.608 29.83 22.308 29.83C20.908 29.83 19.508 29.33 19.208 28.83C18.808 28.23 19.908 27.83 21.608 27.83C23.308 27.83 24.708 28.23 24.708 28.83ZM29.408 33.03C29.208 34.33 29.008 33.53 29.008 31.33C28.908 29.13 29.108 28.13 29.408 29.03C29.608 30.03 29.608 31.83 29.408 33.03Z" fill="#2B68DE"/>
</svg>
