<svg width="49" height="49" viewBox="0 0 49 49" fill="none" xmlns="http://www.w3.org/2000/svg">
<circle cx="24.5859" cy="24.936" r="24" fill="#EBF6FF"/>
<path d="M40.1756 15.4084C25.937 18.6112 22.6016 29.9303 21.8018 34.808C21.8018 34.7865 21.8018 34.7686 21.8269 34.747C22.0528 34.2413 22.3433 33.7177 22.6267 33.151C22.91 32.5844 23.2471 32.0105 23.6201 31.4295C23.7995 31.1354 23.9788 30.8377 24.1725 30.54C24.3661 30.2423 24.5741 29.9483 24.775 29.6506C25.1695 29.048 25.6214 28.4706 26.0661 27.8896L26.3997 27.4592L26.7583 27.0396L27.4757 26.2147C27.7016 25.9385 27.9527 25.6839 28.193 25.4292L28.9103 24.676C29.1398 24.425 29.3873 24.199 29.6276 23.9587L30.3449 23.3024C30.7896 22.8684 31.2594 22.5062 31.6791 22.1619C32.0987 21.8176 32.4717 21.4876 32.8375 21.2366L33.7664 20.5766L34.577 19.9992L33.7951 20.6448L32.9236 21.3621C32.5649 21.6383 32.2422 22.0005 31.8476 22.3663C31.4531 22.7321 31.0156 23.1554 30.6067 23.618L29.9647 24.3138C29.7459 24.5505 29.52 24.7908 29.312 25.0598L28.6664 25.8488C28.4476 26.1178 28.2217 26.3832 28.0208 26.6737L27.4003 27.5345L27.0847 27.9649L26.7942 28.4168C26.4069 29.0122 26.0159 29.6075 25.6752 30.2101C25.5031 30.5149 25.3166 30.8126 25.1623 31.1139L24.6925 32.0141C24.3805 32.6023 24.133 33.1977 23.8712 33.7464C23.6094 34.2951 23.4014 34.8223 23.2256 35.3316C23.1503 35.5289 23.0821 35.7154 23.0176 35.8983C26.6041 33.6209 31.385 34.1373 34.9643 31.5407C36.4139 30.4792 37.5412 29.0369 38.2211 27.3738C38.9011 25.7108 39.107 23.8919 38.8163 22.1189C38.038 16.9327 40.1756 15.4084 40.1756 15.4084Z" fill="#08C07C"/>
<path d="M16.2212 19.3752C16.2212 19.3752 11.3363 17.3918 11.3363 15.4084C11.3363 15.4084 6.31519 32.8247 19.944 35.4285C19.8041 34.7972 19.6643 34.1373 19.4921 33.4774C19.32 32.8175 19.1335 32.1181 18.9183 31.451L18.5955 30.4432C18.4879 30.1096 18.3552 29.7833 18.2368 29.4569C18.1185 29.1305 17.9965 28.8077 17.8782 28.4849L17.4729 27.5596L17.082 26.663C16.9349 26.3797 16.795 26.0999 16.6552 25.8309C16.379 25.2858 16.1208 24.755 15.8338 24.3174L15.0843 23.0693L14.4279 22.1511L13.8684 21.3621L14.4961 22.1189L15.2134 22.9868L16.067 24.1811C16.3898 24.6115 16.691 25.1136 17.0138 25.6408L17.5088 26.4514C17.663 26.7383 17.8208 27.0288 17.9786 27.3265C18.1364 27.6242 18.3014 27.9254 18.4628 28.2339L18.9111 29.1879C19.0546 29.5107 19.2195 29.8335 19.3558 30.1634C19.4921 30.4934 19.6248 30.8305 19.7611 31.1677C20.048 31.8312 20.2668 32.5198 20.5143 33.1869C20.6649 33.628 20.8012 34.0692 20.9339 34.5031C21.705 31.4044 23.2544 22.3878 16.2212 19.3752Z" fill="#08C07C"/>
</svg>
