<svg width="141" height="34" viewBox="0 0 141 34" fill="none" xmlns="http://www.w3.org/2000/svg">
<g clip-path="url(#clip0_1_12418)">
<path d="M98.2091 9.15005C99.6286 9.15005 101.048 9.12222 102.468 9.15005C103.93 9.18658 104.592 9.82326 104.832 11.2793C104.961 11.9623 105.008 12.6586 104.971 13.3528C104.913 14.1113 104.633 14.7862 103.986 15.2002C103.436 15.5481 103.393 15.8961 103.75 16.3918C103.924 16.6458 104.016 16.9642 104.176 17.2338C104.548 17.867 104.296 18.361 103.546 18.3332C102.85 18.3071 102.285 18.0462 101.967 17.3295C101.271 15.7639 100.69 15.5012 98.9623 15.6577C98.0734 15.7395 97.1706 15.6856 96.2747 15.6943C95.0413 15.7082 94.97 15.7812 94.9439 17.0372C94.923 18.0809 94.756 18.2236 93.8184 18.2271C93.0878 18.2271 92.8025 17.8391 92.8582 17.1955C92.9315 16.0117 92.9414 14.8247 92.8878 13.6399C92.8878 13.2693 92.7782 12.6866 93.3801 12.7422C93.9158 12.7909 94.81 12.1456 94.9196 13.3476C94.9631 13.8382 95.3075 13.9147 95.7267 13.913C97.6402 13.9043 99.5538 13.913 101.467 13.9043C102.445 13.9043 102.847 13.452 102.859 12.4378C102.871 11.4237 102.441 10.8583 101.467 10.8409C99.7016 10.8061 97.9325 10.827 96.1668 10.827C95.3545 10.827 94.5438 10.827 93.7314 10.827C93.1174 10.827 92.8234 10.5556 92.8356 9.93285C92.8477 9.31009 93.1713 9.07177 93.7715 9.07699C95.2483 9.0909 96.7287 9.07699 98.2021 9.07699L98.2091 9.15005Z" fill="white"/>
<path d="M69.5303 9.13626C70.922 9.13626 72.3136 9.11713 73.7053 9.13626C75.3022 9.16583 75.9893 9.73641 76.2137 11.3055C76.316 12.0795 76.3306 12.8627 76.2572 13.64C76.1528 14.8577 75.4466 15.4944 74.1193 15.5935C72.0693 15.7431 70.0119 15.7623 67.9595 15.6509C66.5522 15.5761 66.3086 15.7901 66.3695 17.1626C66.3991 17.8306 66.1799 18.2063 65.451 18.2185C64.7709 18.2272 64.2473 18.1454 64.2768 17.2548C64.3186 16.0127 64.2855 14.7672 64.289 13.5252C64.289 13.1286 64.3342 12.5754 64.8561 12.5754C65.378 12.5754 66.1677 12.2501 66.3086 13.2712C66.3835 13.7931 66.674 13.9322 67.1384 13.9305C69.0763 13.9305 71.0176 13.9479 72.9555 13.9166C73.9001 13.9009 74.1923 13.5008 74.1923 12.4275C74.1923 11.3107 73.867 10.8706 72.9259 10.8619C70.407 10.8393 67.8812 10.8619 65.371 10.8462C64.9396 10.8462 64.4734 10.8741 64.296 10.3244C64.0437 9.55202 64.3743 9.10669 65.1953 9.10669H69.5442L69.5303 9.13626Z" fill="white"/>
<path d="M59.1385 11.2221C58.1173 13.233 57.131 15.157 56.1638 17.0914C55.8368 17.7455 55.468 18.2569 54.6139 18.2343C53.7597 18.2117 53.2222 17.8481 52.8604 17.0792C52.0532 15.3849 51.1817 13.7201 50.3624 12.0345C49.9571 11.1995 49.423 10.6707 48.4019 10.8464C47.8226 10.9473 47.553 10.6202 47.5321 10.0496C47.5078 9.51212 47.6487 9.21466 48.2732 9.12942C50.3606 8.84761 51.1974 9.30337 51.9697 11.2412C52.6551 12.9582 53.5614 14.5621 54.5321 16.3068C55.0348 15.3831 55.4923 14.5673 55.9238 13.7358C56.5378 12.5581 57.1536 11.3804 57.7329 10.1836C58.1191 9.39035 58.6514 8.93633 59.582 9.13986C59.6397 9.14777 59.6978 9.15126 59.756 9.15029C61.5147 9.24597 61.5112 9.24597 61.5112 11.0777C61.5112 13.1043 61.4956 15.1309 61.5338 17.1662C61.5495 17.9594 61.2485 18.2395 60.4623 18.236C59.6499 18.236 59.4046 17.8881 59.4185 17.1244C59.4551 15.4753 59.4377 13.8193 59.4185 12.1754C59.4203 11.8692 59.549 11.5231 59.1385 11.2221Z" fill="white"/>
<path d="M138.794 11.2237C137.764 13.2503 136.76 15.1638 135.817 17.1052C135.447 17.8723 134.958 18.2533 134.078 18.2342C133.198 18.215 132.799 17.7297 132.464 17.0304C131.613 15.263 130.724 13.513 129.868 11.7491C129.52 11.0393 128.984 10.7053 128.189 10.8376C127.645 10.928 127.274 10.7767 127.221 10.1643C127.172 9.61812 127.257 9.24238 127.939 9.12061C129.819 8.80401 130.868 9.32762 131.559 11.0967C132.25 12.8659 133.219 14.508 134.168 16.3154L136.04 12.8154C136.515 11.9248 136.988 11.0324 137.467 10.1417C138.202 8.77096 139.518 8.88055 140.646 9.13105C140.994 9.20585 141.003 9.46852 141.005 9.73293C141.005 12.3423 141.005 14.9394 141.005 17.5436C141.005 18.3351 140.431 18.1594 139.961 18.1942C139.392 18.2342 139.091 18.0411 139.091 17.4235C139.103 15.7466 139.091 14.0697 139.091 12.3927C139.084 12.0378 139.152 11.6517 138.794 11.2237Z" fill="white"/>
<path d="M118.238 18.2081C117.081 18.2081 115.923 18.2324 114.759 18.2081C113.099 18.1646 112.48 17.5331 112.452 15.851C112.419 13.9131 112.419 11.9752 112.416 10.0373C112.416 9.59028 112.301 9.06493 113.056 9.08581C114.434 9.12234 114.447 9.10842 114.447 10.1017C114.447 11.6673 114.447 13.2242 114.458 14.7846C114.475 16.298 114.675 16.4894 116.164 16.4963C117.729 16.5033 119.294 16.5033 120.861 16.4963C122.042 16.4963 122.383 16.1484 122.382 14.9307C122.382 13.3112 122.418 11.6899 122.356 10.0721C122.319 9.14495 122.836 9.14321 123.504 9.11886C124.199 9.09277 124.499 9.32065 124.483 10.0565C124.443 11.8778 124.483 13.7096 124.452 15.5239C124.426 17.3748 123.651 18.1472 121.802 18.2185C121.195 18.2411 120.585 18.2428 119.981 18.2481C119.402 18.2481 118.822 18.2481 118.241 18.2481L118.238 18.2081Z" fill="white"/>
<path d="M84.4902 18.2201C82.9246 18.2201 81.359 18.201 79.7934 18.2201C79.068 18.2323 78.7218 17.9679 78.7392 17.2094C78.767 16.0248 78.7653 14.8384 78.7392 13.6538C78.7235 12.9927 78.9862 12.7092 79.6577 12.7127C82.4955 12.7266 85.3333 12.7266 88.1711 12.7127C88.7434 12.7127 89.0408 12.9336 89.0408 13.5181C89.0408 14.1409 88.7451 14.3879 88.1311 14.3879C86.0749 14.3687 84.0187 14.3983 81.9626 14.36C81.1693 14.3444 80.7606 14.5827 80.7901 15.4351C80.8214 16.3605 81.0093 16.5797 82.0078 16.578C84.3823 16.578 86.7551 16.5554 89.1296 16.5501C89.5314 16.5501 89.9541 16.5171 90.1246 17.0337C90.3612 17.7539 90.0498 18.2097 89.2548 18.2166C87.6788 18.2288 86.0853 18.2201 84.4902 18.2201Z" fill="white"/>
<path d="M82.3305 22.8405C83.2281 22.8405 84.1257 22.8405 85.0233 22.8405C85.3451 22.8405 85.6304 22.9206 85.6061 23.3067C85.5834 23.6425 85.3625 23.7747 85.0111 23.7712C83.6508 23.7573 82.2887 23.7712 80.9284 23.7712C80.5231 23.7712 80.0586 23.7034 80.0343 24.307C80.0116 24.9924 80.5405 24.888 80.9597 24.8897C82.0574 24.8897 83.155 24.881 84.2544 24.8689C84.6023 24.8689 84.9224 24.9071 84.9294 25.342C84.9381 25.8187 84.625 25.8639 84.2336 25.8639C83.0767 25.8378 81.9182 25.8639 80.7544 25.8308C80.3056 25.8221 80.0116 25.923 80.0273 26.4345C80.0429 26.9198 80.3074 27.0572 80.7666 27.0503C82.1583 27.0277 83.5499 27.0363 84.9416 27.0398C85.2512 27.0398 85.6374 26.9685 85.6548 27.4451C85.6704 27.967 85.2825 27.9026 84.9224 27.9148C83.3899 27.9705 81.8556 27.8522 80.323 28.0157C79.2897 28.1271 78.8514 27.713 78.8409 26.6902C78.8322 25.6203 78.8948 24.5505 78.9088 23.4807C78.9088 22.971 79.2219 22.8475 79.6446 22.8458C80.5352 22.8371 81.4329 22.8388 82.3305 22.8405Z" fill="white"/>
<path d="M120.482 27.913C119.729 27.913 118.977 27.913 118.221 27.913C117.93 27.913 117.574 27.9739 117.548 27.5755C117.521 27.1511 117.88 27.0919 118.216 27.0902C119.576 27.0902 120.936 27.0902 122.295 27.0798C122.525 27.0952 122.756 27.0632 122.973 26.9858C123.286 26.8397 123.279 26.5179 123.217 26.2274C123.139 25.8621 122.839 25.8429 122.538 25.8412C121.352 25.8412 120.166 25.8516 118.979 25.8168C117.977 25.789 117.455 25.3785 117.33 24.6113C117.174 23.6459 117.678 22.9292 118.659 22.8857C120.275 22.8144 121.896 22.83 123.514 22.8057C123.82 22.8057 124.036 22.917 124.036 23.2423C124.026 23.6424 123.758 23.7642 123.386 23.7642C121.994 23.7642 120.602 23.7763 119.211 23.7642C118.63 23.7555 118.402 24.0007 118.515 24.5522C118.609 25.0288 119.005 24.954 119.345 24.9558C120.501 24.9558 121.658 24.9331 122.813 24.9697C123.968 25.0062 124.452 25.4759 124.447 26.4361C124.441 27.3964 123.944 27.8765 122.817 27.9287C122.037 27.9652 121.251 27.9287 120.475 27.9287L120.482 27.913Z" fill="white"/>
<path d="M107.531 13.6992C107.531 12.4537 107.561 11.2081 107.521 9.96609C107.498 9.24418 107.808 9.08414 108.464 9.11893C109.073 9.15198 109.633 9.06326 109.622 9.96435C109.594 12.4218 109.594 14.8803 109.622 17.3401C109.622 18.1264 109.208 18.2203 108.568 18.2099C107.928 18.1994 107.498 18.1507 107.524 17.3401C107.571 16.1224 107.537 14.9047 107.537 13.687L107.531 13.6992Z" fill="white"/>
<path d="M84.447 10.7437C82.8814 10.7437 81.3158 10.7228 79.7502 10.7541C79.1013 10.768 78.7674 10.5506 78.7517 9.88433C78.7343 9.16589 79.1935 9.13284 79.7345 9.13458C82.8658 9.14502 85.9929 9.14502 89.116 9.13458C89.6379 9.13458 90.1093 9.13458 90.0971 9.87911C90.0867 10.5541 89.7927 10.7715 89.1316 10.7489C87.5747 10.7158 86.0109 10.7437 84.447 10.7437Z" fill="white"/>
<path d="M42.705 13.6069C42.705 12.3649 42.7207 11.1228 42.6963 9.88252C42.6859 9.32586 42.8877 9.07363 43.4565 9.13103C43.9662 9.18148 44.622 8.9449 44.6186 9.85295C44.6046 12.3649 44.6046 14.8762 44.6186 17.387C44.6186 18.2046 44.1158 18.1959 43.5226 18.2185C42.8477 18.2446 42.6824 17.9367 42.6963 17.3296C42.7259 16.0893 42.705 14.8472 42.705 13.6069Z" fill="white"/>
<path d="M101.58 22.8423H104.787C105.102 22.8423 105.363 22.8857 105.348 23.305C105.332 23.7242 105.101 23.7677 104.772 23.7764C104.224 23.7921 103.678 23.8338 103.13 23.8616C102.335 23.9051 102.018 24.3835 102.013 25.1176C102.013 25.8134 101.999 26.5092 102.013 27.2051C102.013 27.5947 101.929 27.9113 101.468 27.9235C100.966 27.9374 100.846 27.6086 100.849 27.1807C100.849 26.344 100.839 25.5055 100.863 24.6688C100.882 24.0112 100.63 23.7138 99.941 23.7642C99.3374 23.8095 98.7233 23.7764 98.1214 23.7642C97.8013 23.7642 97.5299 23.6598 97.5247 23.2911C97.5195 22.9223 97.81 22.8179 98.1197 22.8162C99.2765 22.8162 100.432 22.8162 101.587 22.8162L101.58 22.8423Z" fill="white"/>
<path d="M62.5561 27.913C61.8899 27.913 61.2236 27.8956 60.5574 27.913C59.7624 27.9391 59.411 27.4868 59.2579 26.7893C59.1866 26.4692 59.2492 26.2135 59.5884 26.0934C59.9277 25.9734 60.2686 26.0517 60.3486 26.4274C60.4808 27.045 60.8983 27.0798 61.3924 27.0728C62.203 27.0624 63.0154 27.0519 63.8278 27.0728C64.5236 27.0954 64.8384 26.7997 64.821 26.0952C64.8002 25.2567 64.821 24.4165 64.821 23.5763C64.821 23.1518 64.9028 22.8231 65.4264 22.8335C65.95 22.8439 66.0213 23.171 66.0144 23.5972C65.997 24.5522 66.0144 25.5107 65.9883 26.464C65.95 27.5268 65.5203 27.9217 64.4749 27.92C64.1565 27.92 63.8364 27.9095 63.5181 27.9078C63.1998 27.906 62.8762 27.913 62.5561 27.913Z" fill="white"/>
<path d="M47.5065 15.524C47.5065 14.9186 47.5309 14.3063 47.5065 13.7061C47.4682 12.9338 47.8996 12.6728 48.5729 12.6763C49.2461 12.6798 49.6618 12.9111 49.6322 13.7026C49.5888 14.8855 49.594 16.0719 49.6322 17.2548C49.6549 18.0411 49.2756 18.2429 48.5659 18.2342C47.8562 18.2255 47.4508 18.0811 47.5396 17.2566C47.5737 16.6773 47.5772 16.0966 47.55 15.517L47.5065 15.524Z" fill="white"/>
<path d="M129.289 15.5866V17.4844C129.289 18.3646 128.634 18.1716 128.115 18.2063C127.597 18.2411 127.204 18.1716 127.211 17.4949C127.226 16.1728 127.202 14.849 127.19 13.5252C127.19 12.7998 127.668 12.6885 128.233 12.6902C128.799 12.6919 129.291 12.7946 129.295 13.5148C129.295 14.2106 129.295 14.896 129.295 15.5866H129.289Z" fill="white"/>
<path d="M29.1479 4.70558C28.139 5.57536 27.1613 6.47124 26.1002 7.42278C27.4136 7.74112 27.4083 7.7359 26.7299 8.78311C24.3467 12.4571 20.9894 14.9185 17.0145 16.6198C13.177 18.2637 9.10992 19.0082 5.01152 19.6623C3.43548 19.9146 2.9397 19.9111 2.76748 19.0135C2.16792 19.0378 1.56777 19.0691 0.967041 19.1074V20.0172C1.47673 22.2786 2.18473 24.4652 3.43722 26.4344C5.02367 28.9527 7.32523 30.9405 10.0475 32.1437C10.5085 31.6757 10.9434 31.1799 11.0791 30.5676C11.0905 30.519 11.1056 30.4713 11.1243 30.425L10.9765 30.345C11.2113 30.1449 11.3783 29.997 11.5592 29.8509C15.8542 26.6119 19.422 22.6857 22.4628 18.2707C24.5188 15.2534 26.3497 12.0887 27.9407 8.80225C28.085 8.50826 28.1355 7.70632 28.8191 8.42128C29.0209 8.63177 29.1844 8.37606 29.2192 8.16383C29.3932 7.10966 29.5671 6.05374 29.6872 4.99261C29.7359 4.59599 29.4628 4.43769 29.1479 4.70558Z" fill="white"/>
<path d="M30.7187 10.9558C32.1381 14.2793 32.3398 17.997 31.2883 21.4546C30.2367 24.9121 27.9993 27.888 24.9699 29.8585C21.9404 31.829 18.313 32.6678 14.726 32.2273C11.139 31.7868 7.82228 30.0953 5.35959 27.4503C2.89689 24.8054 1.44602 21.3766 1.2623 17.7673C1.07858 14.158 2.17378 10.5996 4.35517 7.7183C6.53656 4.83697 9.66434 2.81737 13.1881 2.01492C16.7118 1.21247 20.4056 1.67861 23.6195 3.33129" stroke="white" stroke-width="2.43538" stroke-miterlimit="10" stroke-linecap="round"/>
</g>
<defs>
<clipPath id="clip0_1_12418">
<rect width="141" height="33.1717" fill="white" transform="translate(0.000244141 0.414062)"/>
</clipPath>
</defs>
</svg>
