<svg width="227" height="227" viewBox="0 0 227 227" fill="none" xmlns="http://www.w3.org/2000/svg">
<circle cx="113.807" cy="113.626" r="109.5" stroke="white" stroke-width="7"/>
<path d="M85.5805 153.99C84.6884 153.99 83.8328 153.636 83.202 153.005C82.5712 152.374 82.2168 151.519 82.2168 150.627V76.6253C82.2169 76.0408 82.3693 75.4664 82.659 74.9588C82.9487 74.4511 83.3657 74.0277 83.8689 73.7302C84.3721 73.4328 84.9441 73.2716 85.5285 73.2626C86.113 73.2536 86.6897 73.397 87.2018 73.6787L154.476 110.679C155.003 110.97 155.443 111.396 155.749 111.915C156.056 112.433 156.217 113.024 156.217 113.626C156.217 114.228 156.056 114.819 155.749 115.337C155.443 115.856 155.003 116.282 154.476 116.573L87.2018 153.573C86.7051 153.847 86.1474 153.99 85.5805 153.99Z" fill="white"/>
</svg>
