<svg width="143" height="39" viewBox="0 0 143 39" fill="none" xmlns="http://www.w3.org/2000/svg">
<path d="M5.44736 8.04886C4.70081 8.04886 4.06194 7.89093 3.53074 7.57508C2.99954 7.25924 2.59037 6.81059 2.30324 6.22914C2.02328 5.64769 1.8833 4.95498 1.8833 4.151C1.8833 3.3542 2.02328 2.66508 2.30324 2.08363C2.59037 1.50218 2.99954 1.05354 3.53074 0.737689C4.06194 0.42184 4.70081 0.263916 5.44736 0.263916C5.97138 0.263916 6.45233 0.346467 6.89021 0.51157C7.33527 0.676672 7.71214 0.917148 8.02081 1.233L7.67624 1.95442C7.34604 1.64575 7.00148 1.42322 6.64256 1.28683C6.29082 1.14327 5.8996 1.07148 5.4689 1.07148C4.61467 1.07148 3.96144 1.34067 3.5092 1.87905C3.05696 2.41743 2.83085 3.17474 2.83085 4.151C2.83085 5.13444 3.05696 5.89535 3.5092 6.43372C3.96144 6.9721 4.61467 7.24129 5.4689 7.24129C5.8996 7.24129 6.29082 7.17309 6.64256 7.03671C7.00148 6.89314 7.34604 6.66702 7.67624 6.35835L8.02081 7.07978C7.71214 7.38845 7.33527 7.62892 6.89021 7.8012C6.45233 7.96631 5.97138 8.04886 5.44736 8.04886Z" fill="#D0EBFF"/>
<path d="M11.0261 8.04886C9.76992 8.04886 9.14181 7.35614 9.14181 5.97072V2.71892H10.014V5.95995C10.014 6.42655 10.1073 6.77111 10.2939 6.99364C10.4878 7.21617 10.7892 7.32743 11.1984 7.32743C11.6435 7.32743 12.006 7.18027 12.2859 6.88596C12.5659 6.58447 12.7059 6.18607 12.7059 5.69076V2.71892H13.578V7.95195H12.7274V7.06901C12.5623 7.38486 12.329 7.62892 12.0275 7.8012C11.7332 7.96631 11.3994 8.04886 11.0261 8.04886Z" fill="#D0EBFF"/>
<path d="M16.9757 8.04886C16.5665 8.04886 16.1789 7.99143 15.8128 7.87658C15.4467 7.76172 15.1452 7.60021 14.9083 7.39204L15.1883 6.77829C15.4467 6.98646 15.7303 7.14079 16.0389 7.24129C16.3548 7.33461 16.6742 7.38127 16.9972 7.38127C17.4064 7.38127 17.7151 7.3059 17.9233 7.15515C18.1314 7.0044 18.2355 6.79982 18.2355 6.5414C18.2355 6.3404 18.1673 6.18248 18.0309 6.06763C17.8945 5.94559 17.6792 5.85228 17.3849 5.78767L16.405 5.57232C15.5149 5.3785 15.0699 4.91909 15.0699 4.19407C15.0699 3.7203 15.2565 3.33985 15.6298 3.05271C16.0102 2.76558 16.5055 2.62201 17.1157 2.62201C17.4746 2.62201 17.8156 2.67944 18.1386 2.79429C18.4688 2.90197 18.7416 3.06348 18.9569 3.27883L18.6662 3.89258C18.458 3.69877 18.214 3.55161 17.934 3.45111C17.6612 3.34344 17.3885 3.2896 17.1157 3.2896C16.7137 3.2896 16.4086 3.36856 16.2004 3.52648C15.9923 3.68441 15.8882 3.89258 15.8882 4.151C15.8882 4.55299 16.1538 4.81141 16.685 4.92627L17.6648 5.13085C18.1242 5.23135 18.4724 5.39286 18.7093 5.61539C18.9462 5.83074 19.0646 6.12505 19.0646 6.49833C19.0646 6.97928 18.8744 7.35973 18.4939 7.63969C18.1135 7.91247 17.6074 8.04886 16.9757 8.04886Z" fill="#D0EBFF"/>
<path d="M22.4409 8.04886C21.8236 8.04886 21.3606 7.88734 21.0519 7.56432C20.7432 7.23411 20.5889 6.76034 20.5889 6.143V3.39727H19.566V2.71892H20.5889V1.11455H21.4611V2.71892H23.1193V3.39727H21.4611V6.05686C21.4611 6.46603 21.5472 6.77829 21.7195 6.99364C21.8918 7.20181 22.1717 7.30589 22.5594 7.30589C22.6742 7.30589 22.7891 7.29154 22.9039 7.26283C23.0188 7.23411 23.1229 7.2054 23.2162 7.17668L23.3669 7.84427C23.2736 7.89452 23.1372 7.94118 22.9578 7.98425C22.7783 8.02732 22.606 8.04886 22.4409 8.04886Z" fill="#D0EBFF"/>
<path d="M26.2281 8.04886C25.7185 8.04886 25.277 7.93759 24.9037 7.71506C24.5305 7.49253 24.2397 7.18027 24.0316 6.77829C23.8306 6.36912 23.7301 5.88817 23.7301 5.33543C23.7301 4.7827 23.8306 4.30534 24.0316 3.90335C24.2397 3.49418 24.5305 3.17833 24.9037 2.9558C25.277 2.73327 25.7185 2.62201 26.2281 2.62201C26.7306 2.62201 27.1685 2.73327 27.5418 2.9558C27.9222 3.17833 28.213 3.49418 28.414 3.90335C28.6221 4.30534 28.7262 4.7827 28.7262 5.33543C28.7262 5.88817 28.6221 6.36912 28.414 6.77829C28.213 7.18027 27.9222 7.49253 27.5418 7.71506C27.1685 7.93759 26.7306 8.04886 26.2281 8.04886ZM26.2281 7.34897C26.7163 7.34897 27.1075 7.17668 27.4018 6.83212C27.6961 6.48038 27.8433 5.98149 27.8433 5.33543C27.8433 4.6822 27.6961 4.1833 27.4018 3.83874C27.1075 3.49418 26.7163 3.3219 26.2281 3.3219C25.7328 3.3219 25.338 3.49418 25.0437 3.83874C24.7566 4.1833 24.613 4.6822 24.613 5.33543C24.613 5.98149 24.7566 6.48038 25.0437 6.83212C25.338 7.17668 25.7328 7.34897 26.2281 7.34897Z" fill="#D0EBFF"/>
<path d="M30.0578 7.95195V2.71892H30.9084V3.60186C31.0663 3.28601 31.2853 3.04553 31.5652 2.88043C31.8452 2.70815 32.1718 2.62201 32.5451 2.62201C33.3634 2.62201 33.8874 2.97734 34.1171 3.688C34.2751 3.35779 34.5084 3.09937 34.817 2.91273C35.1257 2.71892 35.481 2.62201 35.883 2.62201C37.0459 2.62201 37.6274 3.31113 37.6274 4.68938V7.95195H36.7552V4.73245C36.7552 4.2515 36.6691 3.89976 36.4968 3.67723C36.3317 3.44752 36.0553 3.33267 35.6677 3.33267C35.2441 3.33267 34.9068 3.48341 34.6555 3.78491C34.4043 4.0864 34.2787 4.48839 34.2787 4.99087V7.95195H33.4065V4.73245C33.4065 4.2515 33.3203 3.89976 33.1481 3.67723C32.983 3.44752 32.7066 3.33267 32.319 3.33267C31.8883 3.33267 31.5473 3.48341 31.296 3.78491C31.052 4.0864 30.9299 4.48839 30.9299 4.99087V7.95195H30.0578Z" fill="#D0EBFF"/>
<path d="M41.6162 8.04886C40.7906 8.04886 40.1374 7.80838 39.6565 7.32743C39.1755 6.8393 38.935 6.17889 38.935 5.3462C38.935 4.80782 39.0427 4.33405 39.2581 3.92488C39.4734 3.50854 39.7677 3.1891 40.141 2.96657C40.5215 2.73686 40.9593 2.62201 41.4546 2.62201C42.1653 2.62201 42.7216 2.85172 43.1236 3.31113C43.5256 3.76337 43.7266 4.38789 43.7266 5.18469V5.51848H39.7857C39.8144 6.11429 39.9867 6.57011 40.3025 6.88596C40.6184 7.19463 41.0562 7.34897 41.6162 7.34897C41.932 7.34897 42.2335 7.30231 42.5206 7.20899C42.8078 7.10849 43.0805 6.94698 43.339 6.72445L43.6404 7.3382C43.4036 7.56073 43.1021 7.7366 42.736 7.86581C42.3699 7.98784 41.9966 8.04886 41.6162 8.04886ZM41.4762 3.26806C40.9809 3.26806 40.5896 3.4224 40.3025 3.73107C40.0154 4.03974 39.8467 4.44532 39.7964 4.9478H42.9729C42.9513 4.4166 42.8114 4.00385 42.5529 3.70953C42.3017 3.41522 41.9428 3.26806 41.4762 3.26806Z" fill="#D0EBFF"/>
<path d="M44.9888 7.95195V2.71892H45.8395V3.65569C46.1194 3.024 46.6937 2.67585 47.5623 2.61124L47.8745 2.57894L47.9391 3.33267L47.39 3.39727C46.8947 3.44034 46.5178 3.59827 46.2594 3.87105C46.001 4.13665 45.8718 4.50274 45.8718 4.96934V7.95195H44.9888Z" fill="#D0EBFF"/>
<path d="M50.5612 8.04886C50.152 8.04886 49.7644 7.99143 49.3983 7.87658C49.0322 7.76172 48.7307 7.60021 48.4938 7.39204L48.7738 6.77829C49.0322 6.98646 49.3158 7.14079 49.6244 7.24129C49.9403 7.33461 50.2597 7.38127 50.5827 7.38127C50.9919 7.38127 51.3006 7.3059 51.5088 7.15515C51.7169 7.0044 51.821 6.79982 51.821 6.5414C51.821 6.3404 51.7528 6.18248 51.6164 6.06763C51.48 5.94559 51.2647 5.85228 50.9704 5.78767L49.9905 5.57232C49.1004 5.3785 48.6554 4.91909 48.6554 4.19407C48.6554 3.7203 48.842 3.33985 49.2153 3.05271C49.5957 2.76558 50.091 2.62201 50.7012 2.62201C51.0601 2.62201 51.4011 2.67944 51.7241 2.79429C52.0543 2.90197 52.3271 3.06348 52.5424 3.27883L52.2517 3.89258C52.0435 3.69877 51.7995 3.55161 51.5195 3.45111C51.2467 3.34344 50.974 3.2896 50.7012 3.2896C50.2992 3.2896 49.9941 3.36856 49.7859 3.52648C49.5778 3.68441 49.4737 3.89258 49.4737 4.151C49.4737 4.55299 49.7393 4.81141 50.2705 4.92627L51.2503 5.13085C51.7098 5.23135 52.0579 5.39286 52.2948 5.61539C52.5317 5.83074 52.6501 6.12505 52.6501 6.49833C52.6501 6.97928 52.4599 7.35973 52.0794 7.63969C51.699 7.91247 51.1929 8.04886 50.5612 8.04886Z" fill="#D0EBFF"/>
<path d="M56.8633 7.95195V0.360824H59.8674C60.6857 0.360824 61.3103 0.551051 61.741 0.931504C62.1788 1.31196 62.3978 1.85392 62.3978 2.5574C62.3978 3.11732 62.2434 3.57673 61.9348 3.93565C61.6333 4.29457 61.2026 4.52787 60.6427 4.63554C60.9729 4.7504 61.2564 5.03035 61.4933 5.47541L62.8285 7.95195H61.8594L60.5458 5.51848C60.3807 5.21699 60.1904 5.01241 59.9751 4.90473C59.7597 4.79706 59.4762 4.74322 59.1244 4.74322H57.7462V7.95195H56.8633ZM57.7462 4.04333H59.7382C60.9298 4.04333 61.5256 3.54802 61.5256 2.5574C61.5256 1.58115 60.9298 1.09302 59.7382 1.09302H57.7462V4.04333Z" fill="#D0EBFF"/>
<path d="M66.1901 8.04886C65.3646 8.04886 64.7114 7.80838 64.2304 7.32743C63.7495 6.8393 63.509 6.17889 63.509 5.3462C63.509 4.80782 63.6167 4.33405 63.8321 3.92488C64.0474 3.50854 64.3417 3.1891 64.715 2.96657C65.0954 2.73686 65.5333 2.62201 66.0286 2.62201C66.7393 2.62201 67.2956 2.85172 67.6976 3.31113C68.0996 3.76337 68.3006 4.38789 68.3006 5.18469V5.51848H64.3597C64.3884 6.11429 64.5607 6.57011 64.8765 6.88596C65.1924 7.19463 65.6302 7.34897 66.1901 7.34897C66.506 7.34897 66.8075 7.30231 67.0946 7.20899C67.3818 7.10849 67.6545 6.94698 67.913 6.72445L68.2144 7.3382C67.9776 7.56073 67.6761 7.7366 67.31 7.86581C66.9439 7.98784 66.5706 8.04886 66.1901 8.04886ZM66.0502 3.26806C65.5549 3.26806 65.1636 3.4224 64.8765 3.73107C64.5894 4.03974 64.4207 4.44532 64.3704 4.9478H67.5469C67.5253 4.4166 67.3853 4.00385 67.1269 3.70953C66.8757 3.41522 66.5168 3.26806 66.0502 3.26806Z" fill="#D0EBFF"/>
<path d="M71.0395 7.95195L68.7891 2.71892H69.7366L71.4702 6.96133L73.2253 2.71892H74.119L71.8578 7.95195H71.0395Z" fill="#D0EBFF"/>
<path d="M74.9336 1.41604V0.436197H76.0103V1.41604H74.9336ZM75.0412 7.95195V2.71892H75.9134V7.95195H75.0412Z" fill="#D0EBFF"/>
<path d="M79.9019 8.04886C79.0764 8.04886 78.4232 7.80838 77.9423 7.32743C77.4613 6.8393 77.2208 6.17889 77.2208 5.3462C77.2208 4.80782 77.3285 4.33405 77.5439 3.92488C77.7592 3.50854 78.0535 3.1891 78.4268 2.96657C78.8072 2.73686 79.2451 2.62201 79.7404 2.62201C80.4511 2.62201 81.0074 2.85172 81.4094 3.31113C81.8114 3.76337 82.0124 4.38789 82.0124 5.18469V5.51848H78.0715C78.1002 6.11429 78.2725 6.57011 78.5883 6.88596C78.9042 7.19463 79.342 7.34897 79.9019 7.34897C80.2178 7.34897 80.5193 7.30231 80.8064 7.20899C81.0936 7.10849 81.3663 6.94698 81.6248 6.72445L81.9262 7.3382C81.6894 7.56073 81.3879 7.7366 81.0218 7.86581C80.6557 7.98784 80.2824 8.04886 79.9019 8.04886ZM79.762 3.26806C79.2667 3.26806 78.8754 3.4224 78.5883 3.73107C78.3012 4.03974 78.1325 4.44532 78.0822 4.9478H81.2587C81.2371 4.4166 81.0971 4.00385 80.8387 3.70953C80.5875 3.41522 80.2286 3.26806 79.762 3.26806Z" fill="#D0EBFF"/>
<path d="M84.6006 7.95195L82.6516 2.71892H83.5669L85.042 6.92903L86.571 2.71892H87.314L88.8214 6.9398L90.3181 2.71892H91.1903L89.2306 7.95195H88.4015L86.9263 3.89258L85.4404 7.95195H84.6006Z" fill="#D0EBFF"/>
<path d="M92.1251 3.81721V2.71892H93.2234V3.81721H92.1251ZM92.1251 7.95195V6.85366H93.2234V7.95195H92.1251Z" fill="#D0EBFF"/>
<path d="M97.5545 7.95195V0.360824H102.604V1.45911H98.8789V3.54802H102.368V4.64631H98.8789V6.85366H102.604V7.95195H97.5545Z" fill="#D0EBFF"/>
<path d="M103.118 7.95195L105.325 5.22776L103.258 2.68662H104.83L106.1 4.31252L107.371 2.68662H108.943L106.865 5.23853L109.083 7.95195H107.5L106.09 6.1753L104.69 7.95195H103.118Z" fill="#D0EBFF"/>
<path d="M112.025 8.05962C111.472 8.05962 110.991 7.94836 110.582 7.72583C110.173 7.49612 109.857 7.1731 109.634 6.75675C109.412 6.3404 109.301 5.85228 109.301 5.29236C109.301 4.73245 109.412 4.2515 109.634 3.84951C109.857 3.44034 110.173 3.12809 110.582 2.91273C110.991 2.6902 111.472 2.57894 112.025 2.57894C112.362 2.57894 112.696 2.63278 113.026 2.74045C113.356 2.84813 113.629 2.99887 113.845 3.19269L113.446 4.12947C113.26 3.96436 113.048 3.83874 112.811 3.7526C112.581 3.66646 112.359 3.62339 112.143 3.62339C111.677 3.62339 111.314 3.77055 111.056 4.06486C110.805 4.352 110.679 4.76475 110.679 5.30313C110.679 5.83433 110.805 6.25426 111.056 6.56293C111.314 6.86443 111.677 7.01517 112.143 7.01517C112.351 7.01517 112.574 6.9721 112.811 6.88596C113.048 6.79982 113.26 6.67061 113.446 6.49833L113.845 7.44587C113.629 7.63251 113.353 7.78326 113.015 7.89811C112.685 8.00579 112.355 8.05962 112.025 8.05962Z" fill="#D0EBFF"/>
<path d="M117.16 8.05962C116.564 8.05962 116.051 7.94836 115.62 7.72583C115.19 7.5033 114.856 7.18745 114.619 6.77829C114.389 6.36912 114.274 5.88458 114.274 5.32467C114.274 4.77911 114.386 4.30175 114.608 3.89258C114.838 3.48341 115.15 3.16398 115.545 2.93427C115.947 2.69738 116.403 2.57894 116.912 2.57894C117.659 2.57894 118.248 2.81583 118.678 3.2896C119.116 3.76337 119.335 4.40942 119.335 5.22776V5.62616H115.566C115.667 6.56652 116.205 7.03671 117.182 7.03671C117.476 7.03671 117.77 6.99364 118.065 6.9075C118.359 6.81418 118.628 6.67061 118.872 6.47679L119.249 7.38127C118.998 7.58944 118.682 7.75454 118.301 7.87658C117.921 7.99861 117.54 8.05962 117.16 8.05962ZM116.966 3.49418C116.571 3.49418 116.252 3.61621 116.008 3.86028C115.764 4.10434 115.617 4.43455 115.566 4.85089H118.215C118.187 4.41301 118.065 4.07922 117.849 3.84951C117.641 3.61262 117.347 3.49418 116.966 3.49418Z" fill="#D0EBFF"/>
<path d="M122.231 8.05962C121.607 8.05962 121.144 7.89093 120.842 7.55355C120.548 7.20899 120.401 6.7065 120.401 6.04609V0.360824H121.747V5.98149C121.747 6.62754 122.02 6.95057 122.565 6.95057C122.644 6.95057 122.723 6.94698 122.802 6.9398C122.881 6.93262 122.956 6.91826 123.028 6.89673L123.007 7.96272C122.748 8.02732 122.49 8.05962 122.231 8.05962Z" fill="#D0EBFF"/>
<path d="M125.67 8.05962C125.045 8.05962 124.582 7.89093 124.281 7.55355C123.987 7.20899 123.839 6.7065 123.839 6.04609V0.360824H125.185V5.98149C125.185 6.62754 125.458 6.95057 126.004 6.95057C126.083 6.95057 126.162 6.94698 126.241 6.9398C126.32 6.93262 126.395 6.91826 126.467 6.89673L126.445 7.96272C126.187 8.02732 125.928 8.05962 125.67 8.05962Z" fill="#D0EBFF"/>
<path d="M129.82 8.05962C129.225 8.05962 128.711 7.94836 128.281 7.72583C127.85 7.5033 127.516 7.18745 127.279 6.77829C127.049 6.36912 126.935 5.88458 126.935 5.32467C126.935 4.77911 127.046 4.30175 127.268 3.89258C127.498 3.48341 127.81 3.16398 128.205 2.93427C128.607 2.69738 129.063 2.57894 129.573 2.57894C130.319 2.57894 130.908 2.81583 131.339 3.2896C131.776 3.76337 131.995 4.40942 131.995 5.22776V5.62616H128.227C128.327 6.56652 128.866 7.03671 129.842 7.03671C130.136 7.03671 130.43 6.99364 130.725 6.9075C131.019 6.81418 131.288 6.67061 131.532 6.47679L131.909 7.38127C131.658 7.58944 131.342 7.75454 130.962 7.87658C130.581 7.99861 130.201 8.05962 129.82 8.05962ZM129.627 3.49418C129.232 3.49418 128.912 3.61621 128.668 3.86028C128.424 4.10434 128.277 4.43455 128.227 4.85089H130.876C130.847 4.41301 130.725 4.07922 130.509 3.84951C130.301 3.61262 130.007 3.49418 129.627 3.49418Z" fill="#D0EBFF"/>
<path d="M133.061 7.95195V2.68662H134.375V3.50495C134.554 3.20346 134.795 2.97375 135.096 2.81583C135.405 2.6579 135.75 2.57894 136.13 2.57894C137.372 2.57894 137.993 3.30037 137.993 4.74322V7.95195H136.647V4.80782C136.647 4.39866 136.568 4.10075 136.41 3.91412C136.259 3.72748 136.022 3.63416 135.699 3.63416C135.305 3.63416 134.989 3.75978 134.752 4.01102C134.522 4.25509 134.407 4.5817 134.407 4.99087V7.95195H133.061Z" fill="#D0EBFF"/>
<path d="M141.772 8.05962C140.379 8.05962 139.683 7.3705 139.683 5.99225V3.69877H138.671V2.68662H139.683V1.11455H141.029V2.68662H142.622V3.69877H141.029V5.91688C141.029 6.26144 141.104 6.51986 141.255 6.69214C141.406 6.86443 141.65 6.95057 141.987 6.95057C142.088 6.95057 142.192 6.9398 142.299 6.91826C142.407 6.88955 142.518 6.86084 142.633 6.83212L142.838 7.82274C142.709 7.89452 142.543 7.95195 142.342 7.99502C142.149 8.03809 141.958 8.05962 141.772 8.05962Z" fill="#D0EBFF"/>
<rect x="0.0976562" y="14.6948" width="23.718" height="23.718" fill="#11B87A"/>
<path d="M11.2518 16.8643C11.4736 16.1815 12.4397 16.1815 12.6616 16.8643L14.4528 22.3771C14.552 22.6824 14.8366 22.8892 15.1577 22.8892L20.9541 22.8892C21.6721 22.8892 21.9706 23.808 21.3898 24.23L16.7004 27.6371C16.4406 27.8258 16.3319 28.1604 16.4311 28.4657L18.2223 33.9785C18.4442 34.6613 17.6626 35.2292 17.0817 34.8072L12.3923 31.4001C12.1325 31.2114 11.7808 31.2114 11.521 31.4001L6.8316 34.8072C6.25072 35.2292 5.46915 34.6613 5.69103 33.9785L7.48222 28.4657C7.58145 28.1604 7.47275 27.8258 7.21297 27.6371L2.52356 24.23C1.94268 23.808 2.24121 22.8892 2.95922 22.8892L8.75565 22.8892C9.07675 22.8892 9.36133 22.6824 9.46056 22.377L11.2518 16.8643Z" fill="white"/>
<rect x="29.4443" y="14.6948" width="23.718" height="23.718" fill="#11B87A"/>
<path d="M40.5984 16.8643C40.8203 16.1815 41.7864 16.1815 42.0083 16.8643L43.7995 22.377C43.8987 22.6824 44.1833 22.8892 44.5044 22.8892L50.3008 22.8892C51.0188 22.8892 51.3173 23.808 50.7365 24.23L46.047 27.6371C45.7873 27.8258 45.6786 28.1604 45.7778 28.4657L47.569 33.9785C47.7909 34.6613 47.0093 35.2292 46.4284 34.8072L41.739 31.4001C41.4792 31.2114 41.1275 31.2114 40.8677 31.4001L36.1783 34.8071C35.5974 35.2292 34.8158 34.6613 35.0377 33.9785L36.8289 28.4657C36.9281 28.1604 36.8194 27.8258 36.5596 27.6371L31.8702 24.23C31.2894 23.808 31.5879 22.8892 32.3059 22.8892L38.1023 22.8892C38.4234 22.8892 38.708 22.6824 38.8072 22.377L40.5984 16.8643Z" fill="white"/>
<rect x="58.7881" y="14.6948" width="23.718" height="23.718" fill="#11B87A"/>
<path d="M69.9422 16.8643C70.1641 16.1815 71.1301 16.1815 71.352 16.8643L73.1432 22.377C73.2424 22.6824 73.527 22.8892 73.8481 22.8892L79.6445 22.8892C80.3625 22.8892 80.6611 23.808 80.0802 24.23L75.3908 27.6371C75.131 27.8258 75.0223 28.1604 75.1215 28.4657L76.9127 33.9785C77.1346 34.6613 76.353 35.2292 75.7722 34.8072L71.0828 31.4001C70.823 31.2114 70.4712 31.2114 70.2114 31.4001L65.522 34.8071C64.9411 35.2292 64.1596 34.6613 64.3815 33.9785L66.1727 28.4657C66.2719 28.1604 66.1632 27.8258 65.9034 27.6371L61.214 24.23C60.6331 23.808 60.9316 22.8892 61.6496 22.8892L67.4461 22.8892C67.7672 22.8892 68.0518 22.6824 68.151 22.377L69.9422 16.8643Z" fill="white"/>
<rect x="88.1338" y="14.6948" width="23.718" height="23.718" fill="#11B87A"/>
<path d="M99.2879 16.8643C99.5098 16.1815 100.476 16.1815 100.698 16.8643L102.489 22.377C102.588 22.6824 102.873 22.8892 103.194 22.8892L108.99 22.8892C109.708 22.8892 110.007 23.808 109.426 24.23L104.736 27.6371C104.477 27.8258 104.368 28.1604 104.467 28.4657L106.258 33.9785C106.48 34.6613 105.699 35.2292 105.118 34.8072L100.428 31.4001C100.169 31.2114 99.8169 31.2114 99.5571 31.4001L94.8677 34.8071C94.2869 35.2292 93.5053 34.6613 93.7272 33.9785L95.5184 28.4657C95.6176 28.1604 95.5089 27.8258 95.2491 27.6371L90.5597 24.23C89.9788 23.808 90.2773 22.8892 90.9954 22.8892L96.7918 22.8892C97.1129 22.8892 97.3975 22.6824 97.4967 22.377L99.2879 16.8643Z" fill="white"/>
<rect x="117.479" y="14.6948" width="23.718" height="23.718" fill="#11B87A"/>
<path d="M128.633 16.8643C128.855 16.1815 129.821 16.1815 130.043 16.8643L131.834 22.377C131.934 22.6824 132.218 22.8892 132.539 22.8892L138.336 22.8892C139.054 22.8892 139.352 23.808 138.771 24.23L134.082 27.6371C133.822 27.8258 133.713 28.1604 133.813 28.4657L135.604 33.9785C135.826 34.6613 135.044 35.2292 134.463 34.8072L129.774 31.4001C129.514 31.2114 129.162 31.2114 128.903 31.4001L124.213 34.8071C123.632 35.2292 122.851 34.6613 123.073 33.9785L124.864 28.4657C124.963 28.1604 124.854 27.8258 124.595 27.6371L119.905 24.23C119.324 23.808 119.623 22.8892 120.341 22.8892L126.137 22.8892C126.458 22.8892 126.743 22.6824 126.842 22.377L128.633 16.8643Z" fill="white"/>
</svg>
