<svg width="24" height="25" viewBox="0 0 24 25" fill="none" xmlns="http://www.w3.org/2000/svg">
<rect x="0.0976562" y="0.694824" width="23.718" height="23.718" fill="#11B87A"/>
<path d="M11.2518 2.86432C11.4736 2.18145 12.4397 2.18145 12.6616 2.86432L14.4528 8.37705C14.552 8.68244 14.8366 8.8892 15.1577 8.8892L20.9541 8.8892C21.6721 8.8892 21.9706 9.80799 21.3898 10.23L16.7004 13.6371C16.4406 13.8258 16.3319 14.1604 16.4311 14.4657L18.2223 19.9785C18.4442 20.6613 17.6626 21.2292 17.0817 20.8072L12.3923 17.4001C12.1325 17.2114 11.7808 17.2114 11.521 17.4001L6.8316 20.8071C6.25072 21.2292 5.46915 20.6613 5.69103 19.9785L7.48222 14.4657C7.58145 14.1604 7.47275 13.8258 7.21297 13.6371L2.52356 10.23C1.94268 9.80799 2.24121 8.8892 2.95922 8.8892L8.75565 8.8892C9.07675 8.8892 9.36133 8.68244 9.46056 8.37705L11.2518 2.86432Z" fill="white"/>
</svg>
