<svg width="42" height="42" viewBox="0 0 42 42" fill="none" xmlns="http://www.w3.org/2000/svg">
<rect x="0.648926" y="0.608154" width="35" height="35" fill="white"/>
<path d="M19.3744 12.9263V23.1082H18.1415V14.7161H18.0619C18.0155 14.8089 17.8962 14.915 17.704 15.0343C17.5117 15.1503 17.2632 15.253 16.9582 15.3425C16.6533 15.4287 16.3053 15.4718 15.9142 15.4718V14.4377C16.3086 14.4377 16.65 14.3664 16.9383 14.2239C17.2267 14.0814 17.467 13.914 17.6592 13.7218C17.8548 13.5296 18.0023 13.3555 18.1017 13.1998C18.2044 13.044 18.2641 12.9529 18.2807 12.9263H19.3744Z" fill="white"/>
<rect x="0.648926" y="0.608154" width="35" height="35" stroke="#DEDEDE"/>
<rect width="36" height="36" transform="translate(5.14893 5.10815)" fill="#D8EDFF"/>
<path d="M19.9646 28.1082V27.2133L23.3254 23.5343C23.7198 23.1034 24.0446 22.7289 24.2998 22.4107C24.5551 22.0892 24.744 21.7876 24.8666 21.5059C24.9926 21.2208 25.0555 20.9225 25.0555 20.611C25.0555 20.253 24.9694 19.9431 24.797 19.6813C24.628 19.4195 24.396 19.2173 24.101 19.0748C23.806 18.9323 23.4746 18.861 23.1067 18.861C22.7156 18.861 22.3742 18.9422 22.0825 19.1046C21.7942 19.2637 21.5704 19.4874 21.4114 19.7758C21.2556 20.0641 21.1777 20.4022 21.1777 20.79H20.0044C20.0044 20.1934 20.1419 19.6697 20.417 19.2189C20.6921 18.7682 21.0667 18.4169 21.5406 18.165C22.0179 17.9131 22.5532 17.7871 23.1464 17.7871C23.743 17.7871 24.2717 17.9131 24.7324 18.165C25.1931 18.4169 25.5543 18.7566 25.8162 19.1841C26.078 19.6117 26.2089 20.0873 26.2089 20.611C26.2089 20.9855 26.141 21.3518 26.0051 21.7097C25.8725 22.0644 25.6405 22.4604 25.3091 22.8979C24.981 23.3321 24.5252 23.8624 23.9419 24.4888L21.655 26.9349V27.0144H26.3879V28.1082H19.9646Z" fill="#2B68DE"/>
</svg>
