<svg width="42" height="42" viewBox="0 0 42 42" fill="none" xmlns="http://www.w3.org/2000/svg">
<rect x="0.648193" y="0.608643" width="35" height="35" fill="white"/>
<path d="M19.3737 12.9268V23.1086H18.1407V14.7166H18.0612C18.0148 14.8094 17.8955 14.9155 17.7032 15.0348C17.511 15.1508 17.2624 15.2535 16.9575 15.343C16.6526 15.4292 16.3046 15.4723 15.9135 15.4723V14.4382C16.3079 14.4382 16.6493 14.3669 16.9376 14.2244C17.226 14.0819 17.4663 13.9145 17.6585 13.7223C17.854 13.53 18.0015 13.356 18.101 13.2003C18.2037 13.0445 18.2634 12.9533 18.2799 12.9268H19.3737Z" fill="white"/>
<rect x="0.648193" y="0.608643" width="35" height="35" stroke="#DEDEDE"/>
<rect width="36" height="36" transform="translate(5.15015 5.10864)" fill="#D8EDFF"/>
<path d="M19.6495 25.5632H20.9024C20.9388 25.9079 21.0565 26.1996 21.2553 26.4382C21.4575 26.6735 21.7194 26.8525 22.0409 26.9751C22.3624 27.0944 22.7187 27.1541 23.1098 27.1541C23.534 27.1541 23.9152 27.0828 24.2532 26.9403C24.5913 26.7978 24.8598 26.5857 25.0586 26.304C25.2575 26.0189 25.3569 25.6659 25.3569 25.245C25.3569 24.8771 25.2707 24.5357 25.0984 24.2209C24.926 23.9027 24.6493 23.6458 24.2681 23.4503C23.887 23.2547 23.3815 23.1569 22.7518 23.1569H21.9365V22.1626L24.4819 19.1001V19.0206H20.1467V17.9268H26.1723V18.8217L23.4478 22.1228V22.2024C23.8853 22.2223 24.293 22.3118 24.6708 22.4709C25.052 22.6299 25.3834 22.8454 25.6652 23.1172C25.9502 23.3889 26.1723 23.7055 26.3313 24.0667C26.4904 24.428 26.57 24.8208 26.57 25.245C26.57 25.825 26.4208 26.3421 26.1225 26.7961C25.8276 27.2469 25.4182 27.6015 24.8946 27.8601C24.3742 28.1186 23.7726 28.2478 23.0899 28.2478C22.4866 28.2478 21.9315 28.1418 21.4244 27.9297C20.9173 27.7175 20.5046 27.411 20.1865 27.0099C19.8683 26.6089 19.6893 26.1266 19.6495 25.5632Z" fill="#2B68DE"/>
</svg>
