<svg width="42" height="42" viewBox="0 0 42 42" fill="none" xmlns="http://www.w3.org/2000/svg">
<rect x="0.648926" y="0.608154" width="35" height="35" fill="white"/>
<path d="M19.3744 12.9263V23.1082H18.1415V14.7161H18.0619C18.0155 14.8089 17.8962 14.915 17.704 15.0343C17.5117 15.1503 17.2632 15.253 16.9582 15.3425C16.6533 15.4287 16.3053 15.4718 15.9142 15.4718V14.4377C16.3086 14.4377 16.65 14.3664 16.9383 14.2239C17.2267 14.0814 17.467 13.914 17.6592 13.7218C17.8548 13.5296 18.0023 13.3555 18.1017 13.1998C18.2044 13.044 18.2641 12.9529 18.2807 12.9263H19.3744Z" fill="white"/>
<rect x="0.648926" y="0.608154" width="35" height="35" stroke="#DEDEDE"/>
<rect width="36" height="36" transform="translate(5.14893 5.10815)" fill="#D8EDFF"/>
<path d="M24.3744 17.9263V28.1082H23.1415V19.7161H23.0619C23.0155 19.8089 22.8962 19.915 22.704 20.0343C22.5117 20.1503 22.2632 20.253 21.9582 20.3425C21.6533 20.4287 21.3053 20.4718 20.9142 20.4718V19.4377C21.3086 19.4377 21.65 19.3664 21.9383 19.2239C22.2267 19.0814 22.467 18.914 22.6592 18.7218C22.8548 18.5296 23.0023 18.3555 23.1017 18.1998C23.2044 18.044 23.2641 17.9529 23.2807 17.9263H24.3744Z" fill="#2B68DE"/>
</svg>
